<svg width="80" height="80" viewBox="0 0 80 80" fill="none" xmlns="http://www.w3.org/2000/svg">
<path d="M21.496 53.6497C25.0095 53.6497 27.8577 50.8014 27.8577 47.288C27.8577 43.7745 25.0095 40.9263 21.496 40.9263C17.9826 40.9263 15.1343 43.7745 15.1343 47.288C15.1343 50.8014 17.9826 53.6497 21.496 53.6497Z" fill="#1D5B7A"/>
<path d="M28.5234 38.7811C32.0369 38.7811 34.8852 35.9329 34.8852 32.4194C34.8852 28.906 32.0369 26.0577 28.5234 26.0577C25.01 26.0577 22.1617 28.906 22.1617 32.4194C22.1617 35.9329 25.01 38.7811 28.5234 38.7811Z" fill="#1D5B7A"/>
<path d="M68.1732 45.3647L43.0963 35.6002C41.3209 34.8605 39.2496 35.6742 38.362 37.3756L27.9317 57.7182H11.2877V35.7481C11.2877 34.9344 10.622 34.3427 9.88224 34.3427H6.40549C5.59179 34.3427 5 35.0084 5 35.7481V73.4745C5 74.2882 5.66576 74.88 6.40549 74.88H9.88224C10.6959 74.88 11.2877 74.2143 11.2877 73.4745V64.0799H68.9869V73.4745C68.9869 74.2882 69.6527 74.88 70.3924 74.88H73.8692C74.6829 74.88 75.2747 74.2143 75.2747 73.4745V55.7949C75.2747 51.2086 72.4637 47.0661 68.1732 45.3647Z" fill="#1D5B7A"/>
<path d="M56.8422 18.661C57.1047 19.0078 57.25 19.4328 57.25 19.875C57.25 20.5766 56.8578 21.2406 56.2266 21.611C56.0641 21.7063 55.879 21.7564 55.6906 21.7563H51.9438L52.0375 23.6766C52.0594 24.1406 51.8953 24.5813 51.5766 24.9172C51.4201 25.0828 51.2314 25.2145 51.0221 25.3043C50.8127 25.394 50.5872 25.4399 50.3594 25.4391C49.5469 25.4391 48.8281 24.8922 48.6125 24.1094L47.2703 19.25H47.2656V12.5625H54.6453C54.7891 12.5625 54.9297 12.5906 55.0594 12.6469C55.8031 12.9641 56.2828 13.6906 56.2828 14.4969C56.2828 14.6938 56.2547 14.8875 56.1984 15.075C56.4609 15.4219 56.6062 15.8469 56.6062 16.2891C56.6062 16.486 56.5781 16.6797 56.5219 16.8672C56.7844 17.2141 56.9297 17.6391 56.9297 18.0813C56.9266 18.2781 56.8984 18.4735 56.8422 18.661ZM44.75 18.75V13.0625C44.75 12.786 44.9734 12.5625 45.25 12.5625H46.2656V19.25H45.25C44.9734 19.25 44.75 19.0266 44.75 18.75Z" fill="#1D5B7A"/>
<path d="M58.6184 7.74574C58.4215 8.0059 58.3125 8.32465 58.3125 8.65629C58.3125 9.18246 58.6066 9.68051 59.0801 9.95824C59.202 10.0297 59.3407 10.0674 59.482 10.0672H62.2922L62.2219 11.5075C62.2055 11.8555 62.3285 12.186 62.5676 12.4379C62.6849 12.5621 62.8264 12.6609 62.9835 12.7282C63.1405 12.7956 63.3096 12.83 63.4805 12.8293C64.0898 12.8293 64.6289 12.4192 64.7906 11.8321L65.7973 8.18754H65.8008V3.17192H60.266C60.1582 3.17192 60.0527 3.19301 59.9555 3.2352C59.3977 3.47309 59.0379 4.01801 59.0379 4.6227C59.0379 4.77035 59.059 4.91566 59.1012 5.05629C58.9043 5.31645 58.7953 5.6352 58.7953 5.96684C58.7953 6.11449 58.8164 6.25981 58.8586 6.40043C58.6617 6.66059 58.5527 6.97934 58.5527 7.31098C58.5551 7.45863 58.5762 7.60512 58.6184 7.74574ZM67.6875 7.81254V3.54692C67.6875 3.33949 67.5199 3.17192 67.3125 3.17192H66.5508V8.18754H67.3125C67.5199 8.18754 67.6875 8.01996 67.6875 7.81254Z" fill="#1D5B7A"/>
<path d="M60.6973 25.5763C60.3691 26.0099 60.1875 26.5411 60.1875 27.0939C60.1875 27.9708 60.6777 28.8009 61.4668 29.2638C61.6699 29.3829 61.9012 29.4456 62.1367 29.4454H66.8203L66.7031 31.8458C66.6758 32.4259 66.8809 32.9767 67.2793 33.3966C67.4748 33.6036 67.7107 33.7682 67.9724 33.8804C68.2341 33.9927 68.516 34.05 68.8008 34.0489C69.8164 34.0489 70.7148 33.3653 70.9844 32.3868L72.6621 26.3126H72.668V17.9532H63.4434C63.2637 17.9532 63.0879 17.9884 62.9258 18.0587C61.9961 18.4552 61.3965 19.3634 61.3965 20.3712C61.3965 20.6173 61.4316 20.8595 61.502 21.0939C61.1738 21.5275 60.9922 22.0587 60.9922 22.6114C60.9922 22.8575 61.0273 23.0997 61.0977 23.3341C60.7695 23.7677 60.5879 24.2989 60.5879 24.8517C60.5918 25.0978 60.627 25.3419 60.6973 25.5763ZM75.8125 25.6876V18.5782C75.8125 18.2325 75.5332 17.9532 75.1875 17.9532H73.918V26.3126H75.1875C75.5332 26.3126 75.8125 26.0333 75.8125 25.6876Z" fill="#1D5B7A"/>
</svg>
