<svg width="80" height="80" viewBox="0 0 80 80" fill="none" xmlns="http://www.w3.org/2000/svg">
<path d="M39.5112 12.4523C36.3094 12.4523 33.714 9.85833 33.714 6.65813C33.714 3.45793 36.3093 0.863892 39.5112 0.863892C42.7129 0.863892 45.3084 3.45793 45.3084 6.65813C45.3084 9.85833 42.7129 12.4523 39.5112 12.4523Z" fill="#1D5B7A"/>
<path d="M70.9969 33.267C71.0038 33.2612 71.0042 33.2607 70.9969 33.267V33.267Z" fill="#1D5B7A"/>
<path d="M34.6174 16.9872C34.7282 16.9028 34.8419 16.8156 34.954 16.7301C35.4894 15.2587 36.7587 14.0948 38.4075 13.7682C40.9159 13.2707 43.3531 14.901 43.8504 17.4082C43.9982 18.1536 44.1635 18.8584 44.3399 19.5341C45.5721 21.0719 46.6776 21.8077 48.1059 22.4841C49.6467 23.2138 50.304 25.0536 49.574 26.5937C49.2904 27.1921 48.8386 27.656 48.3023 27.958C50.4543 29.1677 53.2027 32.5341 54.0023 37.167L55.4134 51.53H45.3546C46.5143 57.8876 46.1216 63.7624 42.9504 73.9312C42.4697 75.4725 41.0476 76.4608 39.5129 76.4608C39.1579 76.4608 38.7968 76.4076 38.4401 76.2966C36.541 75.705 35.4812 73.6867 36.0732 71.7885C38.9254 62.6429 38.9895 58.7656 38.541 54.7477C38.4026 53.508 38.2086 52.4408 37.9881 51.53H31.5319L33.7435 33.7898C31.1528 30.2124 29.009 27.5883 28.1797 25.5207C27.0667 22.7459 31.3574 19.4703 34.6174 16.9872ZM34.6869 27.4306L35.35 22.9604C34.1788 23.9603 33.3438 24.8819 33.3233 25.657L34.6869 27.4306Z" fill="#1D5B7A"/>
<path fill-rule="evenodd" clip-rule="evenodd" d="M13.0233 6.04646C13.0233 7.84461 11.5656 9.30228 9.76744 9.30228C7.9693 9.30228 6.51163 7.84461 6.51163 6.04646C6.51163 4.24832 7.9693 2.79065 9.76744 2.79065C11.5656 2.79065 13.0233 4.24832 13.0233 6.04646ZM9.11628 5.01546C9.11628 5.28517 8.89762 5.50383 8.62791 5.50383C8.35819 5.50383 8.13953 5.28517 8.13953 5.01546C8.13953 4.74574 8.35819 4.52708 8.62791 4.52708C8.89762 4.52708 9.11628 4.74574 9.11628 5.01546ZM10.907 5.50383C11.1767 5.50383 11.3953 5.28517 11.3953 5.01546C11.3953 4.74574 11.1767 4.52708 10.907 4.52708C10.6373 4.52708 10.4186 4.74574 10.4186 5.01546C10.4186 5.28517 10.6373 5.50383 10.907 5.50383ZM10.9619 7.32029C10.9619 7.59 10.2714 7.80866 9.76744 7.80866C9.2635 7.80866 8.573 7.59 8.573 7.32029C8.573 7.05057 9.2635 6.83192 9.76744 6.83192C10.2714 6.83192 10.9619 7.05057 10.9619 7.32029Z" fill="#1D5B7A"/>
<path fill-rule="evenodd" clip-rule="evenodd" d="M24.1861 4.186C24.1861 4.95663 23.5613 5.58135 22.7907 5.58135C22.0201 5.58135 21.3954 4.95663 21.3954 4.186C21.3954 3.41537 22.0201 2.79065 22.7907 2.79065C23.5613 2.79065 24.1861 3.41537 24.1861 4.186ZM22.5116 3.74414C22.5116 3.85973 22.4179 3.95344 22.3023 3.95344C22.1867 3.95344 22.093 3.85973 22.093 3.74414C22.093 3.62855 22.1867 3.53484 22.3023 3.53484C22.4179 3.53484 22.5116 3.62855 22.5116 3.74414ZM23.2791 3.95344C23.3947 3.95344 23.4884 3.85973 23.4884 3.74414C23.4884 3.62855 23.3947 3.53484 23.2791 3.53484C23.1635 3.53484 23.0698 3.62855 23.0698 3.74414C23.0698 3.85973 23.1635 3.95344 23.2791 3.95344ZM23.3026 4.73192C23.3026 4.84752 23.0067 4.94123 22.7907 4.94123C22.5747 4.94123 22.2788 4.84752 22.2788 4.73192C22.2788 4.61633 22.5747 4.52262 22.7907 4.52262C23.0067 4.52262 23.3026 4.61633 23.3026 4.73192Z" fill="#1D5B7A"/>
<path fill-rule="evenodd" clip-rule="evenodd" d="M24.186 16.2791C24.186 19.1048 21.8954 21.3954 19.0698 21.3954C16.2441 21.3954 13.9535 19.1048 13.9535 16.2791C13.9535 13.4535 16.2441 11.1628 19.0698 11.1628C21.8954 11.1628 24.186 13.4535 24.186 16.2791ZM18.0465 14.659C18.0465 15.0828 17.7029 15.4264 17.2791 15.4264C16.8552 15.4264 16.5116 15.0828 16.5116 14.659C16.5116 14.2351 16.8552 13.8915 17.2791 13.8915C17.7029 13.8915 18.0465 14.2351 18.0465 14.659ZM20.8605 15.4264C21.2843 15.4264 21.6279 15.0828 21.6279 14.659C21.6279 14.2351 21.2843 13.8915 20.8605 13.8915C20.4366 13.8915 20.093 14.2351 20.093 14.659C20.093 15.0828 20.4366 15.4264 20.8605 15.4264ZM20.9468 18.2808C20.9468 18.7047 19.8617 19.0483 19.0698 19.0483C18.2779 19.0483 17.1928 18.7047 17.1928 18.2808C17.1928 17.857 18.2779 17.5134 19.0698 17.5134C19.8617 17.5134 20.9468 17.857 20.9468 18.2808Z" fill="#1D5B7A"/>
<path fill-rule="evenodd" clip-rule="evenodd" d="M59.5349 4.18605C59.5349 5.47044 58.4937 6.51164 57.2093 6.51164C55.9249 6.51164 54.8837 5.47044 54.8837 4.18605C54.8837 2.90167 55.9249 1.86047 57.2093 1.86047C58.4937 1.86047 59.5349 2.90167 59.5349 4.18605ZM56.7442 3.44962C56.7442 3.64227 56.588 3.79846 56.3954 3.79846C56.2027 3.79846 56.0465 3.64227 56.0465 3.44962C56.0465 3.25697 56.2027 3.10078 56.3954 3.10078C56.588 3.10078 56.7442 3.25697 56.7442 3.44962ZM58.0233 3.79846C58.2159 3.79846 58.3721 3.64227 58.3721 3.44962C58.3721 3.25697 58.2159 3.10078 58.0233 3.10078C57.8306 3.10078 57.6744 3.25697 57.6744 3.44962C57.6744 3.64227 57.8306 3.79846 58.0233 3.79846ZM58.0625 5.09593C58.0625 5.28858 57.5693 5.44477 57.2093 5.44477C56.8493 5.44477 56.3561 5.28858 56.3561 5.09593C56.3561 4.90328 56.8493 4.74709 57.2093 4.74709C57.5693 4.74709 58.0625 4.90328 58.0625 5.09593Z" fill="#1D5B7A"/>
<path fill-rule="evenodd" clip-rule="evenodd" d="M76.2791 6.9767C76.2791 9.28859 74.4049 11.1627 72.093 11.1627C69.7811 11.1627 67.907 9.28859 67.907 6.9767C67.907 4.6648 69.7811 2.79065 72.093 2.79065C74.4049 2.79065 76.2791 4.6648 76.2791 6.9767ZM71.2558 5.65111C71.2558 5.99789 70.9747 6.27902 70.6279 6.27902C70.2811 6.27902 70 5.99789 70 5.65111C70 5.30434 70.2811 5.02321 70.6279 5.02321C70.9747 5.02321 71.2558 5.30434 71.2558 5.65111ZM73.5581 6.27902C73.9049 6.27902 74.1861 5.99789 74.1861 5.65111C74.1861 5.30434 73.9049 5.02321 73.5581 5.02321C73.2114 5.02321 72.9302 5.30434 72.9302 5.65111C72.9302 5.99789 73.2114 6.27902 73.5581 6.27902ZM73.6287 8.61447C73.6287 8.96125 72.741 9.24238 72.093 9.24238C71.4451 9.24238 70.5573 8.96125 70.5573 8.61447C70.5573 8.26769 71.4451 7.98656 72.093 7.98656C72.741 7.98656 73.6287 8.26769 73.6287 8.61447Z" fill="#1D5B7A"/>
<path fill-rule="evenodd" clip-rule="evenodd" d="M64.186 20.4651C64.186 21.4926 63.3531 22.3255 62.3256 22.3255C61.2981 22.3255 60.4651 21.4926 60.4651 20.4651C60.4651 19.4376 61.2981 18.6046 62.3256 18.6046C63.3531 18.6046 64.186 19.4376 64.186 20.4651ZM61.9535 19.8759C61.9535 20.0301 61.8285 20.155 61.6744 20.155C61.5203 20.155 61.3954 20.0301 61.3954 19.8759C61.3954 19.7218 61.5203 19.5969 61.6744 19.5969C61.8285 19.5969 61.9535 19.7218 61.9535 19.8759ZM62.9767 20.155C63.1309 20.155 63.2558 20.0301 63.2558 19.8759C63.2558 19.7218 63.1309 19.5969 62.9767 19.5969C62.8226 19.5969 62.6977 19.7218 62.6977 19.8759C62.6977 20.0301 62.8226 20.155 62.9767 20.155ZM63.0081 21.193C63.0081 21.3471 62.6136 21.472 62.3256 21.472C62.0376 21.472 61.643 21.3471 61.643 21.193C61.643 21.0389 62.0376 20.9139 62.3256 20.9139C62.6136 20.9139 63.0081 21.0389 63.0081 21.193Z" fill="#1D5B7A"/>
<path fill-rule="evenodd" clip-rule="evenodd" d="M76.2791 21.8605C76.2791 23.1449 75.2379 24.1861 73.9535 24.1861C72.6691 24.1861 71.6279 23.1449 71.6279 21.8605C71.6279 20.5761 72.6691 19.5349 73.9535 19.5349C75.2379 19.5349 76.2791 20.5761 76.2791 21.8605ZM73.4884 21.1241C73.4884 21.3167 73.3322 21.4729 73.1395 21.4729C72.9469 21.4729 72.7907 21.3167 72.7907 21.1241C72.7907 20.9314 72.9469 20.7752 73.1395 20.7752C73.3322 20.7752 73.4884 20.9314 73.4884 21.1241ZM74.7674 21.4729C74.9601 21.4729 75.1163 21.3167 75.1163 21.1241C75.1163 20.9314 74.9601 20.7752 74.7674 20.7752C74.5748 20.7752 74.4186 20.9314 74.4186 21.1241C74.4186 21.3167 74.5748 21.4729 74.7674 21.4729ZM74.8067 22.7704C74.8067 22.963 74.3134 23.1192 73.9535 23.1192C73.5935 23.1192 73.1003 22.963 73.1003 22.7704C73.1003 22.5777 73.5935 22.4215 73.9535 22.4215C74.3134 22.4215 74.8067 22.5777 74.8067 22.7704Z" fill="#1D5B7A"/>
<path fill-rule="evenodd" clip-rule="evenodd" d="M7.44187 18.1395C7.44187 18.9101 6.81715 19.5348 6.04652 19.5348C5.27588 19.5348 4.65117 18.9101 4.65117 18.1395C4.65117 17.3689 5.27588 16.7441 6.04652 16.7441C6.81715 16.7441 7.44187 17.3689 7.44187 18.1395ZM5.76745 17.6976C5.76745 17.8132 5.67374 17.9069 5.55815 17.9069C5.44255 17.9069 5.34884 17.8132 5.34884 17.6976C5.34884 17.582 5.44255 17.4883 5.55815 17.4883C5.67374 17.4883 5.76745 17.582 5.76745 17.6976ZM6.53489 17.9069C6.65048 17.9069 6.74419 17.8132 6.74419 17.6976C6.74419 17.582 6.65048 17.4883 6.53489 17.4883C6.4193 17.4883 6.32559 17.582 6.32559 17.6976C6.32559 17.8132 6.4193 17.9069 6.53489 17.9069ZM6.55842 18.6854C6.55842 18.801 6.26249 18.8947 6.04652 18.8947C5.83054 18.8947 5.53461 18.801 5.53461 18.6854C5.53461 18.5698 5.83054 18.4761 6.04652 18.4761C6.26249 18.4761 6.55842 18.5698 6.55842 18.6854Z" fill="#1D5B7A"/>
</svg>
