<svg width="80" height="80" viewBox="0 0 80 80" fill="none" xmlns="http://www.w3.org/2000/svg">
<path d="M29.3972 51.5119C32.7732 53.7839 33.1572 58.4559 30.8692 62.2959C27.5412 67.8639 19.7812 72.5199 19.7812 72.5199C19.7812 72.5199 12.2932 67.8639 8.96518 62.2959C6.67718 58.4559 7.06118 53.7839 10.4372 51.5119C15.3172 48.2319 19.7972 54.6159 19.7972 54.6159C19.7972 54.6159 24.5332 48.2159 29.3972 51.5119Z" fill="#1D5B7A"/>
<path d="M43.1892 41.6559C45.0612 42.9199 45.2852 45.5119 44.0052 47.6559C42.1652 50.7439 37.8452 53.3359 37.8452 53.3359C37.8452 53.3359 33.6852 50.7439 31.8292 47.6559C30.5492 45.5279 30.7732 42.9199 32.6452 41.6559C35.3492 39.8319 37.8452 43.3839 37.8452 43.3839C37.8452 43.3839 40.4852 39.8319 43.1892 41.6559Z" fill="#1D5B7A"/>
<path d="M28.3252 38.9359C29.6532 39.8319 29.8132 41.6719 28.9012 43.1919C27.5892 45.3999 24.5172 47.2399 24.5172 47.2399C24.5172 47.2399 21.5572 45.3999 20.2452 43.1919C19.3332 41.6719 19.4932 39.8319 20.8212 38.9359C22.7412 37.6399 24.5172 40.1679 24.5172 40.1679C24.5172 40.1679 26.4052 37.6399 28.3252 38.9359Z" fill="#1D5B7A"/>
<path d="M40.0212 56.8559C40.7572 57.3519 40.8532 58.3919 40.3412 59.2399C39.6052 60.4719 37.8932 61.4959 37.8932 61.4959C37.8932 61.4959 36.2452 60.4719 35.5092 59.2399C34.9972 58.3919 35.0932 57.3679 35.8292 56.8559C36.9012 56.1359 37.8932 57.5439 37.8932 57.5439C37.8932 57.5439 38.9492 56.1359 40.0212 56.8559Z" fill="#1D5B7A"/>
<path d="M15.7012 44.5999C16.1172 44.8879 16.1652 45.4639 15.8772 45.9599C15.4612 46.6639 14.4852 47.2399 14.4852 47.2399C14.4852 47.2399 13.5412 46.6479 13.1252 45.9599C12.8372 45.4799 12.8852 44.8879 13.3012 44.5999C13.9092 44.1839 14.4692 44.9839 14.4692 44.9839C14.4692 44.9839 15.0932 44.1999 15.7012 44.5999Z" fill="#1D5B7A"/>
<path d="M16.6452 30.7759C17.9732 31.6719 18.1332 33.5119 17.2212 35.0319C15.9092 37.2399 12.8372 39.0799 12.8372 39.0799C12.8372 39.0799 9.87717 37.2399 8.56517 35.0479C7.65317 33.5279 7.81317 31.6879 9.14117 30.7919C11.0612 29.4959 12.8372 32.0239 12.8372 32.0239C12.8372 32.0239 14.7252 29.4799 16.6452 30.7759Z" fill="#1D5B7A"/>
<path d="M44.2772 12.4719C47.6532 14.7439 48.0372 19.4159 45.7492 23.2559C42.4212 28.8239 34.6612 33.4799 34.6612 33.4799C34.6612 33.4799 27.1732 28.8239 23.8452 23.2559C21.5572 19.4159 21.9412 14.7439 25.3172 12.4719C30.1972 9.19185 34.6772 15.5759 34.6772 15.5759C34.6772 15.5759 39.4132 9.17585 44.2772 12.4719Z" fill="#1D5B7A"/>
<path d="M43.7012 33.6559C44.4372 34.1519 44.5332 35.1919 44.0212 36.0399C43.2852 37.2719 41.5732 38.2959 41.5732 38.2959C41.5732 38.2959 39.9252 37.2719 39.1892 36.0399C38.6772 35.1919 38.7732 34.1679 39.5092 33.6559C40.5812 32.9359 41.5732 34.3439 41.5732 34.3439C41.5732 34.3439 42.6292 32.9359 43.7012 33.6559Z" fill="#1D5B7A"/>
<path d="M26.7412 30.6159C27.4772 31.1119 27.5732 32.1519 27.0612 32.9999C26.3252 34.2319 24.6132 35.2559 24.6132 35.2559C24.6132 35.2559 22.9652 34.2319 22.2292 32.9999C21.7172 32.1519 21.8132 31.1279 22.5492 30.6159C23.6212 29.8959 24.6132 31.3039 24.6132 31.3039C24.6132 31.3039 25.6692 29.8959 26.7412 30.6159Z" fill="#1D5B7A"/>
<path d="M35.0612 35.9599C35.4772 36.2479 35.5252 36.8239 35.2372 37.3199C34.8212 38.0239 33.8452 38.5999 33.8452 38.5999C33.8452 38.5999 32.9012 38.0079 32.4852 37.3199C32.1972 36.8399 32.2452 36.2479 32.6612 35.9599C33.2692 35.5439 33.8292 36.3439 33.8292 36.3439C33.8292 36.3439 34.4532 35.5599 35.0612 35.9599Z" fill="#1D5B7A"/>
<path d="M69.7172 37.2719C73.0932 39.5439 73.4772 44.2159 71.1892 48.0559C67.8612 53.6239 60.1012 58.2799 60.1012 58.2799C60.1012 58.2799 52.6132 53.6239 49.2852 48.0559C46.9972 44.2159 47.3812 39.5439 50.7572 37.2719C55.6372 33.9919 60.1172 40.3759 60.1172 40.3759C60.1172 40.3759 64.8532 33.9759 69.7172 37.2719Z" fill="#1D5B7A"/>
<path d="M48.5012 52.0559C49.2372 52.5519 49.3332 53.5919 48.8212 54.4399C48.0852 55.6719 46.3732 56.6959 46.3732 56.6959C46.3732 56.6959 44.7252 55.6719 43.9892 54.4399C43.4772 53.5919 43.5732 52.5679 44.3092 52.0559C45.3812 51.3359 46.3732 52.7439 46.3732 52.7439C46.3732 52.7439 47.4292 51.3359 48.5012 52.0559Z" fill="#1D5B7A"/>
<path d="M48.5012 64.5359C49.2372 65.0319 49.3332 66.0719 48.8212 66.9199C48.0852 68.1519 46.3732 69.1759 46.3732 69.1759C46.3732 69.1759 44.7252 68.1519 43.9892 66.9199C43.4772 66.0719 43.5732 65.0479 44.3092 64.5359C45.3812 63.8159 46.3732 65.2239 46.3732 65.2239C46.3732 65.2239 47.4292 63.8159 48.5012 64.5359Z" fill="#1D5B7A"/>
<path d="M45.4612 59.3199C45.8772 59.6079 45.9252 60.1839 45.6372 60.6799C45.2212 61.3839 44.2452 61.9599 44.2452 61.9599C44.2452 61.9599 43.3012 61.3679 42.8852 60.6799C42.5972 60.1999 42.6452 59.6079 43.0612 59.3199C43.6692 58.9039 44.2292 59.7039 44.2292 59.7039C44.2292 59.7039 44.8532 58.9199 45.4612 59.3199Z" fill="#1D5B7A"/>
<path d="M36.3412 64.92C36.7572 65.208 36.8052 65.784 36.5172 66.28C36.1012 66.984 35.1252 67.56 35.1252 67.56C35.1252 67.56 34.1812 66.968 33.7652 66.28C33.4772 65.8 33.5252 65.208 33.9412 64.92C34.5492 64.504 35.1092 65.304 35.1092 65.304C35.1092 65.304 35.7332 64.52 36.3412 64.92Z" fill="#1D5B7A"/>
<path d="M53.3012 57.8799C53.7172 58.1679 53.7652 58.7439 53.4772 59.2399C53.0612 59.9439 52.0852 60.5199 52.0852 60.5199C52.0852 60.5199 51.1412 59.9279 50.7252 59.2399C50.4372 58.7599 50.4852 58.1679 50.9012 57.8799C51.5092 57.4639 52.0692 58.2639 52.0692 58.2639C52.0692 58.2639 52.6932 57.4799 53.3012 57.8799Z" fill="#1D5B7A"/>
<path d="M64.3092 21.8159C66.1812 23.0799 66.4052 25.6719 65.1252 27.8159C63.2852 30.9039 58.9652 33.4959 58.9652 33.4959C58.9652 33.4959 54.8052 30.9039 52.9492 27.8159C51.6692 25.6879 51.8932 23.0799 53.7652 21.8159C56.4692 19.9919 58.9652 23.5439 58.9652 23.5439C58.9652 23.5439 61.6052 19.9919 64.3092 21.8159Z" fill="#1D5B7A"/>
<path d="M48.9812 29.0799C49.3972 29.3679 49.4452 29.9439 49.1572 30.4399C48.7412 31.1439 47.7652 31.7199 47.7652 31.7199C47.7652 31.7199 46.8212 31.1279 46.4052 30.4399C46.1172 29.9599 46.1652 29.3679 46.5812 29.0799C47.1892 28.6639 47.7492 29.4639 47.7492 29.4639C47.7492 29.4639 48.3732 28.6799 48.9812 29.0799Z" fill="#1D5B7A"/>
<path d="M54.2612 13.8159C54.9972 14.3119 55.0932 15.3519 54.5812 16.1999C53.8452 17.4319 52.1332 18.4559 52.1332 18.4559C52.1332 18.4559 50.4852 17.4319 49.7492 16.1999C49.2372 15.3519 49.3332 14.3279 50.0692 13.8159C51.1412 13.0959 52.1332 14.5039 52.1332 14.5039C52.1332 14.5039 53.1892 13.0959 54.2612 13.8159Z" fill="#1D5B7A"/>
<path d="M61.4612 16.1199C61.8772 16.4079 61.9252 16.9839 61.6372 17.4799C61.2212 18.1839 60.2452 18.7599 60.2452 18.7599C60.2452 18.7599 59.3012 18.1679 58.8852 17.4799C58.5972 16.9999 58.6452 16.4079 59.0612 16.1199C59.6692 15.7039 60.2292 16.5039 60.2292 16.5039C60.2292 16.5039 60.8532 15.7199 61.4612 16.1199Z" fill="#1D5B7A"/>
<path d="M21.1412 8.91995C21.5572 9.20795 21.6052 9.78395 21.3172 10.28C20.9012 10.984 19.9252 11.56 19.9252 11.56C19.9252 11.56 18.9812 10.968 18.5652 10.28C18.2772 9.79995 18.3252 9.20795 18.7412 8.91995C19.3492 8.50395 19.9092 9.30395 19.9092 9.30395C19.9092 9.30395 20.5332 8.51995 21.1412 8.91995Z" fill="#1D5B7A"/>
<path d="M36.3412 7.47989C36.7572 7.76789 36.8052 8.34389 36.5172 8.83989C36.1012 9.54389 35.1252 10.1199 35.1252 10.1199C35.1252 10.1199 34.1812 9.52789 33.7652 8.83989C33.4772 8.35989 33.5252 7.76789 33.9412 7.47989C34.5492 7.06389 35.1092 7.86389 35.1092 7.86389C35.1092 7.86389 35.7332 7.07989 36.3412 7.47989Z" fill="#1D5B7A"/>
<path d="M48.3412 7.47989C48.7572 7.76789 48.8052 8.34389 48.5172 8.83989C48.1012 9.54389 47.1252 10.1199 47.1252 10.1199C47.1252 10.1199 46.1812 9.52789 45.7652 8.83989C45.4772 8.35989 45.5252 7.76789 45.9412 7.47989C46.5492 7.06389 47.1092 7.86389 47.1092 7.86389C47.1092 7.86389 47.7332 7.07989 48.3412 7.47989Z" fill="#1D5B7A"/>
<path d="M70.9012 30.0399C71.3172 30.3279 71.3652 30.9039 71.0772 31.3999C70.6612 32.1039 69.6852 32.6799 69.6852 32.6799C69.6852 32.6799 68.7412 32.0879 68.3252 31.3999C68.0372 30.9199 68.0852 30.3279 68.5012 30.0399C69.1092 29.6239 69.6692 30.424 69.6692 30.424C69.6692 30.424 70.2932 29.6399 70.9012 30.0399Z" fill="#1D5B7A"/>
<path d="M64.8052 61.4959C66.1332 62.3919 66.2932 64.2319 65.3812 65.7519C64.0692 67.9599 60.9972 69.7999 60.9972 69.7999C60.9972 69.7999 58.0372 67.9599 56.7252 65.7519C55.8132 64.2319 55.9732 62.3919 57.3012 61.4959C59.2212 60.1999 60.9972 62.7279 60.9972 62.7279C60.9972 62.7279 62.8852 60.1999 64.8052 61.4959Z" fill="#1D5B7A"/>
<path d="M19.0452 17.336C20.3732 18.232 20.5332 20.072 19.6212 21.592C18.3092 23.8 15.2372 25.64 15.2372 25.64C15.2372 25.64 12.2772 23.8 10.9652 21.608C10.0532 20.088 10.2132 18.248 11.5412 17.352C13.4612 16.056 15.2372 18.584 15.2372 18.584C15.2372 18.584 17.1252 16.04 19.0452 17.336Z" fill="#1D5B7A"/>
<path d="M69.1412 11.4159C69.8772 11.9119 69.9732 12.9519 69.4612 13.7999C68.7252 15.0319 67.0132 16.0559 67.0132 16.0559C67.0132 16.0559 65.3652 15.0319 64.6292 13.7999C64.1172 12.9519 64.2132 11.9279 64.9492 11.4159C66.0212 10.6959 67.0132 12.1039 67.0132 12.1039C67.0132 12.1039 68.0692 10.6959 69.1412 11.4159Z" fill="#1D5B7A"/>
<path d="M57.6212 8.91995C58.0372 9.20795 58.0852 9.78395 57.7972 10.28C57.3812 10.984 56.4052 11.56 56.4052 11.56C56.4052 11.56 55.4612 10.968 55.0452 10.28C54.7572 9.79995 54.8052 9.20795 55.2212 8.91995C55.8292 8.50395 56.3892 9.30395 56.3892 9.30395C56.3892 9.30395 57.0132 8.51995 57.6212 8.91995Z" fill="#1D5B7A"/>
</svg>
