<svg width="80" height="80" viewBox="0 0 80 80" fill="none" xmlns="http://www.w3.org/2000/svg">
<g clip-path="url(#clip0)">
<path d="M55 67H61C62.105 67 63 66.105 63 65C63 63.895 62.105 63 61 63H58L54 56V45C54 43.343 52.657 42 51 42L48.04 58.575L55 67Z" fill="#1D5B7A"/>
<path d="M26 45V56L22 63H19C17.895 63 17 63.895 17 65C17 66.105 17.895 67 19 67H25L31.96 58.575L29 42C27.343 42 26 43.343 26 45Z" fill="#1D5B7A"/>
<path d="M38 37.723V42C38 42.553 37.552 43 37 43H35V44.279L40 45.946L45 44.279V43H43C42.448 43 42 42.553 42 42V37.723C40.653 38.092 39.347 38.092 38 37.723Z" fill="#1D5B7A"/>
<path d="M45.219 61L49.719 43H47V45C47 45.431 46.725 45.813 46.316 45.948L40.316 47.948C40.213 47.982 40.107 48 40 48C39.893 48 39.787 47.982 39.684 47.948L33.684 45.948C33.275 45.813 33 45.431 33 45V43H30.281L34.781 61H45.219Z" fill="#1D5B7A"/>
<path d="M47.443 30H47C43.829 30 41.144 27.881 40.286 24.983C37.945 26.872 35.146 28.165 32.186 28.716C32.795 31.605 34.868 34.189 37.307 35.35C37.344 35.362 37.382 35.369 37.418 35.385C38.743 35.994 39.985 36.147 41.268 35.845C41.278 35.843 41.287 35.84 41.297 35.837C41.719 35.735 42.146 35.585 42.582 35.385C42.588 35.382 42.595 35.382 42.602 35.379C44.689 34.408 46.554 32.387 47.443 30Z" fill="#1D5B7A"/>
<path d="M49.956 27C49.519 21.77 45.646 18 40 18C34.39 18 30.7 22.234 30.085 27H30V41H34H36V36.92C32.887 35.237 30.422 31.78 30.052 27.98C29.999 27.442 30.384 26.959 30.921 26.891C34.449 26.441 37.778 24.808 40.293 22.292C40.579 22.006 41.008 21.918 41.383 22.075C41.756 22.23 42 22.596 42 23C42 25.757 44.243 28 47 28H48.778C49.081 28 49.367 28.137 49.557 28.373C49.746 28.609 49.819 28.918 49.755 29.214C49.029 32.529 46.75 35.42 44 36.915V41H46H50V29V27.999V27H49.956Z" fill="#1D5B7A"/>
<path d="M61.64 67.413C60.776 66.658 59.631 66.315 58.491 66.469L49.592 67.683L45.586 63H34.414L30.409 67.683L21.509 66.469C20.373 66.315 19.224 66.658 18.361 67.413C17.496 68.167 17 69.258 17 70.405C17 72.382 18.477 74.074 20.436 74.342L39.865 76.991C39.91 76.997 39.955 77 40 77C40.045 77 40.09 76.997 40.135 76.991L59.564 74.342C61.523 74.074 63 72.382 63 70.405C63 69.258 62.504 68.167 61.64 67.413Z" fill="#1D5B7A"/>
<path fill-rule="evenodd" clip-rule="evenodd" d="M63 39C64.6569 39 66 37.6569 66 36C66 34.3431 64.6569 33 63 33C61.3431 33 60 34.3431 60 36C60 37.6569 61.3431 39 63 39ZM61.95 35.5C62.1985 35.5 62.4 35.2985 62.4 35.05C62.4 34.8015 62.1985 34.6 61.95 34.6C61.7015 34.6 61.5 34.8015 61.5 35.05C61.5 35.2985 61.7015 35.5 61.95 35.5ZM61.658 37.055C61.5628 37.15 61.5833 37.3043 61.6898 37.3866C61.7962 37.4689 61.948 37.4474 62.0473 37.3567C62.1465 37.2661 62.2585 37.1898 62.38 37.1305C62.5747 37.0354 62.7887 36.9864 63.0054 36.9872C63.2221 36.988 63.4358 37.0387 63.6297 37.1353C63.7508 37.1955 63.8622 37.2727 63.9607 37.3641C64.0593 37.4555 64.2109 37.4782 64.318 37.3967C64.425 37.3152 64.4468 37.161 64.3523 37.0653C64.2055 36.9166 64.0349 36.7928 63.8469 36.6992C63.586 36.5693 63.2987 36.5011 63.0073 36.5C62.7159 36.4989 62.4281 36.5648 62.1662 36.6927C61.9775 36.7849 61.8059 36.9074 61.658 37.055ZM64.5 35.05C64.5 35.2985 64.2985 35.5 64.05 35.5C63.8015 35.5 63.6 35.2985 63.6 35.05C63.6 34.8015 63.8015 34.6 64.05 34.6C64.2985 34.6 64.5 34.8015 64.5 35.05Z" fill="#1D5B7A"/>
<path fill-rule="evenodd" clip-rule="evenodd" d="M58 25C60.7614 25 63 22.7614 63 20C63 17.2386 60.7614 15 58 15C55.2386 15 53 17.2386 53 20C53 22.7614 55.2386 25 58 25ZM56.25 19.1667C56.6642 19.1667 57 18.8309 57 18.4167C57 18.0025 56.6642 17.6667 56.25 17.6667C55.8358 17.6667 55.5 18.0025 55.5 18.4167C55.5 18.8309 55.8358 19.1667 56.25 19.1667ZM55.7634 21.7583C55.6047 21.9166 55.6389 22.1738 55.8163 22.311C55.9936 22.4482 56.2466 22.4124 56.4122 22.2612C56.5776 22.1102 56.7642 21.983 56.9667 21.8841C57.2912 21.7256 57.6479 21.6439 58.0091 21.6453C58.3702 21.6467 58.7263 21.7311 59.0496 21.8921C59.2513 21.9926 59.4369 22.1211 59.6012 22.2734C59.7655 22.4259 60.0182 22.4636 60.1966 22.3278C60.375 22.192 60.4113 21.9351 60.2538 21.7755C60.0092 21.5277 59.7248 21.3213 59.4115 21.1653C58.9767 20.9488 58.4979 20.8352 58.0122 20.8334C57.5264 20.8315 57.0468 20.9414 56.6103 21.1545C56.2958 21.3081 56.0098 21.5124 55.7634 21.7583ZM60.5 18.4167C60.5 18.8309 60.1642 19.1667 59.75 19.1667C59.3358 19.1667 59 18.8309 59 18.4167C59 18.0025 59.3358 17.6667 59.75 17.6667C60.1642 17.6667 60.5 18.0025 60.5 18.4167Z" fill="#1D5B7A"/>
<path fill-rule="evenodd" clip-rule="evenodd" d="M67 20C68.1046 20 69 19.1046 69 18C69 16.8954 68.1046 16 67 16C65.8954 16 65 16.8954 65 18C65 19.1046 65.8954 20 67 20ZM66.3 17.6667C66.4657 17.6667 66.6 17.5323 66.6 17.3667C66.6 17.201 66.4657 17.0667 66.3 17.0667C66.1343 17.0667 66 17.201 66 17.3667C66 17.5323 66.1343 17.6667 66.3 17.6667ZM66.1054 18.7033C66.0419 18.7667 66.0556 18.8695 66.1265 18.9244C66.1975 18.9793 66.2986 18.9649 66.3649 18.9045C66.431 18.8441 66.5057 18.7932 66.5867 18.7537C66.7165 18.6903 66.8591 18.6576 67.0036 18.6581C67.1481 18.6587 67.2905 18.6925 67.4198 18.7569C67.5005 18.797 67.5748 18.8485 67.6405 18.9094C67.7062 18.9704 67.8073 18.9854 67.8787 18.9311C67.95 18.8768 67.9645 18.774 67.9015 18.7102C67.8037 18.6111 67.6899 18.5285 67.5646 18.4661C67.3907 18.3795 67.1992 18.3341 67.0049 18.3333C66.8106 18.3326 66.6187 18.3766 66.4441 18.4618C66.3183 18.5233 66.2039 18.6049 66.1054 18.7033ZM68 17.3667C68 17.5323 67.8657 17.6667 67.7 17.6667C67.5343 17.6667 67.4 17.5323 67.4 17.3667C67.4 17.201 67.5343 17.0667 67.7 17.0667C67.8657 17.0667 68 17.201 68 17.3667Z" fill="#1D5B7A"/>
<path fill-rule="evenodd" clip-rule="evenodd" d="M56 9C58.2091 9 60 7.20915 60 5C60 2.79085 58.2091 1 56 1C53.7909 1 52 2.79085 52 5C52 7.20915 53.7909 9 56 9ZM54.6 4.33333C54.9314 4.33333 55.2 4.0647 55.2 3.73333C55.2 3.40197 54.9314 3.13333 54.6 3.13333C54.2686 3.13333 54 3.40197 54 3.73333C54 4.0647 54.2686 4.33333 54.6 4.33333ZM54.2107 6.40661C54.0837 6.5333 54.1111 6.73906 54.253 6.8488C54.3949 6.95853 54.5973 6.9299 54.7297 6.80895C54.862 6.68814 55.0113 6.58643 55.1733 6.50731C55.433 6.3805 55.7183 6.31514 56.0072 6.31624C56.2962 6.31735 56.581 6.38491 56.8396 6.5137C57.001 6.59406 57.1495 6.69691 57.2809 6.81875C57.4124 6.94072 57.6146 6.9709 57.7573 6.86226C57.9 6.75361 57.929 6.54806 57.803 6.42041C57.6074 6.22218 57.3798 6.05705 57.1292 5.93224C56.7813 5.75903 56.3983 5.66818 56.0097 5.66668C55.6212 5.66519 55.2374 5.75311 54.8883 5.92363C54.6367 6.0465 54.4079 6.2099 54.2107 6.40661ZM58 3.73333C58 4.0647 57.7314 4.33333 57.4 4.33333C57.0686 4.33333 56.8 4.0647 56.8 3.73333C56.8 3.40197 57.0686 3.13333 57.4 3.13333C57.7314 3.13333 58 3.40197 58 3.73333Z" fill="#1D5B7A"/>
<path fill-rule="evenodd" clip-rule="evenodd" d="M27 11C28.1046 11 29 10.1046 29 9C29 7.89543 28.1046 7 27 7C25.8954 7 25 7.89543 25 9C25 10.1046 25.8954 11 27 11ZM26.3 8.66667C26.4657 8.66667 26.6 8.53235 26.6 8.36667C26.6 8.20098 26.4657 8.06667 26.3 8.06667C26.1343 8.06667 26 8.20098 26 8.36667C26 8.53235 26.1343 8.66667 26.3 8.66667ZM26.1054 9.7033C26.0419 9.76665 26.0556 9.86953 26.1265 9.9244C26.1975 9.97926 26.2986 9.96495 26.3649 9.90448C26.431 9.84407 26.5057 9.79321 26.5867 9.75365C26.7165 9.69025 26.8591 9.65757 27.0036 9.65812C27.1481 9.65868 27.2905 9.69246 27.4198 9.75685C27.5005 9.79703 27.5748 9.84845 27.6405 9.90938C27.7062 9.97036 27.8073 9.98545 27.8787 9.93113C27.95 9.87681 27.9645 9.77403 27.9015 9.71021C27.8037 9.61109 27.6899 9.52852 27.5646 9.46612C27.3907 9.37952 27.1992 9.33409 27.0049 9.33334C26.8106 9.33259 26.6187 9.37655 26.4441 9.46182C26.3183 9.52325 26.2039 9.60495 26.1054 9.7033ZM28 8.36667C28 8.53235 27.8657 8.66667 27.7 8.66667C27.5343 8.66667 27.4 8.53235 27.4 8.36667C27.4 8.20098 27.5343 8.06667 27.7 8.06667C27.8657 8.06667 28 8.20098 28 8.36667Z" fill="#1D5B7A"/>
<path fill-rule="evenodd" clip-rule="evenodd" d="M16 19C18.2091 19 20 17.2091 20 15C20 12.7909 18.2091 11 16 11C13.7909 11 12 12.7909 12 15C12 17.2091 13.7909 19 16 19ZM14.6 14.3333C14.9314 14.3333 15.2 14.0647 15.2 13.7333C15.2 13.402 14.9314 13.1333 14.6 13.1333C14.2686 13.1333 14 13.402 14 13.7333C14 14.0647 14.2686 14.3333 14.6 14.3333ZM14.2107 16.4066C14.0837 16.5333 14.1111 16.7391 14.253 16.8488C14.3949 16.9585 14.5973 16.9299 14.7297 16.809C14.862 16.6881 15.0113 16.5864 15.1733 16.5073C15.433 16.3805 15.7183 16.3151 16.0072 16.3162C16.2962 16.3174 16.581 16.3849 16.8396 16.5137C17.001 16.5941 17.1495 16.6969 17.2809 16.8188C17.4124 16.9407 17.6146 16.9709 17.7573 16.8623C17.9 16.7536 17.929 16.5481 17.803 16.4204C17.6074 16.2222 17.3798 16.057 17.1292 15.9322C16.7813 15.759 16.3983 15.6682 16.0097 15.6667C15.6212 15.6652 15.2374 15.7531 14.8883 15.9236C14.6367 16.0465 14.4079 16.2099 14.2107 16.4066ZM18 13.7333C18 14.0647 17.7314 14.3333 17.4 14.3333C17.0686 14.3333 16.8 14.0647 16.8 13.7333C16.8 13.402 17.0686 13.1333 17.4 13.1333C17.7314 13.1333 18 13.402 18 13.7333Z" fill="#1D5B7A"/>
<path fill-rule="evenodd" clip-rule="evenodd" d="M46 17C47.1046 17 48 16.1046 48 15C48 13.8954 47.1046 13 46 13C44.8954 13 44 13.8954 44 15C44 16.1046 44.8954 17 46 17ZM45.3 14.6667C45.4657 14.6667 45.6 14.5323 45.6 14.3667C45.6 14.201 45.4657 14.0667 45.3 14.0667C45.1343 14.0667 45 14.201 45 14.3667C45 14.5323 45.1343 14.6667 45.3 14.6667ZM45.1054 15.7033C45.0419 15.7667 45.0556 15.8695 45.1265 15.9244C45.1975 15.9793 45.2986 15.9649 45.3649 15.9045C45.431 15.8441 45.5057 15.7932 45.5867 15.7537C45.7165 15.6903 45.8591 15.6576 46.0036 15.6581C46.1481 15.6587 46.2905 15.6925 46.4198 15.7569C46.5005 15.797 46.5748 15.8485 46.6405 15.9094C46.7062 15.9704 46.8073 15.9854 46.8787 15.9311C46.95 15.8768 46.9645 15.774 46.9015 15.7102C46.8037 15.6111 46.6899 15.5285 46.5646 15.4661C46.3907 15.3795 46.1992 15.3341 46.0049 15.3333C45.8106 15.3326 45.6187 15.3766 45.4441 15.4618C45.3183 15.5233 45.2039 15.6049 45.1054 15.7033ZM47 14.3667C47 14.5323 46.8657 14.6667 46.7 14.6667C46.5343 14.6667 46.4 14.5323 46.4 14.3667C46.4 14.201 46.5343 14.0667 46.7 14.0667C46.8657 14.0667 47 14.201 47 14.3667Z" fill="#1D5B7A"/>
<path fill-rule="evenodd" clip-rule="evenodd" d="M39 9C41.2091 9 43 7.20915 43 5C43 2.79085 41.2091 1 39 1C36.7909 1 35 2.79085 35 5C35 7.20915 36.7909 9 39 9ZM37.6 4.33333C37.9314 4.33333 38.2 4.0647 38.2 3.73333C38.2 3.40197 37.9314 3.13333 37.6 3.13333C37.2686 3.13333 37 3.40197 37 3.73333C37 4.0647 37.2686 4.33333 37.6 4.33333ZM37.2107 6.40661C37.0837 6.5333 37.1111 6.73906 37.253 6.8488C37.3949 6.95853 37.5973 6.9299 37.7297 6.80895C37.862 6.68814 38.0113 6.58643 38.1733 6.50731C38.433 6.3805 38.7183 6.31514 39.0072 6.31624C39.2962 6.31735 39.581 6.38491 39.8396 6.5137C40.001 6.59406 40.1495 6.69691 40.2809 6.81875C40.4124 6.94072 40.6146 6.9709 40.7573 6.86226C40.9 6.75361 40.929 6.54806 40.803 6.42041C40.6074 6.22218 40.3798 6.05705 40.1292 5.93224C39.7813 5.75903 39.3983 5.66818 39.0097 5.66668C38.6212 5.66519 38.2374 5.75311 37.8883 5.92363C37.6367 6.0465 37.4079 6.2099 37.2107 6.40661ZM41 3.73333C41 4.0647 40.7314 4.33333 40.4 4.33333C40.0686 4.33333 39.8 4.0647 39.8 3.73333C39.8 3.40197 40.0686 3.13333 40.4 3.13333C40.7314 3.13333 41 3.40197 41 3.73333Z" fill="#1D5B7A"/>
<path fill-rule="evenodd" clip-rule="evenodd" d="M20 32C21.6569 32 23 30.6569 23 29C23 27.3431 21.6569 26 20 26C18.3431 26 17 27.3431 17 29C17 30.6569 18.3431 32 20 32ZM18.95 28.5C19.1985 28.5 19.4 28.2985 19.4 28.05C19.4 27.8015 19.1985 27.6 18.95 27.6C18.7015 27.6 18.5 27.8015 18.5 28.05C18.5 28.2985 18.7015 28.5 18.95 28.5ZM18.658 30.055C18.5628 30.15 18.5833 30.3043 18.6898 30.3866C18.7962 30.4689 18.948 30.4474 19.0473 30.3567C19.1465 30.2661 19.2585 30.1898 19.38 30.1305C19.5747 30.0354 19.7887 29.9864 20.0054 29.9872C20.2221 29.988 20.4358 30.0387 20.6297 30.1353C20.7508 30.1955 20.8622 30.2727 20.9607 30.3641C21.0593 30.4555 21.2109 30.4782 21.318 30.3967C21.425 30.3152 21.4468 30.161 21.3523 30.0653C21.2055 29.9166 21.0349 29.7928 20.8469 29.6992C20.586 29.5693 20.2987 29.5011 20.0073 29.5C19.7159 29.4989 19.4281 29.5648 19.1662 29.6927C18.9775 29.7849 18.8059 29.9074 18.658 30.055ZM21.5 28.05C21.5 28.2985 21.2985 28.5 21.05 28.5C20.8015 28.5 20.6 28.2985 20.6 28.05C20.6 27.8015 20.8015 27.6 21.05 27.6C21.2985 27.6 21.5 27.8015 21.5 28.05Z" fill="#1D5B7A"/>
<path fill-rule="evenodd" clip-rule="evenodd" d="M11 27C12.1046 27 13 26.1046 13 25C13 23.8954 12.1046 23 11 23C9.89543 23 9 23.8954 9 25C9 26.1046 9.89543 27 11 27ZM10.3 24.6667C10.4657 24.6667 10.6 24.5323 10.6 24.3667C10.6 24.201 10.4657 24.0667 10.3 24.0667C10.1343 24.0667 10 24.201 10 24.3667C10 24.5323 10.1343 24.6667 10.3 24.6667ZM10.1054 25.7033C10.0419 25.7667 10.0556 25.8695 10.1265 25.9244C10.1975 25.9793 10.2986 25.9649 10.3649 25.9045C10.431 25.8441 10.5057 25.7932 10.5867 25.7537C10.7165 25.6903 10.8591 25.6576 11.0036 25.6581C11.1481 25.6587 11.2905 25.6925 11.4198 25.7569C11.5005 25.797 11.5748 25.8485 11.6405 25.9094C11.7062 25.9704 11.8073 25.9854 11.8787 25.9311C11.95 25.8768 11.9645 25.774 11.9015 25.7102C11.8037 25.6111 11.6899 25.5285 11.5646 25.4661C11.3907 25.3795 11.1992 25.3341 11.0049 25.3333C10.8106 25.3326 10.6187 25.3766 10.4441 25.4618C10.3183 25.5233 10.2039 25.6049 10.1054 25.7033ZM12 24.3667C12 24.5323 11.8657 24.6667 11.7 24.6667C11.5343 24.6667 11.4 24.5323 11.4 24.3667C11.4 24.201 11.5343 24.0667 11.7 24.0667C11.8657 24.0667 12 24.201 12 24.3667Z" fill="#1D5B7A"/>
</g>
<defs>
<clipPath id="clip0">
<rect width="80" height="80" fill="white"/>
</clipPath>
</defs>
</svg>
