<svg width="80" height="80" viewBox="0 0 80 80" fill="none" xmlns="http://www.w3.org/2000/svg">
<path fill-rule="evenodd" clip-rule="evenodd" d="M39.6191 79.9999C53.5051 79.9999 64.7619 68.7431 64.7619 54.8571C64.7619 40.9711 53.5051 29.7142 39.6191 29.7142C25.733 29.7142 14.4762 40.9711 14.4762 54.8571C14.4762 68.7431 25.733 79.9999 39.6191 79.9999ZM39.6191 69.6833C36.3202 69.6833 33.034 72.9636 33.034 71.8617C33.034 70.7599 34.2816 66.0342 39.6191 66.0342C44.9565 66.0342 46.2041 70.815 46.2041 71.8617C46.2041 72.9085 42.9179 69.6833 39.6191 69.6833ZM23.3959 61.2439C24.0588 62.6657 25.3289 62.0069 25.3289 62.0069L32.5657 59.1414C32.5657 59.1414 34.3263 59.1414 34.027 57.4931C33.7277 55.8448 32.0148 56.0889 32.0148 56.0889L24.0588 59.1414C24.0588 59.1414 22.7329 59.8222 23.3959 61.2439ZM56.0253 61.2439C55.3623 62.6657 54.0923 62.0069 54.0923 62.0069L46.8554 59.1414C46.8554 59.1414 45.0948 59.1414 45.3942 57.4931C45.6935 55.8448 47.4064 56.0889 47.4064 56.0889L55.3623 59.1414C55.3623 59.1414 56.6882 59.8222 56.0253 61.2439Z" fill="#1D5B7A"/>
<path fill-rule="evenodd" clip-rule="evenodd" d="M14.4762 34.2857C17.0009 34.2857 19.0476 32.239 19.0476 29.7143C19.0476 27.1895 17.0009 25.1428 14.4762 25.1428C11.9515 25.1428 9.90475 27.1895 9.90475 29.7143C9.90475 32.239 11.9515 34.2857 14.4762 34.2857ZM14.4762 32.4099C13.8764 32.4099 13.2789 33.0063 13.2789 32.806C13.2789 32.6057 13.5057 31.7465 14.4762 31.7465C15.4466 31.7465 15.6735 32.6157 15.6735 32.806C15.6735 32.9963 15.076 32.4099 14.4762 32.4099ZM11.5265 30.8755C11.647 31.134 11.878 31.0142 11.878 31.0142L13.1938 30.4932C13.1938 30.4932 13.5139 30.4932 13.4594 30.1935C13.405 29.8938 13.0936 29.9382 13.0936 29.9382L11.647 30.4932C11.647 30.4932 11.406 30.617 11.5265 30.8755ZM17.4591 30.8755C17.3386 31.134 17.1077 31.0142 17.1077 31.0142L15.7919 30.4932C15.7919 30.4932 15.4718 30.4932 15.5262 30.1935C15.5806 29.8938 15.8921 29.9382 15.8921 29.9382L17.3386 30.4932C17.3386 30.4932 17.5797 30.617 17.4591 30.8755Z" fill="#1D5B7A"/>
<path fill-rule="evenodd" clip-rule="evenodd" d="M12.1905 18.2857C13.4528 18.2857 14.4762 17.2623 14.4762 15.9999C14.4762 14.7376 13.4528 13.7142 12.1905 13.7142C10.9281 13.7142 9.90475 14.7376 9.90475 15.9999C9.90475 17.2623 10.9281 18.2857 12.1905 18.2857ZM12.1905 17.3478C11.8906 17.3478 11.5918 17.646 11.5918 17.5458C11.5918 17.4457 11.7053 17.016 12.1905 17.016C12.6757 17.016 12.7891 17.4507 12.7891 17.5458C12.7891 17.641 12.4904 17.3478 12.1905 17.3478ZM10.7156 16.5806C10.7759 16.7098 10.8914 16.6499 10.8914 16.6499L11.5493 16.3894C11.5493 16.3894 11.7093 16.3894 11.6821 16.2396C11.6549 16.0897 11.4992 16.1119 11.4992 16.1119L10.7759 16.3894C10.7759 16.3894 10.6554 16.4513 10.7156 16.5806ZM13.6819 16.5806C13.6217 16.7098 13.5062 16.6499 13.5062 16.6499L12.8483 16.3894C12.8483 16.3894 12.6883 16.3894 12.7155 16.2396C12.7427 16.0897 12.8984 16.1119 12.8984 16.1119L13.6217 16.3894C13.6217 16.3894 13.7422 16.4513 13.6819 16.5806Z" fill="#1D5B7A"/>
<path fill-rule="evenodd" clip-rule="evenodd" d="M31.2381 18.2857C35.446 18.2857 38.8571 14.8745 38.8571 10.6667C38.8571 6.45877 35.446 3.04761 31.2381 3.04761C27.0302 3.04761 23.619 6.45877 23.619 10.6667C23.619 14.8745 27.0302 18.2857 31.2381 18.2857ZM31.2381 15.1595C30.2384 15.1595 29.2426 16.1535 29.2426 15.8196C29.2426 15.4857 29.6207 14.0537 31.2381 14.0537C32.8555 14.0537 33.2336 15.5024 33.2336 15.8196C33.2336 16.1368 32.2378 15.1595 31.2381 15.1595ZM26.322 12.6021C26.5229 13.0329 26.9077 12.8333 26.9077 12.8333L29.1007 11.9649C29.1007 11.9649 29.6342 11.9649 29.5435 11.4654C29.4528 10.966 28.9338 11.0399 28.9338 11.0399L26.5229 11.9649C26.5229 11.9649 26.1211 12.1712 26.322 12.6021ZM36.2097 12.6021C36.0088 13.0329 35.6239 12.8333 35.6239 12.8333L33.4309 11.9649C33.4309 11.9649 32.8974 11.9649 32.9881 11.4654C33.0788 10.966 33.5979 11.0399 33.5979 11.0399L36.0088 11.9649C36.0088 11.9649 36.4106 12.1712 36.2097 12.6021Z" fill="#1D5B7A"/>
<path fill-rule="evenodd" clip-rule="evenodd" d="M44.9524 25.1428C46.6355 25.1428 48 23.7784 48 22.0952C48 20.4121 46.6355 19.0476 44.9524 19.0476C43.2692 19.0476 41.9048 20.4121 41.9048 22.0952C41.9048 23.7784 43.2692 25.1428 44.9524 25.1428ZM44.9524 23.8923C44.5525 23.8923 44.1542 24.29 44.1542 24.1564C44.1542 24.0228 44.3054 23.45 44.9524 23.45C45.5993 23.45 45.7506 24.0295 45.7506 24.1564C45.7506 24.2833 45.3522 23.8923 44.9524 23.8923ZM42.9859 22.8694C43.0663 23.0417 43.2202 22.9619 43.2202 22.9619L44.0974 22.6145C44.0974 22.6145 44.3108 22.6145 44.2745 22.4147C44.2383 22.2149 44.0306 22.2445 44.0306 22.2445L43.0663 22.6145C43.0663 22.6145 42.9056 22.6971 42.9859 22.8694ZM46.941 22.8694C46.8606 23.0417 46.7067 22.9619 46.7067 22.9619L45.8295 22.6145C45.8295 22.6145 45.6161 22.6145 45.6524 22.4147C45.6887 22.2149 45.8963 22.2445 45.8963 22.2445L46.8606 22.6145C46.8606 22.6145 47.0214 22.6971 46.941 22.8694Z" fill="#1D5B7A"/>
<path fill-rule="evenodd" clip-rule="evenodd" d="M57.1429 12.9524C59.2468 12.9524 60.9524 11.2468 60.9524 9.1429C60.9524 7.03896 59.2468 5.33337 57.1429 5.33337C55.0389 5.33337 53.3333 7.03896 53.3333 9.1429C53.3333 11.2468 55.0389 12.9524 57.1429 12.9524ZM57.1429 11.3893C56.643 11.3893 56.1451 11.8863 56.1451 11.7194C56.1451 11.5524 56.3342 10.8364 57.1429 10.8364C57.9516 10.8364 58.1406 11.5608 58.1406 11.7194C58.1406 11.878 57.6427 11.3893 57.1429 11.3893ZM54.6848 10.1106C54.7852 10.326 54.9777 10.2262 54.9777 10.2262L56.0742 9.79204C56.0742 9.79204 56.3409 9.79204 56.2956 9.54229C56.2502 9.29255 55.9907 9.32953 55.9907 9.32953L54.7852 9.79204C54.7852 9.79204 54.5843 9.89518 54.6848 10.1106ZM59.6286 10.1106C59.5282 10.326 59.3358 10.2262 59.3358 10.2262L58.2393 9.79204C58.2393 9.79204 57.9725 9.79204 58.0179 9.54229C58.0632 9.29255 58.3228 9.32953 58.3228 9.32953L59.5282 9.79204C59.5282 9.79204 59.7291 9.89518 59.6286 10.1106Z" fill="#1D5B7A"/>
<path fill-rule="evenodd" clip-rule="evenodd" d="M63.2381 31.2381C66.6044 31.2381 69.3333 28.5092 69.3333 25.1428C69.3333 21.7765 66.6044 19.0476 63.2381 19.0476C59.8718 19.0476 57.1429 21.7765 57.1429 25.1428C57.1429 28.5092 59.8718 31.2381 63.2381 31.2381ZM63.2381 28.7371C62.4384 28.7371 61.6417 29.5323 61.6417 29.2652C61.6417 28.9981 61.9442 27.8525 63.2381 27.8525C64.532 27.8525 64.8345 29.0114 64.8345 29.2652C64.8345 29.5189 64.0378 28.7371 63.2381 28.7371ZM59.3052 26.6912C59.4659 27.0358 59.7738 26.8761 59.7738 26.8761L61.5282 26.1815C61.5282 26.1815 61.955 26.1815 61.8824 25.7819C61.8099 25.3823 61.3946 25.4415 61.3946 25.4415L59.4659 26.1815C59.4659 26.1815 59.1445 26.3465 59.3052 26.6912ZM67.2154 26.6912C67.0546 27.0358 66.7467 26.8761 66.7467 26.8761L64.9924 26.1815C64.9924 26.1815 64.5656 26.1815 64.6381 25.7819C64.7107 25.3823 65.1259 25.4415 65.1259 25.4415L67.0546 26.1815C67.0546 26.1815 67.3761 26.3465 67.2154 26.6912Z" fill="#1D5B7A"/>
</svg>
