<svg width="80" height="80" viewBox="0 0 80 80" fill="none" xmlns="http://www.w3.org/2000/svg">
<path d="M72 55.6801L67.44 53.0401L70.8 51.7601C72.08 51.2801 72.72 49.9201 72.24 48.6401C71.76 47.3601 70.4001 46.7201 69.1201 47.2001L62 49.8401L58.4 47.7601L63.28 45.9201C64.56 45.4401 65.2001 44.0801 64.7201 42.8001C64.2401 41.5201 62.88 40.8801 61.6 41.3601L52.96 44.5601L49.28 42.4001V37.3601L52.96 35.2001L61.6 38.4001C61.84 38.4801 62.16 38.5601 62.48 38.5601C63.44 38.5601 64.4001 37.9201 64.7201 36.9601C65.2001 35.6801 64.56 34.3201 63.28 33.8401L58.3201 32.0001L61.9201 29.9201L69.1201 32.5601C69.3601 32.6401 69.68 32.7201 70 32.7201C70.96 32.7201 71.92 32.0801 72.24 31.1201C72.72 29.8401 72.08 28.4801 70.8 28.0001L67.36 26.7201L72 24.0801C73.12 23.4401 73.52 21.9201 72.88 20.8001C72.24 19.6801 70.72 19.2801 69.6 19.9201L65.04 22.5601L65.6 19.0401C65.84 17.7601 64.96 16.4801 63.6 16.2401C62.32 16.0001 61.04 16.8801 60.8 18.2401L59.5201 25.7601L55.9201 27.8401L56.8 22.7201C57.04 21.4401 56.16 20.1601 54.8 19.9201C53.52 19.6801 52.24 20.5601 52 21.9201L50.48 31.0401L46.64 33.2801L42.4 30.8801V26.4001L49.5201 20.4801C50.5601 19.6001 50.72 18.0801 49.84 17.0401C48.96 16.0001 47.44 15.8401 46.4 16.7201L42.3201 20.0801V15.9201L48.24 11.0401C49.28 10.1601 49.44 8.6401 48.56 7.6001C47.68 6.5601 46.1601 6.40008 45.1201 7.28008L42.3201 9.6001V4.24009C42.3201 2.88009 41.2001 1.84009 39.9201 1.84009C38.6401 1.84009 37.5201 2.96009 37.5201 4.24009V9.52012L34.7201 7.2001C33.6801 6.3201 32.16 6.48012 31.28 7.52012C30.4 8.56012 30.56 10.0801 31.6 10.9601L37.44 15.8401V20.0001L33.44 16.6401C32.4 15.7601 30.88 15.9201 30 16.9601C29.12 18.0001 29.2801 19.5201 30.3201 20.4001L37.44 26.2401V30.7201L33.2 33.1201L29.36 30.8801L27.84 21.7601C27.6 20.4801 26.4 19.5201 25.04 19.7601C23.76 20.0001 22.8 21.2001 23.04 22.5601L23.9201 27.7601L20.3201 25.6801L19.04 18.1601C18.8 16.8801 17.6 15.9201 16.24 16.1601C14.96 16.4001 14 17.6001 14.24 18.9601L14.88 22.5601L10.24 19.9201C9.12003 19.2801 7.60005 19.6801 6.96005 20.8001C6.32005 21.9201 6.72003 23.4401 7.84003 24.0801L12.4 26.7201L9.04003 28.0001C7.76003 28.4801 7.12004 29.8401 7.60004 31.1201C8.00004 32.0801 8.88003 32.7201 9.84003 32.7201C10.16 32.7201 10.4001 32.6401 10.7201 32.5601L17.84 29.9201L21.44 32.0001L16.56 33.8401C15.28 34.3201 14.6401 35.6801 15.1201 36.9601C15.5201 37.9201 16.4 38.5601 17.36 38.5601C17.68 38.5601 17.92 38.4801 18.24 38.4001L26.88 35.2001L30.56 37.3601V42.4001L26.88 44.5601L18.24 41.3601C16.96 40.8801 15.6001 41.5201 15.1201 42.8001C14.6401 44.0801 15.28 45.4401 16.56 45.9201L21.5201 47.7601L17.9201 49.8401L10.7201 47.2001C9.44006 46.7201 8.08004 47.3601 7.60004 48.6401C7.12004 49.9201 7.76003 51.2801 9.04003 51.7601L12.48 53.0401L7.84003 55.6801C6.72003 56.3201 6.32005 57.8401 6.96005 58.9601C7.44005 59.7601 8.24003 60.1601 9.04003 60.1601C9.44003 60.1601 9.84003 60.0801 10.24 59.8401L14.8 57.2001L14.24 60.7201C14 62.0001 14.88 63.2801 16.24 63.5201C16.4 63.5201 16.48 63.5201 16.64 63.5201C17.84 63.5201 18.8 62.7201 19.04 61.5201L20.3201 54.0001L23.9201 51.9201L23.04 57.0401C22.8 58.3201 23.68 59.6001 25.04 59.8401C25.2 59.8401 25.28 59.8401 25.44 59.8401C26.64 59.8401 27.6 59.0401 27.84 57.8401L29.36 48.7201L32.88 46.6401L37.44 49.2801V53.3601L30.3201 59.2801C29.2801 60.1601 29.12 61.6801 30 62.7201C30.48 63.2801 31.2 63.6001 31.84 63.6001C32.4 63.6001 32.96 63.4401 33.36 63.0401L37.44 59.6801V63.8401L31.5201 68.7201C30.4801 69.6001 30.32 71.1201 31.2 72.1601C31.68 72.7201 32.4 73.0401 33.04 73.0401C33.6 73.0401 34.16 72.8801 34.56 72.4801L37.36 70.1601V75.5201C37.36 76.8801 38.48 77.9201 39.76 77.9201C41.04 77.9201 42.16 76.8001 42.16 75.5201V70.2401L44.96 72.5601C45.44 72.9601 45.92 73.1201 46.48 73.1201C47.2 73.1201 47.8401 72.8001 48.3201 72.2401C49.2001 71.2001 49.04 69.6801 48 68.8001L42.16 63.9201V59.7601L46.16 63.1201C46.64 63.5201 47.12 63.6801 47.68 63.6801C48.4 63.6801 49.0401 63.3601 49.5201 62.8001C50.4001 61.7601 50.24 60.2401 49.2 59.3601L42.08 53.5201V49.4401L46.64 46.8001L50.16 48.8001L51.68 57.9201C51.84 59.1201 52.88 59.9201 54.08 59.9201C54.24 59.9201 54.32 59.9201 54.48 59.9201C55.76 59.6801 56.72 58.4801 56.48 57.1201L55.6 51.9201L59.2 54.0001L60.48 61.5201C60.64 62.7201 61.68 63.5201 62.88 63.5201C63.04 63.5201 63.12 63.5201 63.28 63.5201C64.56 63.2801 65.52 62.0801 65.28 60.7201L64.64 57.1201L69.28 59.7601C69.68 60.0001 70.08 60.0801 70.48 60.0801C71.28 60.0801 72.16 59.6801 72.5601 58.8801C73.6 57.8401 73.2 56.3201 72 55.6801ZM44.4 42.7201L40 45.2001L35.6 42.7201V37.6801L40 35.2001L44.4 37.6801V42.7201Z" fill="#1D5B7A"/>
</svg>
