<svg width="80" height="80" viewBox="0 0 80 80" fill="none" xmlns="http://www.w3.org/2000/svg">
<path d="M22.3558 22.6926C26.41 22.6926 29.6966 19.406 29.6966 15.3518C29.6966 11.2976 26.41 8.01099 22.3558 8.01099C18.3016 8.01099 15.015 11.2976 15.015 15.3518C15.015 19.406 18.3016 22.6926 22.3558 22.6926Z" fill="#1D5B7A"/>
<path fill-rule="evenodd" clip-rule="evenodd" d="M34.4555 47.5299L30.5721 43.6465V36.3533L35.7397 31.1858C35.748 31.295 35.7541 31.4047 35.7578 31.5151V45.3212C35.7578 46.2746 35.228 47.0886 34.4555 47.5299ZM32.3985 25.476C31.2728 24.7382 29.9322 24.309 28.4844 24.309H16.2272C14.7999 24.309 13.4768 24.7261 12.3673 25.4417L22.4 35.4745L32.3985 25.476ZM9.0921 31.2175C9.08966 31.294 9.08842 31.3707 9.08842 31.4477V45.1865C9.08842 46.1332 9.5874 47.0133 10.3749 47.4996L14.2741 43.6004V36.3995L9.0921 31.2175ZM15.8905 38.0159V41.984L17.8746 39.9999L15.8905 38.0159ZM15.8905 51.035L22.4 44.5254L28.9558 51.0812V69.0947C28.9558 70.7784 27.6089 72.1254 25.9252 71.9907C24.3762 71.9233 23.2313 70.5764 23.2313 69.0274V48.1498C23.2313 47.6784 22.8272 47.3416 22.4231 47.3416C21.9517 47.3416 21.615 47.7457 21.615 48.1498V69.0947C21.615 70.7784 20.268 72.1254 18.5844 71.9907C17.0354 71.9233 15.8905 70.5764 15.8905 69.0274V51.035ZM28.9558 37.9697V42.0302L26.9255 39.9999L28.9558 37.9697Z" fill="#1D5B7A"/>
<path fill-rule="evenodd" clip-rule="evenodd" d="M36.1858 56.6141C36.9669 57.3952 38.2332 57.3952 39.0143 56.6141C39.7953 55.8331 39.7953 54.5668 39.0143 53.7857L25.2285 39.9999L39.0143 26.2141C39.7953 25.4331 39.7953 24.1668 39.0143 23.3857C38.2332 22.6047 36.9669 22.6047 36.1858 23.3857L22.4 37.1715L8.61426 23.3857C7.83321 22.6047 6.56688 22.6047 5.78583 23.3857C5.00478 24.1668 5.00478 25.4331 5.78583 26.2141L19.5716 39.9999L5.78583 53.7857C5.00478 54.5668 5.00478 55.8331 5.78583 56.6141C6.56688 57.3952 7.83321 57.3952 8.61426 56.6141L22.4 42.8284L36.1858 56.6141Z" fill="#1D5B7A"/>
<path d="M54.8171 22.6926C58.8713 22.6926 62.1579 19.406 62.1579 15.3518C62.1579 11.2976 58.8713 8.01099 54.8171 8.01099C50.7628 8.01099 47.4762 11.2976 47.4762 15.3518C47.4762 19.406 50.7628 22.6926 54.8171 22.6926Z" fill="#1D5B7A"/>
<path d="M70.7783 44.4457L66.064 29.36C65.1212 26.3294 62.36 24.309 59.1946 24.309H50.3722C47.2069 24.309 44.4457 26.3294 43.5028 29.36L38.7885 44.5131C38.3844 45.86 39.1252 47.3416 40.4722 47.7457C41.8191 48.1498 43.3008 47.409 43.7048 46.062L47.4763 33.9396C47.5436 33.6702 47.9477 33.7375 47.9477 34.0069L48.0824 35.2192C48.2171 36.162 48.0824 37.1722 47.813 38.1151L42.8293 54.009C42.2905 55.6927 43.5701 57.3764 45.3212 57.3764H48.2171V69.0274C48.2171 70.5764 49.362 71.9233 50.911 71.9907C52.5946 72.1254 53.9416 70.7784 53.9416 69.0947V58.1172C53.9416 57.7131 54.2783 57.309 54.7497 57.309C55.1538 57.309 55.5579 57.6457 55.5579 58.1172V69.0274C55.5579 70.5764 56.7028 71.9233 58.2518 71.9907C59.9355 72.1254 61.2824 70.7784 61.2824 69.0947V57.3764H64.2457C65.9967 57.3764 67.2089 55.6927 66.7375 54.009L61.7538 38.1151C61.4845 37.1722 61.3498 36.162 61.4844 35.2192L61.6191 34.0069C61.6191 33.7375 62.0232 33.6702 62.0906 33.9396L65.862 46.062C66.1987 47.1396 67.2089 47.8804 68.3538 47.8804C68.6232 47.8804 68.8926 47.8131 69.162 47.7457C70.509 47.2743 71.2498 45.7927 70.7783 44.4457Z" fill="#1D5B7A"/>
</svg>
