<svg width="80" height="80" viewBox="0 0 80 80" fill="none" xmlns="http://www.w3.org/2000/svg">
<path d="M46.9139 10.6795C47.8208 6.7855 45.3992 2.89367 41.5052 1.98684C37.6112 1.08002 33.7194 3.50159 32.8125 7.39559C31.9057 11.2896 34.3273 15.1814 38.2213 16.0882C42.1153 16.9951 46.0071 14.5735 46.9139 10.6795Z" fill="#1D5B7A"/>
<path d="M54.5082 29.1323C53.4872 26.1523 51.9475 23.3361 49.5303 21.2182C47.121 19.0937 43.8282 17.8057 39.8634 17.8206C35.8982 17.8054 32.6058 19.0933 30.1968 21.2182C26.5727 24.4164 24.9148 29.0902 24.033 33.7216C23.1641 38.3695 23.1058 43.0988 23.1034 46.6147C23.1034 47.853 24.1065 48.8561 25.3448 48.8561C26.5824 48.8561 27.5862 47.853 27.5862 46.6147C27.5744 42.0275 27.7365 35.574 29.4593 30.584C29.8658 29.3937 30.3572 28.3016 30.932 27.3282C30.9203 27.3964 30.9089 27.464 30.8972 27.533C30.733 27.9316 30.623 28.3585 30.5793 28.8047C30.5648 28.9526 30.5565 29.1023 30.5565 29.254C30.5565 31.754 32.583 33.7799 35.0824 33.7799C36.5244 33.7799 37.8055 33.1037 38.6344 32.0537C37.9368 33.5268 36.4406 34.5485 34.702 34.5485C32.4565 34.5485 30.6096 32.8482 30.3748 30.665C29.4341 36.433 28.4182 43.4237 28.4182 46.7288C28.4182 52.8861 32.4886 76.5123 32.4886 76.5123C32.4886 78.4168 34.0324 79.9606 35.9368 79.9606C37.8406 79.9606 39.3851 78.4168 39.3851 76.5123L39.381 52.8575H40.3458L40.342 76.5123C40.342 78.4168 41.8865 79.9606 43.7903 79.9606C45.6948 79.9606 47.2386 78.4168 47.2386 76.5123C47.2386 76.5123 51.3093 52.8861 51.3093 46.7288C51.3093 43.4233 50.2934 36.4316 49.3524 30.6637C49.1182 32.8475 47.271 34.5485 45.0251 34.5485C43.2868 34.5485 41.791 33.5275 41.0934 32.0547C41.922 33.104 43.2031 33.7799 44.6444 33.7799C47.1441 33.7799 49.1706 31.754 49.1706 29.254C49.1706 29.103 49.1627 28.9533 49.1482 28.8057C49.1041 28.3592 48.9944 27.9326 48.8303 27.534C48.8186 27.4647 48.8068 27.3971 48.7948 27.3282C49.9727 29.3306 50.7879 31.8402 51.2875 34.5485C52.0668 38.6913 52.1424 43.1692 52.1403 46.615C52.1403 47.8533 53.1441 48.8571 54.3817 48.8571C55.6203 48.8571 56.6241 47.8533 56.6241 46.615H56.6234C56.6124 41.9199 56.5348 35.0982 54.5082 29.1323Z" fill="#1D5B7A"/>
<path fill-rule="evenodd" clip-rule="evenodd" d="M64.5 53C66.433 53 68 51.433 68 49.5C68 47.567 66.433 46 64.5 46C62.567 46 61 47.567 61 49.5C61 51.433 62.567 53 64.5 53ZM63.275 48.9167C63.5649 48.9167 63.8 48.6816 63.8 48.3917C63.8 48.1017 63.5649 47.8667 63.275 47.8667C62.9851 47.8667 62.75 48.1017 62.75 48.3917C62.75 48.6816 62.9851 48.9167 63.275 48.9167ZM62.9344 50.7308C62.8233 50.8416 62.8472 51.0217 62.9714 51.1177C63.0955 51.2137 63.2726 51.1887 63.3885 51.0828C63.5043 50.9771 63.6349 50.8881 63.7767 50.8189C64.0038 50.7079 64.2535 50.6507 64.5063 50.6517C64.7592 50.6527 65.0084 50.7118 65.2347 50.8245C65.3759 50.8948 65.5059 50.9848 65.6208 51.0914C65.7359 51.1981 65.9128 51.2245 66.0376 51.1295C66.1625 51.0344 66.1879 50.8546 66.0776 50.7429C65.9064 50.5694 65.7074 50.4249 65.488 50.3157C65.1837 50.1642 64.8485 50.0847 64.5085 50.0833C64.1685 50.082 63.8328 50.159 63.5272 50.3082C63.3071 50.4157 63.1069 50.5587 62.9344 50.7308ZM66.25 48.3917C66.25 48.6816 66.0149 48.9167 65.725 48.9167C65.4351 48.9167 65.2 48.6816 65.2 48.3917C65.2 48.1017 65.4351 47.8667 65.725 47.8667C66.0149 47.8667 66.25 48.1017 66.25 48.3917Z" fill="#1D5B7A"/>
<path fill-rule="evenodd" clip-rule="evenodd" d="M70 40C72.7614 40 75 37.7614 75 35C75 32.2386 72.7614 30 70 30C67.2386 30 65 32.2386 65 35C65 37.7614 67.2386 40 70 40ZM68.25 34.1667C68.6642 34.1667 69 33.8309 69 33.4167C69 33.0025 68.6642 32.6667 68.25 32.6667C67.8358 32.6667 67.5 33.0025 67.5 33.4167C67.5 33.8309 67.8358 34.1667 68.25 34.1667ZM67.7634 36.7583C67.6047 36.9166 67.6389 37.1738 67.8163 37.311C67.9936 37.4482 68.2466 37.4124 68.4122 37.2612C68.5776 37.1102 68.7642 36.983 68.9667 36.8841C69.2912 36.7256 69.6479 36.6439 70.0091 36.6453C70.3702 36.6467 70.7263 36.7311 71.0496 36.8921C71.2513 36.9926 71.4369 37.1211 71.6012 37.2734C71.7655 37.4259 72.0182 37.4636 72.1966 37.3278C72.375 37.192 72.4113 36.9351 72.2538 36.7755C72.0092 36.5277 71.7248 36.3213 71.4115 36.1653C70.9767 35.9488 70.4979 35.8352 70.0122 35.8334C69.5264 35.8315 69.0468 35.9414 68.6103 36.1545C68.2958 36.3081 68.0098 36.5124 67.7634 36.7583ZM72.5 33.4167C72.5 33.8309 72.1642 34.1667 71.75 34.1667C71.3358 34.1667 71 33.8309 71 33.4167C71 33.0025 71.3358 32.6667 71.75 32.6667C72.1642 32.6667 72.5 33.0025 72.5 33.4167Z" fill="#1D5B7A"/>
<path fill-rule="evenodd" clip-rule="evenodd" d="M66 22C67.1046 22 68 21.1046 68 20C68 18.8954 67.1046 18 66 18C64.8954 18 64 18.8954 64 20C64 21.1046 64.8954 22 66 22ZM65.3 19.6667C65.4657 19.6667 65.6 19.5323 65.6 19.3667C65.6 19.201 65.4657 19.0667 65.3 19.0667C65.1343 19.0667 65 19.201 65 19.3667C65 19.5323 65.1343 19.6667 65.3 19.6667ZM65.1054 20.7033C65.0419 20.7667 65.0556 20.8695 65.1265 20.9244C65.1975 20.9793 65.2986 20.9649 65.3649 20.9045C65.431 20.8441 65.5057 20.7932 65.5867 20.7537C65.7165 20.6903 65.8591 20.6576 66.0036 20.6581C66.1481 20.6587 66.2905 20.6925 66.4198 20.7569C66.5005 20.797 66.5748 20.8485 66.6405 20.9094C66.7062 20.9704 66.8073 20.9854 66.8787 20.9311C66.95 20.8768 66.9645 20.774 66.9015 20.7102C66.8037 20.6111 66.6899 20.5285 66.5646 20.4661C66.3907 20.3795 66.1992 20.3341 66.0049 20.3333C65.8106 20.3326 65.6187 20.3766 65.4441 20.4618C65.3183 20.5233 65.2039 20.6049 65.1054 20.7033ZM67 19.3667C67 19.5323 66.8657 19.6667 66.7 19.6667C66.5343 19.6667 66.4 19.5323 66.4 19.3667C66.4 19.201 66.5343 19.0667 66.7 19.0667C66.8657 19.0667 67 19.201 67 19.3667Z" fill="#1D5B7A"/>
<path fill-rule="evenodd" clip-rule="evenodd" d="M61 12C63.2091 12 65 10.2091 65 8C65 5.79085 63.2091 4 61 4C58.7909 4 57 5.79085 57 8C57 10.2091 58.7909 12 61 12ZM59.6 7.33333C59.9314 7.33333 60.2 7.0647 60.2 6.73333C60.2 6.40197 59.9314 6.13333 59.6 6.13333C59.2686 6.13333 59 6.40197 59 6.73333C59 7.0647 59.2686 7.33333 59.6 7.33333ZM59.2107 9.40661C59.0837 9.5333 59.1111 9.73906 59.253 9.8488C59.3949 9.95853 59.5973 9.9299 59.7297 9.80895C59.862 9.68814 60.0113 9.58643 60.1733 9.50731C60.433 9.3805 60.7183 9.31514 61.0072 9.31624C61.2962 9.31735 61.581 9.38491 61.8396 9.5137C62.001 9.59406 62.1495 9.69691 62.2809 9.81875C62.4124 9.94072 62.6146 9.9709 62.7573 9.86226C62.9 9.75361 62.929 9.54806 62.803 9.42041C62.6074 9.22218 62.3798 9.05705 62.1292 8.93224C61.7813 8.75903 61.3983 8.66818 61.0097 8.66668C60.6212 8.66519 60.2374 8.75311 59.8883 8.92363C59.6367 9.0465 59.4079 9.2099 59.2107 9.40661ZM63 6.73333C63 7.0647 62.7314 7.33333 62.4 7.33333C62.0686 7.33333 61.8 7.0647 61.8 6.73333C61.8 6.40197 62.0686 6.13333 62.4 6.13333C62.7314 6.13333 63 6.40197 63 6.73333Z" fill="#1D5B7A"/>
<path fill-rule="evenodd" clip-rule="evenodd" d="M6 20C7.10457 20 8 19.1046 8 18C8 16.8954 7.10457 16 6 16C4.89543 16 4 16.8954 4 18C4 19.1046 4.89543 20 6 20ZM5.3 17.6667C5.46568 17.6667 5.6 17.5323 5.6 17.3667C5.6 17.201 5.46568 17.0667 5.3 17.0667C5.13432 17.0667 5 17.201 5 17.3667C5 17.5323 5.13432 17.6667 5.3 17.6667ZM5.10535 18.7033C5.04187 18.7667 5.05557 18.8695 5.12651 18.9244C5.19745 18.9793 5.29864 18.9649 5.36487 18.9045C5.43102 18.8441 5.50566 18.7932 5.58666 18.7537C5.71648 18.6903 5.85915 18.6576 6.00362 18.6581C6.14809 18.6587 6.2905 18.6925 6.41982 18.7569C6.50052 18.797 6.57477 18.8485 6.64046 18.9094C6.70622 18.9704 6.8073 18.9854 6.87865 18.9311C6.95002 18.8768 6.9645 18.774 6.90151 18.7102C6.80368 18.6111 6.68992 18.5285 6.56459 18.4661C6.39067 18.3795 6.19915 18.3341 6.00487 18.3333C5.81058 18.3326 5.61872 18.3766 5.44413 18.4618C5.31834 18.5233 5.20394 18.6049 5.10535 18.7033ZM7 17.3667C7 17.5323 6.86568 17.6667 6.7 17.6667C6.53432 17.6667 6.4 17.5323 6.4 17.3667C6.4 17.201 6.53432 17.0667 6.7 17.0667C6.86568 17.0667 7 17.201 7 17.3667Z" fill="#1D5B7A"/>
<path fill-rule="evenodd" clip-rule="evenodd" d="M15 37C17.2091 37 19 35.2091 19 33C19 30.7909 17.2091 29 15 29C12.7909 29 11 30.7909 11 33C11 35.2091 12.7909 37 15 37ZM13.6 32.3333C13.9314 32.3333 14.2 32.0647 14.2 31.7333C14.2 31.402 13.9314 31.1333 13.6 31.1333C13.2686 31.1333 13 31.402 13 31.7333C13 32.0647 13.2686 32.3333 13.6 32.3333ZM13.2107 34.4066C13.0837 34.5333 13.1111 34.7391 13.253 34.8488C13.3949 34.9585 13.5973 34.9299 13.7297 34.809C13.862 34.6881 14.0113 34.5864 14.1733 34.5073C14.433 34.3805 14.7183 34.3151 15.0072 34.3162C15.2962 34.3174 15.581 34.3849 15.8396 34.5137C16.001 34.5941 16.1495 34.6969 16.2809 34.8188C16.4124 34.9407 16.6146 34.9709 16.7573 34.8623C16.9 34.7536 16.929 34.5481 16.803 34.4204C16.6074 34.2222 16.3798 34.057 16.1292 33.9322C15.7813 33.759 15.3983 33.6682 15.0097 33.6667C14.6212 33.6652 14.2374 33.7531 13.8883 33.9236C13.6367 34.0465 13.4079 34.2099 13.2107 34.4066ZM17 31.7333C17 32.0647 16.7314 32.3333 16.4 32.3333C16.0686 32.3333 15.8 32.0647 15.8 31.7333C15.8 31.402 16.0686 31.1333 16.4 31.1333C16.7314 31.1333 17 31.402 17 31.7333Z" fill="#1D5B7A"/>
<path fill-rule="evenodd" clip-rule="evenodd" d="M40 25C41.1046 25 42 24.1046 42 23C42 21.8954 41.1046 21 40 21C38.8954 21 38 21.8954 38 23C38 24.1046 38.8954 25 40 25ZM39.3 22.6667C39.4657 22.6667 39.6 22.5323 39.6 22.3667C39.6 22.201 39.4657 22.0667 39.3 22.0667C39.1343 22.0667 39 22.201 39 22.3667C39 22.5323 39.1343 22.6667 39.3 22.6667ZM39.1054 23.7033C39.0419 23.7667 39.0556 23.8695 39.1265 23.9244C39.1975 23.9793 39.2986 23.9649 39.3649 23.9045C39.431 23.8441 39.5057 23.7932 39.5867 23.7537C39.7165 23.6903 39.8591 23.6576 40.0036 23.6581C40.1481 23.6587 40.2905 23.6925 40.4198 23.7569C40.5005 23.797 40.5748 23.8485 40.6405 23.9094C40.7062 23.9704 40.8073 23.9854 40.8787 23.9311C40.95 23.8768 40.9645 23.774 40.9015 23.7102C40.8037 23.6111 40.6899 23.5285 40.5646 23.4661C40.3907 23.3795 40.1992 23.3341 40.0049 23.3333C39.8106 23.3326 39.6187 23.3766 39.4441 23.4618C39.3183 23.5233 39.2039 23.6049 39.1054 23.7033ZM41 22.3667C41 22.5323 40.8657 22.6667 40.7 22.6667C40.5343 22.6667 40.4 22.5323 40.4 22.3667C40.4 22.201 40.5343 22.0667 40.7 22.0667C40.8657 22.0667 41 22.201 41 22.3667Z" fill="#1D5B7A"/>
<path fill-rule="evenodd" clip-rule="evenodd" d="M19 15C21.2091 15 23 13.2091 23 11C23 8.79085 21.2091 7 19 7C16.7909 7 15 8.79085 15 11C15 13.2091 16.7909 15 19 15ZM17.6 10.3333C17.9314 10.3333 18.2 10.0647 18.2 9.73333C18.2 9.40197 17.9314 9.13333 17.6 9.13333C17.2686 9.13333 17 9.40197 17 9.73333C17 10.0647 17.2686 10.3333 17.6 10.3333ZM17.2107 12.4066C17.0837 12.5333 17.1111 12.7391 17.253 12.8488C17.3949 12.9585 17.5973 12.9299 17.7297 12.809C17.862 12.6881 18.0113 12.5864 18.1733 12.5073C18.433 12.3805 18.7183 12.3151 19.0072 12.3162C19.2962 12.3174 19.581 12.3849 19.8396 12.5137C20.001 12.5941 20.1495 12.6969 20.2809 12.8188C20.4124 12.9407 20.6146 12.9709 20.7573 12.8623C20.9 12.7536 20.929 12.5481 20.803 12.4204C20.6074 12.2222 20.3798 12.057 20.1292 11.9322C19.7813 11.759 19.3983 11.6682 19.0097 11.6667C18.6212 11.6652 18.2374 11.7531 17.8883 11.9236C17.6367 12.0465 17.4079 12.2099 17.2107 12.4066ZM21 9.73333C21 10.0647 20.7314 10.3333 20.4 10.3333C20.0686 10.3333 19.8 10.0647 19.8 9.73333C19.8 9.40197 20.0686 9.13333 20.4 9.13333C20.7314 9.13333 21 9.40197 21 9.73333Z" fill="#1D5B7A"/>
<path fill-rule="evenodd" clip-rule="evenodd" d="M9 47C10.6569 47 12 45.6569 12 44C12 42.3431 10.6569 41 9 41C7.34314 41 6 42.3431 6 44C6 45.6569 7.34314 47 9 47ZM7.95 43.5C8.19852 43.5 8.4 43.2985 8.4 43.05C8.4 42.8015 8.19852 42.6 7.95 42.6C7.70148 42.6 7.5 42.8015 7.5 43.05C7.5 43.2985 7.70148 43.5 7.95 43.5ZM7.65803 45.055C7.56281 45.15 7.58335 45.3043 7.68976 45.3866C7.79618 45.4689 7.94796 45.4474 8.0473 45.3567C8.14653 45.2661 8.2585 45.1898 8.37999 45.1305C8.57472 45.0354 8.78872 44.9864 9.00543 44.9872C9.22213 44.988 9.43575 45.0387 9.62974 45.1353C9.75078 45.1955 9.86216 45.2727 9.96069 45.3641C10.0593 45.4555 10.2109 45.4782 10.318 45.3967C10.425 45.3152 10.4468 45.161 10.3523 45.0653C10.2055 44.9166 10.0349 44.7928 9.84689 44.6992C9.586 44.5693 9.29873 44.5011 9.0073 44.5C8.71587 44.4989 8.42808 44.5648 8.1662 44.6927C7.9775 44.7849 7.80591 44.9074 7.65803 45.055ZM10.5 43.05C10.5 43.2985 10.2985 43.5 10.05 43.5C9.80148 43.5 9.6 43.2985 9.6 43.05C9.6 42.8015 9.80148 42.6 10.05 42.6C10.2985 42.6 10.5 42.8015 10.5 43.05Z" fill="#1D5B7A"/>
</svg>
