<svg width="80" height="80" viewBox="0 0 80 80" fill="none" xmlns="http://www.w3.org/2000/svg">
<path d="M11.0057 6.57538V25.7535C11.0057 26.3563 11.4988 26.8494 12.1016 26.8494H21.7783L23.0934 32.9535C23.1701 33.3371 23.4441 33.6439 23.8166 33.7644C23.9263 33.7973 24.0468 33.8193 24.1564 33.8193C24.4194 33.8193 24.6715 33.7316 24.8797 33.5562L32.6386 26.8494H49.3618C49.9756 26.8494 50.4577 26.3563 50.4577 25.7535V6.57538C50.4577 5.97266 49.9756 5.47949 49.3618 5.47949H12.1016C11.4988 5.47949 11.0057 5.97266 11.0057 6.57538Z" fill="#1D5B7A"/>
<path d="M35.0684 60.2521V69.7206C35.0684 72.9316 32.4492 75.5398 29.2383 75.5398H11.2986C8.08756 75.5398 5.4794 72.9316 5.4794 69.7206V60.2521C5.4794 57.0302 8.08756 54.422 11.2986 54.422H13.1615C13.5561 54.422 13.9177 54.6302 14.115 54.9809C15.3643 57.2055 17.7314 58.5864 20.2739 58.5864C22.8163 58.5864 25.1725 57.2055 26.4328 54.9809C26.6191 54.6302 26.9917 54.422 27.3862 54.422H29.2383C32.4492 54.422 35.0684 57.0302 35.0684 60.2521Z" fill="#1D5B7A"/>
<path d="M20.2739 54.0165C24.5106 54.0165 27.9452 50.582 27.9452 46.3453C27.9452 42.1086 24.5106 38.6741 20.2739 38.6741C16.0372 38.6741 12.6027 42.1086 12.6027 46.3453C12.6027 50.582 16.0372 54.0165 20.2739 54.0165Z" fill="#1D5B7A"/>
<path d="M73.4464 58.7178C71.8245 54.4438 67.2328 53.3589 66.9478 53.2932C64.1095 52.8987 62.6081 51.8357 61.8191 50.9261H61.8519C64.9423 50.9261 67.3314 49.1726 67.4519 49.085C67.7478 48.8658 67.9122 48.5151 67.8903 48.1425C67.8684 47.7809 67.6711 47.4521 67.3533 47.2658C64.4601 45.5562 65.0848 40.011 65.0848 39.9562C65.0958 39.9124 65.0958 39.8685 65.0958 39.8137C65.019 30.1809 56.4711 29.5233 56.3177 29.5123H55.3862C55.2985 29.5233 46.7506 30.1809 46.6738 39.8137C46.6738 39.8685 46.6738 39.9124 46.6848 39.9562C46.6848 40.011 47.2875 45.5781 44.4273 47.2658C44.1095 47.4521 43.9013 47.7809 43.8793 48.1425C43.8684 48.5151 44.0328 48.8658 44.3177 49.085C44.4492 49.1726 46.8383 50.9261 49.9177 50.9261H49.9615C49.1615 51.8466 47.6273 52.8987 44.7341 53.3151C44.5368 53.3589 39.9451 54.4438 38.3232 58.7178C38.2026 59.0466 38.2464 59.4302 38.4547 59.726C38.6519 60.0219 38.9916 60.1973 39.3533 60.1973H72.4163C72.778 60.1973 73.1177 60.0219 73.3259 59.726C73.5232 59.4302 73.5779 59.0466 73.4464 58.7178Z" fill="#1D5B7A"/>
<path fill-rule="evenodd" clip-rule="evenodd" d="M22.8226 17.7388C23.0973 17.9536 23.2346 18.2532 23.2346 18.6378C23.2346 18.9774 23.1073 19.2421 22.8526 19.4319C22.6028 19.6167 22.2607 19.7091 21.8262 19.7091C21.147 19.7091 20.6551 19.5717 20.3504 19.297C20.0508 19.0174 19.9009 18.5854 19.9009 18.001H17.2639C17.2639 18.7202 17.4437 19.357 17.8033 19.9113C18.1679 20.4607 18.7073 20.8952 19.4215 21.2148C20.1407 21.5295 20.9422 21.6868 21.8262 21.6868C23.0798 21.6868 24.0662 21.4146 24.7854 20.8702C25.5045 20.3259 25.8641 19.5767 25.8641 18.6228C25.8641 18.108 25.7545 17.641 25.5352 17.2219H21.8114C22.2749 17.3988 22.612 17.5711 22.8226 17.7388ZM18.4863 15.5781H23.6466C23.2458 15.3867 22.7764 15.2055 22.2383 15.0344C21.4841 14.7897 20.9572 14.555 20.6576 14.3302C20.3579 14.1005 20.2081 13.8458 20.2081 13.5661C20.2081 13.2465 20.3429 12.9843 20.6126 12.7795C20.8873 12.5697 21.2594 12.4648 21.7288 12.4648C22.1933 12.4648 22.5604 12.5872 22.8301 12.8319C23.1048 13.0766 23.2421 13.4213 23.2421 13.8657H25.8641C25.8641 13.2015 25.6918 12.6122 25.3472 12.0978C25.0026 11.5784 24.5182 11.1788 23.8939 10.8991C23.2746 10.6195 22.5729 10.4796 21.7888 10.4796C20.9847 10.4796 20.2605 10.6095 19.6163 10.8692C18.972 11.1239 18.4726 11.4835 18.118 11.9479C17.7684 12.4074 17.5936 12.9393 17.5936 13.5436C17.5936 14.3311 17.8911 15.0093 18.4863 15.5781ZM27.2126 17.2219V21.537H34.7265V19.5143H29.8421V17.2219H27.2126ZM33.9773 15.5781H27.2126V10.6294H34.7415V12.6596H29.8421V14.9595H33.9773V15.5781ZM37.4552 17.2219L35.0037 21.537H38.0302L39.8656 17.8437L41.701 21.537H44.7351L42.2777 17.2219H37.4552ZM41.863 15.5781H37.8688L35.0861 10.6294H38.0827L39.8656 14.2553L41.6486 10.6294H44.6526L41.863 15.5781Z" fill="white"/>
<path d="M14.8947 16.4H46.6755" stroke="white" stroke-width="0.547945" stroke-linecap="round"/>
</svg>
