<svg width="80" height="80" viewBox="0 0 80 80" fill="none" xmlns="http://www.w3.org/2000/svg">
<path d="M54.4104 0.800049C53.0756 2.71021 51.8695 5.23732 51.3704 7.60044C51.0711 9.01828 51.7616 10.5177 52.8788 10.8977C54.5548 11.4676 55.4104 10.2547 55.7098 8.83701C56.1589 6.71013 53.5122 5.05381 54.4104 0.800049ZM39.4431 2.08228C39.4431 2.08228 38.185 6.92612 36.5424 12.1799C35.2814 16.0885 34.191 19.824 32.1567 23.1019L31.2284 20.3313C31.0856 19.9169 30.5162 19.7137 30.1378 19.9421L27.2372 21.6594C27.0163 21.0203 26.5168 19.6543 26.0305 17.492C25.907 16.9469 25.0435 16.7676 24.7078 17.2173C19.6017 24.2525 15.6578 34.5769 15.6578 41.0992C15.6578 46.4013 17.3455 50.9095 20.2292 54.4253C18.1021 57.6257 13.8529 59.9637 11.9914 63.0805C10.3554 65.8765 11.339 69.4802 14.1727 71.0945C17.019 72.6177 19.2847 71.8174 21.3895 70.3847C23.4843 68.7096 26.3955 65.147 28.5135 62.9197C28.5519 63.1639 26.5829 69.5036 26.0537 73.3382C26.0537 76.5669 28.7222 79.1999 31.9942 79.1999C34.9747 79.1303 37.0809 77.4099 37.9115 75.0326C38.6475 71.8021 39.4381 68.5217 40.0927 65.7598C40.8399 68.8478 41.8799 73.8783 42.3204 75.0326C43.108 77.5767 45.5121 79.0547 48.2146 79.1999C51.4866 79.1999 54.1551 76.5669 54.1551 73.3382C54.1919 71.3803 52.5812 66.6455 51.7649 63.2174C54.0547 65.5947 57.042 69.079 58.6104 70.3847C60.6874 71.932 63.2485 72.6217 65.8272 71.0945C68.6609 69.4802 69.6445 65.8765 68.0085 63.0805C66.6992 61.1225 63.0706 57.7178 60.6989 55.4099C64.1059 51.7671 66.1521 46.9125 66.1521 41.0992C66.1521 37.9574 65.4202 33.1022 64.11 28.2767C62.7999 23.4511 60.9344 18.6844 58.564 15.729C57.9148 15.1751 57.3172 15.6682 57.2413 16.2101C57.0495 17.8248 57.1105 19.7966 56.5219 20.9046L54.1087 17.928C53.7486 17.4735 52.8538 17.7212 52.7859 18.2943L52.2755 22.8737C50.8944 19.9035 49.7386 16.4412 48.6555 13.7148C47.5652 10.9808 46.3596 8.20123 45.0123 5.97564C43.6649 3.74995 42.2112 2.01613 40.348 1.55645C39.8762 1.45797 39.6938 1.80492 39.4431 2.08228ZM29.5577 7.53184C30.4558 11.7856 27.8091 13.4419 28.2582 15.5687C28.5575 16.9865 29.4131 18.2223 31.0892 17.6524C32.2064 17.2724 32.8968 15.773 32.5975 14.3552C32.0985 11.9921 30.8923 9.442 29.5577 7.53184ZM65.6648 17.0571C66.2635 20.0955 64.4836 21.285 64.783 22.8042C64.9826 23.817 65.5685 24.6768 66.6859 24.2696C67.4307 23.9982 67.8831 22.9468 67.6836 21.9342C67.351 20.2461 66.5546 18.4216 65.6648 17.0571ZM14.8456 19.9879C13.9558 21.3525 13.1595 23.1769 12.8267 24.865C12.6272 25.8776 13.0797 26.9291 13.8246 27.2004C14.9419 27.6076 15.5046 26.7479 15.7042 25.7351C16.0036 24.2159 14.2468 23.0263 14.8456 19.9879ZM40.6497 29.7192C42.5848 31.1136 43.7651 33.425 44.757 35.3978C45.7531 37.4124 46.5767 39.4696 47.5648 41.3281C47.8116 41.773 48.0779 41.718 48.4699 41.809C50.3233 41.1703 51.1795 39.5857 51.6489 37.8477C53.0737 40.2461 55.0136 44.6274 55.0136 49.159C55.0136 49.9639 54.5972 50.7653 53.7606 51.5632C52.9239 52.3613 51.6867 53.1114 50.2566 53.7384C47.3966 54.9926 43.7446 55.7534 40.905 55.7534C38.0653 55.7534 34.4134 54.9926 31.5533 53.7384C30.1233 53.1114 28.8859 52.3613 28.0493 51.5632C27.2127 50.7652 26.7963 49.9639 26.7963 49.159C26.7963 43.934 28.7079 39.4253 31.0892 37.1836C32.1266 38.5262 33.2423 39.6521 34.4539 40.8702C34.6727 41.0865 35.0356 41.1446 35.3125 41.0076C36.3319 40.5048 37.0448 39.486 37.7027 38.2599C39.0831 35.4592 39.9427 32.8131 40.6497 29.7192ZM21.2039 55.5245C21.7972 56.1498 22.4357 56.7364 23.1067 57.2875C24.7527 58.6397 26.6189 59.7636 28.6527 60.6534L23.0603 66.5151C23.2458 64.3213 22.1675 62.0985 20.1132 60.9282C19.0718 60.335 17.9155 60.1064 16.7948 60.1725L21.2039 55.5245ZM59.6779 56.4403L63.2051 60.1725C62.0844 60.1069 60.9281 60.335 59.8867 60.9282C57.8324 62.0985 56.7541 64.3213 56.9397 66.5151L51.8578 61.1799C54.4005 60.2249 56.7124 58.923 58.7033 57.2875C59.0368 57.0135 59.3631 56.7328 59.6779 56.4403ZM30.4163 61.3403C33.1391 62.3074 36.108 62.8851 39.2342 63.0347L37.3778 70.8656C36.4284 68.8701 34.3692 67.4768 31.9942 67.4768C30.7856 67.4768 29.6621 67.8455 28.7223 68.4614L30.4163 61.3403ZM49.9085 61.821L51.4865 68.4614C50.5467 67.8455 49.4231 67.4768 48.2146 67.4768C45.8395 67.4768 43.7803 68.8701 42.831 70.8656L40.9746 63.0805C44.1154 63.0725 47.127 62.6368 49.9085 61.821Z" fill="#1D5B7A"/>
</svg>
