<svg width="126" height="140" viewBox="0 0 126 140" fill="none" xmlns="http://www.w3.org/2000/svg">
<path fill-rule="evenodd" clip-rule="evenodd" d="M125.998 3.50304C125.998 1.57012 124.431 0.00317383 122.498 0.00317383H3.50225C1.56932 0.00317383 0.00238037 1.57012 0.00238037 3.50305V122.23C0.00238037 124.163 1.56932 125.73 3.50224 125.73H45.8048C46.7318 125.73 47.6209 126.098 48.277 126.753L60.5279 138.978C61.894 140.341 64.106 140.341 65.4721 138.978L77.723 126.753C78.3791 126.098 79.2682 125.73 80.1952 125.73H122.498C124.431 125.73 125.998 124.163 125.998 122.23V3.50304Z" fill="white"/>
<path d="M46.9997 71.9654C49.5804 71.9654 51.6724 69.8734 51.6724 67.2928C51.6724 64.7121 49.5804 62.6201 46.9997 62.6201C44.4191 62.6201 42.3271 64.7121 42.3271 67.2928C42.3271 69.8734 44.4191 71.9654 46.9997 71.9654Z" fill="#E91D63"/>
<path d="M74.6324 71.9654C77.213 71.9654 79.305 69.8734 79.305 67.2928C79.305 64.7121 77.213 62.6201 74.6324 62.6201C72.0517 62.6201 69.9597 64.7121 69.9597 67.2928C69.9597 69.8734 72.0517 71.9654 74.6324 71.9654Z" fill="#E91D63"/>
<path d="M81.6245 58.3148L71.2276 54.1562C70.5119 53.8695 69.6965 54.2178 69.4087 54.9357C69.1209 55.6537 69.4703 56.469 70.1882 56.7557L80.5852 60.9143C80.7554 60.9826 80.9313 61.0151 81.1049 61.0151C81.6604 61.0151 82.1857 60.6825 82.4041 60.1348C82.6919 59.4169 82.3436 58.6015 81.6245 58.3148Z" fill="#E91D63"/>
<path d="M51.4798 54.9358C51.1919 54.2168 50.3766 53.8685 49.6609 54.1563L39.2639 58.3149C38.5449 58.6016 38.1966 59.4169 38.4844 60.1349C38.7028 60.6825 39.2281 61.0152 39.7836 61.0152C39.9572 61.0152 40.1331 60.9827 40.3033 60.9144L50.7003 56.7558C51.4182 56.4691 51.7676 55.6537 51.4798 54.9358Z" fill="#E91D63"/>
<path d="M75.3705 86.3798L70.4402 89.3098L65.1023 86.325C64.7842 86.1469 64.4337 86.0886 64.0977 86.1267C63.7594 86.0886 63.4089 86.148 63.0908 86.325L58.1225 89.1026L53.1542 86.325C52.8372 86.148 52.4866 86.0886 52.1506 86.1267C51.8135 86.0886 51.463 86.148 51.1449 86.325L45.5449 89.4554C44.734 89.9078 44.445 90.9315 44.8975 91.7413C45.2055 92.2923 45.7767 92.6026 46.3658 92.6026C46.6436 92.6026 46.9247 92.5331 47.1834 92.3886L52.1506 89.6122L57.1178 92.3886C57.3766 92.5331 57.6577 92.6026 57.9354 92.6026C57.9993 92.6026 58.0598 92.5846 58.1236 92.5779C58.1863 92.5846 58.2479 92.6026 58.3118 92.6026C58.5895 92.6026 58.8706 92.5331 59.1294 92.3886L64.0977 89.611L69.066 92.3886C69.29 92.5141 69.5308 92.5723 69.7716 92.588C70.0314 92.7437 70.3282 92.831 70.6329 92.831C70.9252 92.831 71.2209 92.7549 71.4908 92.5958L77.0908 89.2672C77.8882 88.7934 78.1503 87.7619 77.6754 86.9645C77.1994 86.1693 76.1679 85.9072 75.3705 86.3798Z" fill="#E91D63"/>
<path d="M104.817 71.6988C105.043 60.9457 100.906 57.9699 98.3551 56.5609C98.4693 56.5699 98.5432 56.5755 98.5432 56.5755C98.5533 55.7153 98.5477 53.7519 98.5264 52.9254C97.3896 6.65595 49.8165 12.2347 48.4244 13.4555C47.973 13.6358 47.7188 14.2305 47.6 15.0559C38.1573 14.2036 27.2373 23.0695 27.2373 23.0695C27.1645 23.1188 15.1044 40.3825 20.8903 66.9355C21.6306 69.6347 23.0776 71.7649 24.3175 73.2086C25.778 79.9756 28.5388 87.9567 32.5103 93.7393C43.801 110.169 59.7565 112.562 60.4296 112.655L60.7724 112.702L61.1162 112.665C61.7367 112.598 74.6279 111.071 84.8983 99.4188C88.6548 102.154 98.1714 108.601 106.049 109.887C96.8106 99.1108 104.634 80.4673 104.817 71.6988ZM60.8653 107.051C58.6634 106.633 46.1754 103.738 37.1258 90.5686C33.4623 85.2363 30.9098 77.5967 29.6364 71.3684C29.5983 66.6779 30.1672 58.354 33.7613 49.2697C35.401 45.1257 41.5184 39.7038 46.3322 35.1857C48.9239 33.8719 51.716 32.8964 54.6516 32.3241C58.3084 35.9294 63.1972 39.5795 68.2831 42.9137C77.4425 48.9169 87.1596 53.8337 91.1109 55.4375C91.3215 55.5227 91.5914 55.6011 91.8837 55.6772C92.5624 58.2678 92.9276 60.986 92.9276 63.786C92.9276 65.6329 92.5479 68.2179 91.8904 71.122L87.8204 83.8856C86.7743 86.4067 85.6285 88.7553 84.4368 90.6772C76.0693 104.159 63.2184 106.692 60.8653 107.051Z" fill="#E91D63"/>
</svg>
