<svg width="126" height="140" viewBox="0 0 126 140" fill="none" xmlns="http://www.w3.org/2000/svg">
<path fill-rule="evenodd" clip-rule="evenodd" d="M125.998 3.50304C125.998 1.57012 124.431 0.00317383 122.498 0.00317383H3.50225C1.56932 0.00317383 0.00238037 1.57012 0.00238037 3.50305V122.23C0.00238037 124.163 1.56932 125.73 3.50224 125.73H45.8048C46.7318 125.73 47.6209 126.098 48.277 126.753L60.5279 138.978C61.894 140.341 64.106 140.341 65.4721 138.978L77.723 126.753C78.3791 126.098 79.2682 125.73 80.1952 125.73H122.498C124.431 125.73 125.998 124.163 125.998 122.23V3.50304Z" fill="white"/>
<path d="M112.004 61.273C110.787 61.273 109.754 60.3394 109.652 59.1055C107.751 36.2077 89.7701 18.226 66.8966 16.3487C65.5961 16.2419 64.6283 15.1011 64.7351 13.8006C64.8419 12.5001 65.9798 11.5332 67.2834 11.639C79.3931 12.6329 90.8103 17.9283 99.4322 26.5499C108.053 35.1711 113.355 46.5941 114.361 58.7145C114.469 60.015 113.503 61.1567 112.202 61.2647C112.135 61.2704 112.069 61.273 112.004 61.273Z" fill="#E91D63"/>
<path d="M13.9969 61.273C13.9322 61.273 13.8669 61.2704 13.8013 61.265C12.5007 61.1584 11.5327 60.0176 11.6395 58.7171C12.6333 46.5956 17.9287 35.1718 26.5503 26.5499C35.172 17.9281 46.5957 12.6326 58.7175 11.639C60.0175 11.5308 61.1588 12.5003 61.2654 13.8008C61.3722 15.1014 60.4041 16.2422 59.1036 16.3487C36.2072 18.2258 18.2264 36.2067 16.3494 59.1029C16.248 60.338 15.2142 61.273 13.9969 61.273Z" fill="#E91D63"/>
<path d="M67.0871 114.369C65.8709 114.369 64.8374 113.436 64.7351 112.202C64.6271 110.901 65.5937 109.759 66.8943 109.651C89.7692 107.751 107.751 89.7687 109.652 66.894C109.76 65.5937 110.898 64.6275 112.202 64.7348C113.503 64.8428 114.469 65.9848 114.361 67.2853C113.355 79.3941 108.053 90.8107 99.4319 99.4317C90.811 108.053 79.3943 113.355 67.2856 114.361C67.2189 114.367 67.1528 114.369 67.0871 114.369Z" fill="#E91D63"/>
<path d="M58.9127 114.369C58.8473 114.369 58.7811 114.366 58.7147 114.361C46.5941 113.355 35.1711 108.053 26.5502 99.4316C17.9285 90.81 12.6329 79.3926 11.6393 67.2829C11.5325 65.9822 12.5003 64.8414 13.8008 64.7346C15.1011 64.6304 16.2424 65.5958 16.349 66.8961C18.226 89.7699 36.2079 107.751 59.1058 109.651C60.4063 109.759 61.373 110.901 61.2652 112.201C61.1624 113.436 60.1291 114.369 58.9127 114.369Z" fill="#E91D63"/>
<path d="M20.0933 76.374C19.4246 76.374 18.7604 76.0919 18.2931 75.5428L12.1945 68.3795C11.3486 67.3859 11.4684 65.8945 12.462 65.0486C13.4556 64.2027 14.9468 64.3225 15.7929 65.316L21.8915 72.4793C22.7374 73.4729 22.6176 74.9643 21.624 75.8103C21.1793 76.1888 20.6349 76.374 20.0933 76.374Z" fill="#E91D63"/>
<path d="M112.007 61.3698C111.337 61.3698 110.672 61.0865 110.204 60.5357L104.106 53.3481C103.261 52.3531 103.384 50.8622 104.379 50.0177C105.374 49.1732 106.865 49.2956 107.709 50.2906L113.808 57.4782C114.652 58.4732 114.53 59.9642 113.535 60.8086C113.091 61.1855 112.547 61.3698 112.007 61.3698Z" fill="#E91D63"/>
<path d="M62.9999 48.5865C66.2624 48.5865 68.9071 45.8888 68.9071 42.5611C68.9071 39.2335 66.2624 36.5358 62.9999 36.5358C59.7375 36.5358 57.0927 39.2335 57.0927 42.5611C57.0927 45.8888 59.7375 48.5865 62.9999 48.5865Z" fill="#E91D63"/>
<path d="M77.2862 75.2403L73.0713 57.7504C72.2283 54.2369 69.7596 51.8945 66.9296 51.8945H59.0416C56.2116 51.8945 53.7429 54.2369 52.8999 57.7504L48.6849 75.3184C48.3237 76.8799 48.986 78.5977 50.1903 79.0662C51.3945 79.5347 52.7192 78.6758 53.0805 77.1142L56.4525 63.0599C56.5127 62.7475 56.874 62.8256 56.874 63.1379L56.9944 64.5434C57.1148 65.6365 56.9944 66.8077 56.7535 67.9008L52.2977 86.3276C51.816 88.2796 52.9601 90.2316 54.5256 90.2316H57.1148V103.739C57.1148 105.535 58.1384 107.097 59.5233 107.175C61.0287 107.331 62.2329 105.769 62.2329 103.817V91.0904C62.2329 90.622 62.534 90.1535 62.9555 90.1535C63.3168 90.1535 63.678 90.5439 63.678 91.0904V103.739C63.678 105.535 64.7017 107.097 66.0866 107.175C67.5919 107.331 68.7962 105.769 68.7962 103.817V90.2316H71.4456C73.0111 90.2316 74.0949 88.2796 73.6735 86.3276L69.2177 67.9008C68.9768 66.8077 68.8564 65.6365 68.9768 64.5434L69.0972 63.1379C69.0972 62.8256 69.4585 62.7475 69.5187 63.0599L72.8907 77.1142C73.1917 78.3635 74.0949 79.2223 75.1186 79.2223C75.3594 79.2223 75.6003 79.1443 75.8411 79.0662C77.0454 78.5196 77.7077 76.8019 77.2862 75.2403Z" fill="#E91D63"/>
<path d="M43.0847 43.1103C45.3549 44.713 45.6169 47.9183 44.0452 50.6785C41.7749 54.5962 36.4486 57.8016 36.4486 57.8016C36.4486 57.8016 31.2968 54.5072 29.0266 50.6785C27.4549 48.0074 27.7168 44.713 29.9871 43.1103C33.3051 40.7952 36.3612 45.2472 36.3612 45.2472C36.3612 45.2472 39.7666 40.8843 43.0847 43.1103Z" fill="#E91D63"/>
<path d="M43.4257 31.019C43.9302 31.3888 43.9884 32.1285 43.6392 32.7655C43.1347 33.6696 41.951 34.4093 41.951 34.4093C41.951 34.4093 40.8062 33.649 40.3017 32.7655C39.9524 32.1491 40.0106 31.3888 40.5151 31.019C41.2525 30.4847 41.9316 31.5121 41.9316 31.5121C41.9316 31.5121 42.6884 30.5053 43.4257 31.019Z" fill="#E91D63"/>
<path d="M56.9692 24.2383C58.4827 25.3479 58.6574 27.567 57.6096 29.4779C56.0961 32.1902 52.5452 34.4093 52.5452 34.4093C52.5452 34.4093 49.1107 32.1285 47.5972 29.4779C46.5494 27.6286 46.724 25.3479 48.2375 24.2383C50.4495 22.6356 52.487 25.7177 52.487 25.7177C52.487 25.7177 54.7572 22.6973 56.9692 24.2383Z" fill="#E91D63"/>
<path d="M74.3438 24.033C75.1636 24.6494 75.2582 25.8823 74.6906 26.9439C73.8708 28.4507 71.9474 29.6835 71.9474 29.6835C71.9474 29.6835 70.0871 28.4165 69.2673 26.9439C68.6997 25.9165 68.7943 24.6494 69.6141 24.033C70.8123 23.1426 71.9159 24.8549 71.9159 24.8549C71.9159 24.8549 73.1456 23.1769 74.3438 24.033Z" fill="#E91D63"/>
<path d="M87.032 32.9296C88.4825 33.9159 88.6498 35.8884 87.6457 37.587C86.1952 39.9979 82.7923 41.9705 82.7923 41.9705C82.7923 41.9705 79.5009 39.9431 78.0505 37.587C77.0463 35.9432 77.2137 33.9159 78.6641 32.9296C80.784 31.505 82.7365 34.2446 82.7365 34.2446C82.7365 34.2446 84.9122 31.5598 87.032 32.9296Z" fill="#E91D63"/>
<path d="M99.9023 60.0408C102.046 61.4463 102.294 64.2572 100.809 66.6776C98.6653 70.1132 93.6349 72.924 93.6349 72.924C93.6349 72.924 88.7693 70.0351 86.6252 66.6776C85.1408 64.3352 85.3882 61.4463 87.5323 60.0408C90.6661 58.0107 93.5524 61.9147 93.5524 61.9147C93.5524 61.9147 96.7686 58.0888 99.9023 60.0408Z" fill="#E91D63"/>
<path d="M39.2645 64.0066C40.2105 64.7216 40.3196 66.1517 39.6647 67.3832C38.7188 69.1311 36.4995 70.5612 36.4995 70.5612C36.4995 70.5612 34.3529 69.0914 33.407 67.3832C32.7521 66.1914 32.8612 64.7216 33.8072 64.0066C35.1897 62.9737 36.4631 64.96 36.4631 64.96C36.4631 64.96 37.882 63.0134 39.2645 64.0066Z" fill="#E91D63"/>
<path d="M27.5401 57.9762C28.1077 58.3954 28.1732 59.2337 27.7803 59.9556C27.2127 60.9802 25.8811 61.8186 25.8811 61.8186C25.8811 61.8186 24.5932 60.957 24.0256 59.9556C23.6327 59.257 23.6982 58.3954 24.2657 57.9762C25.0953 57.3707 25.8593 58.5351 25.8593 58.5351C25.8593 58.5351 26.7106 57.394 27.5401 57.9762Z" fill="#E91D63"/>
<path d="M99.4989 45.2578C100.193 45.7756 100.273 46.8112 99.7924 47.703C99.0987 48.9687 97.4713 50.0043 97.4713 50.0043C97.4713 50.0043 95.8971 48.9399 95.2034 47.703C94.7232 46.84 94.8032 45.7756 95.4969 45.2578C96.5108 44.5099 97.4446 45.9482 97.4446 45.9482C97.4446 45.9482 98.4851 44.5387 99.4989 45.2578Z" fill="#E91D63"/>
<path d="M87.4671 49.8293C88.413 50.5444 88.5221 51.9745 87.8673 53.2059C86.9213 54.9538 84.702 56.3839 84.702 56.3839C84.702 56.3839 82.5555 54.9141 81.6095 53.2059C80.9547 52.0142 81.0638 50.5444 82.0097 49.8293C83.3923 48.7965 84.6656 50.7827 84.6656 50.7827C84.6656 50.7827 86.0845 48.8362 87.4671 49.8293Z" fill="#E91D63"/>
</svg>
