<svg width="126" height="141" viewBox="0 0 126 141" fill="none" xmlns="http://www.w3.org/2000/svg">
<path fill-rule="evenodd" clip-rule="evenodd" d="M126 3.50049C126 1.56749 124.433 0.000488281 122.5 0.000488281H3.5C1.567 0.000488281 0 1.56749 0 3.50049V122.232C0 124.165 1.567 125.732 3.5 125.732H45.8042C46.7312 125.732 47.6203 126.1 48.2765 126.755L60.5278 138.98C61.894 140.343 64.106 140.343 65.4722 138.98L77.7235 126.755C78.3797 126.1 79.2688 125.732 80.1958 125.732H122.5C124.433 125.732 126 124.165 126 122.232V3.50049Z" fill="white"/>
<path d="M99.6486 42.9007C99.6486 42.9007 100.6 45.9177 101.832 47.2687C103.063 48.6193 104.091 49.2397 104.82 48.5747C105.55 47.9105 105.704 46.2117 104.474 44.8603C103.242 43.5101 99.6486 42.9007 99.6486 42.9007Z" fill="#E91D63"/>
<path d="M96.6103 32.3167C98.3971 31.9332 99.4504 31.3577 99.243 30.3924C99.0371 29.4275 97.647 28.4387 95.8598 28.8211C94.0729 29.2054 91.7368 32.0028 91.7368 32.0028C91.7368 32.0028 94.8227 32.7006 96.6103 32.3167Z" fill="#E91D63"/>
<path d="M103.713 35.9445C101.715 35.3551 97.8515 36.8848 97.8515 36.8848C97.8515 36.8848 100.562 39.2622 102.56 39.8524C104.559 40.4408 105.928 40.4382 106.245 39.3591C106.564 38.2792 105.711 36.5336 103.713 35.9445Z" fill="#E91D63"/>
<path fill-rule="evenodd" clip-rule="evenodd" d="M78.3027 46.4498C79.47 47.6847 81.0007 48.6019 82.7796 49.0162C85.9722 49.7597 89.1636 48.6967 91.2821 46.494C92.9037 47.1368 94.3417 48.0229 95.5737 49.103C98.2835 51.4637 100.01 54.6027 101.154 57.9243C103.426 64.5741 103.513 72.1777 103.526 77.4111H103.526C103.526 78.7913 102.401 79.9102 101.012 79.9102C99.625 79.9102 98.4996 78.7913 98.4996 77.4111C98.502 73.5703 98.4173 68.579 97.5436 63.9614C96.9835 60.9427 96.0696 58.1453 94.7491 55.9134C94.7626 55.9903 94.7758 56.0656 94.7889 56.1428C94.9729 56.5872 95.0958 57.0626 95.1453 57.5603C95.1616 57.7249 95.1705 57.8917 95.1705 58.06C95.1705 60.8466 92.8986 63.1047 90.0963 63.1047C88.4804 63.1047 87.0443 62.3513 86.1153 61.1817C86.8974 62.8233 88.5743 63.9614 90.5231 63.9614C93.0408 63.9614 95.1117 62.0654 95.3742 59.6313C96.4291 66.0604 97.568 73.8535 97.568 77.5379C97.568 84.401 93.0045 110.735 93.0045 110.735C93.0045 112.858 91.2738 114.579 89.1387 114.579C87.0044 114.579 85.273 112.858 85.273 110.735L85.2772 84.3691H84.1956L84.2002 110.735C84.2002 112.858 82.4688 114.579 80.3345 114.579C78.1994 114.579 76.4687 112.858 76.4687 110.735C76.4687 110.735 71.9056 84.401 71.9056 77.5379C71.9056 73.8539 73.0445 66.0619 74.099 59.6328C74.3623 62.0661 76.4328 63.9614 78.9502 63.9614C80.8993 63.9614 82.5766 62.8225 83.3587 61.1806C82.4293 62.3509 80.9932 63.1047 79.3766 63.1047C76.5747 63.1047 74.3028 60.8466 74.3028 58.06C74.3028 57.8909 74.312 57.7241 74.3283 57.5592C74.3774 57.0618 74.5007 56.586 74.6847 56.1417C74.689 56.1165 74.6933 56.0915 74.6975 56.0666C74.7062 56.0154 74.7149 55.9646 74.7237 55.9134C74.0793 56.9984 73.5284 58.2157 73.0727 59.5425C71.1413 65.1045 70.9597 72.2977 70.9728 77.4107C70.9728 78.7909 69.8475 79.909 68.4601 79.909C67.0719 79.909 65.9473 78.7909 65.9473 77.4107C65.95 73.4918 66.0154 68.2204 66.9895 63.0397C67.978 57.8774 69.8367 52.6679 73.8996 49.103C75.1596 47.9979 76.6353 47.0959 78.3027 46.4498Z" fill="#E91D63"/>
<path d="M92.6851 42.1173C93.6975 37.7698 90.9939 33.4246 86.6464 32.4122C82.2988 31.3997 77.9537 34.1034 76.9413 38.4509C75.9288 42.7984 78.6324 47.1436 82.98 48.156C87.3275 49.1685 91.6726 46.4648 92.6851 42.1173Z" fill="#E91D63"/>
<path d="M37.8144 41.2507C41.7749 41.0189 44.7979 37.6201 44.5665 33.6593C44.3343 29.6985 40.9355 26.6755 36.975 26.9073C33.0139 27.1391 29.9912 30.5376 30.223 34.4984C30.4545 38.4595 33.853 41.4825 37.8144 41.2507ZM38.5363 37.1651C40.7018 36.6175 42.1402 34.9198 42.4572 36.1734C42.774 37.4272 41.2759 38.8873 39.1104 39.4349C36.9447 39.9825 34.9322 39.41 34.6155 38.1565C34.2984 36.9029 36.3709 37.7127 38.5363 37.1651Z" fill="#E91D63"/>
<path d="M46.9541 28.0386C46.7458 28.1675 46.7047 28.4534 46.8683 28.6358C46.9906 28.7722 47.1908 28.8061 47.3512 28.7176L61.4233 20.9522C61.8499 20.7168 61.9346 20.1395 61.5936 19.7914L61.5119 19.708C61.2707 19.4618 60.891 19.4157 60.5979 19.5971L46.9541 28.0386Z" fill="#E91D63"/>
<path d="M44.0561 26.2296C43.9446 26.4476 44.0573 26.7135 44.2916 26.7849C44.4667 26.8382 44.6554 26.7636 44.7468 26.6051L52.7725 12.6791C53.0158 12.257 52.7898 11.7193 52.3181 11.5977L52.2047 11.5684C51.8708 11.4823 51.5218 11.6393 51.3647 11.9463L44.0561 26.2296Z" fill="#E91D63"/>
<path d="M48.885 31.8937C48.6411 31.9145 48.4753 32.1508 48.5387 32.3872C48.5862 32.564 48.7494 32.6847 48.9323 32.6782L64.9951 32.1108C65.4821 32.0936 65.8185 31.6169 65.6716 31.1523L65.6362 31.0402C65.5323 30.7116 65.2144 30.4989 64.8709 30.5282L48.885 31.8937Z" fill="#E91D63"/>
<path d="M54.7402 72.678L49.6227 51.3512C48.5992 47.0668 45.6018 44.2106 42.1658 44.2106H32.5887C29.1527 44.2106 26.1553 47.0668 25.1318 51.3512L20.0142 72.7732C19.5756 74.6774 20.3798 76.772 21.8419 77.3433C23.3041 77.9145 24.9124 76.8672 25.3511 74.9631L29.4451 57.8254C29.5182 57.4446 29.9568 57.5398 29.9568 57.9207L30.1031 59.6344C30.2493 60.9673 30.103 62.3955 29.8106 63.7284L24.4007 86.1977C23.8158 88.5779 25.2049 90.9582 27.1057 90.9582H30.2493V107.429C30.2493 109.619 31.4921 111.523 33.1736 111.618C35.0012 111.809 36.4634 109.905 36.4634 107.525V92.0055C36.4634 91.4342 36.8289 90.8629 37.3407 90.8629C37.7793 90.8629 38.218 91.339 38.218 92.0055V107.429C38.218 109.619 39.4608 111.523 41.1423 111.618C42.9699 111.809 44.4321 109.905 44.4321 107.525V90.9582H47.6488C49.5496 90.9582 50.8655 88.5779 50.3538 86.1977L44.9438 63.7284C44.6514 62.3955 44.5052 60.9673 44.6514 59.6344L44.7976 57.9207C44.7976 57.5398 45.2363 57.4446 45.3094 57.8254L49.4034 74.9631C49.7689 76.4864 50.8655 77.5337 52.1083 77.5337C52.4008 77.5337 52.6932 77.4385 52.9856 77.3433C54.4478 76.6768 55.252 74.5822 54.7402 72.678Z" fill="#E91D63"/>
</svg>
