<svg width="126" height="141" viewBox="0 0 126 141" fill="none" xmlns="http://www.w3.org/2000/svg">
<path fill-rule="evenodd" clip-rule="evenodd" d="M126 3.50049C126 1.56749 124.433 0.000488281 122.5 0.000488281H3.5C1.567 0.000488281 0 1.56749 0 3.50049V122.232C0 124.165 1.567 125.732 3.5 125.732H45.8042C46.7312 125.732 47.6203 126.1 48.2765 126.755L60.5278 138.98C61.894 140.343 64.106 140.343 65.4722 138.98L77.7235 126.755C78.3797 126.1 79.2688 125.732 80.1958 125.732H122.5C124.433 125.732 126 124.165 126 122.232V3.50049Z" fill="white"/>
<path d="M64.6471 53.1176C67.9824 53.1176 70.6863 50.4138 70.6863 47.0784C70.6863 43.743 67.9824 41.0392 64.6471 41.0392C61.3117 41.0392 58.6078 43.743 58.6078 47.0784C58.6078 50.4138 61.3117 53.1176 64.6471 53.1176Z" fill="#E91D63"/>
<path d="M91.0392 109.11L79.7195 89.862C82.6915 88.5974 83.2402 87.5852 83.2402 87.5852C83.2402 87.5852 75.0072 74.2548 69.4159 72.2753C68.843 70.0912 68.3578 67.8337 68.2486 66.1433C68.1273 64.285 68.2001 62.0688 68.3279 60.0811L77.7151 64.0354L76.5804 74.6237C76.4284 76.0507 77.479 77.3272 78.9291 77.4777C79.0654 77.4915 79.2044 77.4952 79.3378 77.4887C80.6153 77.4282 81.6921 76.4582 81.8311 75.1679L83.1683 62.6754C83.2905 61.5439 82.6476 60.4665 81.5839 60.0177L68.704 54.5914C67.9659 54.2803 67.1652 54.3262 66.4981 54.6502L57.4999 54.5804L53.2542 28.8502C53.0331 27.4957 51.7342 26.5798 50.3588 26.7964C48.9815 27.0167 48.0474 28.2913 48.2704 29.6449L53.0219 58.4577C53.0322 58.5173 53.0443 58.5742 53.0611 58.6339C52.9696 61.91 53.006 66.4893 53.6788 69.7847C54.3283 72.9654 55.3855 75.8764 56.3681 78.1504L43.2353 87.0814C43.2353 87.0814 43.8726 87.8752 45.2107 88.9085L45.1538 88.9571C44.2785 89.706 43.8017 90.8081 43.8568 91.9479L44.8515 112.162C44.955 114.216 46.7298 115.801 48.8182 115.701C50.9084 115.603 52.518 113.856 52.4182 111.801L51.5102 93.3905L52.5217 92.526C55.7242 93.4465 59.802 93.9246 64.8334 93.2822C67.74 92.9124 70.1932 92.4948 72.2629 92.0553L84.4859 112.837C85.2165 114.087 86.5761 114.76 87.9487 114.694C88.531 114.665 89.1188 114.504 89.6582 114.197C91.4675 113.168 92.0871 110.887 91.0392 109.11Z" fill="#E91D63"/>
<path d="M88.112 54.6175C87.9037 54.7464 87.8625 55.0324 88.0261 55.2147C88.1484 55.3511 88.3487 55.385 88.509 55.2965L102.581 47.5311C103.008 47.2957 103.092 46.7184 102.751 46.3703L102.67 46.287C102.429 46.0407 102.049 45.9947 101.756 46.176L88.112 54.6175Z" fill="#E91D63"/>
<path d="M40.4945 69.5252C40.7362 69.4851 40.8828 69.2363 40.8008 69.0054C40.7395 68.8328 40.5672 68.7254 40.3852 68.7463L24.4179 70.5821C23.9338 70.6377 23.6361 71.1395 23.8192 71.5911L23.8631 71.6992C23.9927 72.0186 24.3264 72.2056 24.6664 72.1492L40.4945 69.5252Z" fill="#E91D63"/>
<path d="M85.214 52.8085C85.1025 53.0265 85.2152 53.2924 85.4495 53.3638C85.6246 53.4171 85.8134 53.3426 85.9048 53.184L93.9305 39.258C94.1737 38.8359 93.9478 38.2982 93.4761 38.1766L93.3626 38.1473C93.0287 38.0612 92.6797 38.2182 92.5226 38.5252L85.214 52.8085Z" fill="#E91D63"/>
<path d="M42.4877 72.2997C42.6737 72.1404 42.6705 71.8517 42.4809 71.6967C42.3392 71.5808 42.1363 71.578 41.9914 71.69L29.2761 81.5218C28.8907 81.8198 28.8954 82.403 29.2855 82.6948L29.3793 82.765C29.6555 82.9715 30.0379 82.9589 30.2999 82.7346L42.4877 72.2997Z" fill="#E91D63"/>
<path d="M90.0428 58.4726C89.7989 58.4934 89.6332 58.7297 89.6966 58.9661C89.744 59.1429 89.9072 59.2636 90.0901 59.2572L106.153 58.6897C106.64 58.6725 106.976 58.1958 106.829 57.7312L106.794 57.6191C106.69 57.2905 106.372 57.0778 106.029 57.1071L90.0428 58.4726Z" fill="#E91D63"/>
<path d="M40.1734 65.2256C40.4069 65.299 40.65 65.1435 40.6812 64.9007C40.7045 64.7191 40.5994 64.5455 40.4277 64.4819L25.3541 58.9032C24.8972 58.7341 24.4048 59.0472 24.3641 59.5328L24.3543 59.6499C24.3256 59.9934 24.5388 60.311 24.8676 60.4143L40.1734 65.2256Z" fill="#E91D63"/>
<path d="M32.3154 26.3994C34.8083 28.1592 35.0959 31.6788 33.3701 34.7096C30.8773 39.0114 25.0287 42.5311 25.0287 42.5311C25.0287 42.5311 19.3719 38.9137 16.8791 34.7096C15.1533 31.7766 15.4409 28.1592 17.9338 26.3994C21.5771 23.8574 24.9329 28.7458 24.9329 28.7458C24.9329 28.7458 28.6721 23.9552 32.3154 26.3994Z" fill="#E91D63"/>
<path d="M26.2157 35L75.6275 19.6274" stroke="#E91D63" stroke-width="2.19608"/>
<path d="M82.8252 12.1248C85.3181 13.8847 85.6057 17.4043 83.8799 20.4351C81.3871 24.7369 75.5385 28.2565 75.5385 28.2565C75.5385 28.2565 69.8817 24.6391 67.3889 20.4351C65.6631 17.5021 65.9507 13.8847 68.4435 12.1248C72.0869 9.58286 75.4426 14.4713 75.4426 14.4713C75.4426 14.4713 79.1819 9.68063 82.8252 12.1248Z" fill="#E91D63"/>
</svg>
