<svg width="126" height="140" viewBox="0 0 126 140" fill="none" xmlns="http://www.w3.org/2000/svg">
<path fill-rule="evenodd" clip-rule="evenodd" d="M125.998 3.50255C125.998 1.56963 124.431 0.00268555 122.498 0.00268555H3.50225C1.56932 0.00268555 0.00238037 1.56963 0.00238037 3.50256V122.23C0.00238037 124.163 1.56932 125.73 3.50224 125.73H45.8048C46.7318 125.73 47.6209 126.098 48.277 126.752L60.5279 138.977C61.894 140.34 64.106 140.34 65.4721 138.977L77.723 126.752C78.3791 126.098 79.2682 125.73 80.1952 125.73H122.498C124.431 125.73 125.998 124.163 125.998 122.23V3.50255Z" fill="white"/>
<path d="M39.4801 86.1933C43.9131 86.1933 47.5068 82.5997 47.5068 78.1666C47.5068 73.7336 43.9131 70.14 39.4801 70.14C35.0471 70.14 31.4534 73.7336 31.4534 78.1666C31.4534 82.5997 35.0471 86.1933 39.4801 86.1933Z" fill="#E91D63"/>
<path d="M48.3467 67.4334C52.7797 67.4334 56.3734 63.8397 56.3734 59.4067C56.3734 54.9737 52.7797 51.38 48.3467 51.38C43.9137 51.38 40.3201 54.9737 40.3201 59.4067C40.3201 63.8397 43.9137 67.4334 48.3467 67.4334Z" fill="#E91D63"/>
<path d="M98.3735 75.74L66.7335 63.42C64.4935 62.4867 61.8801 63.5133 60.7601 65.66L47.6001 91.3267H26.6001V63.6067C26.6001 62.58 25.7601 61.8333 24.8268 61.8333H20.4401C19.4135 61.8333 18.6668 62.6733 18.6668 63.6067V111.207C18.6668 112.233 19.5068 112.98 20.4401 112.98H24.8268C25.8535 112.98 26.6001 112.14 26.6001 111.207V99.3533H99.4001V111.207C99.4001 112.233 100.24 112.98 101.173 112.98H105.56C106.587 112.98 107.333 112.14 107.333 111.207V88.9C107.333 83.1133 103.787 77.8867 98.3735 75.74Z" fill="#E91D63"/>
<path d="M63.8852 30.4733C64.3706 30.8093 64.4266 31.4813 64.0906 32.0599C63.6052 32.8813 62.4666 33.5533 62.4666 33.5533C62.4666 33.5533 61.3652 32.8626 60.8799 32.0599C60.5439 31.4999 60.5999 30.8093 61.0852 30.4733C61.7946 29.9879 62.4479 30.9213 62.4479 30.9213C62.4479 30.9213 63.1759 30.0066 63.8852 30.4733Z" fill="#E91D63"/>
<path d="M79.0519 57.3066C79.5372 57.6426 79.5932 58.3146 79.2572 58.8932C78.7719 59.7146 77.6332 60.3866 77.6332 60.3866C77.6332 60.3866 76.5319 59.6959 76.0465 58.8932C75.7105 58.3332 75.7665 57.6426 76.2519 57.3066C76.9612 56.8212 77.6145 57.7546 77.6145 57.7546C77.6145 57.7546 78.3425 56.8399 79.0519 57.3066Z" fill="#E91D63"/>
<path d="M101.219 49.1399C101.704 49.4759 101.76 50.1479 101.424 50.7266C100.939 51.5479 99.7999 52.2199 99.7999 52.2199C99.7999 52.2199 98.6985 51.5293 98.2132 50.7266C97.8772 50.1666 97.9332 49.4759 98.4185 49.1399C99.1279 48.6546 99.7812 49.5879 99.7812 49.5879C99.7812 49.5879 100.509 48.6733 101.219 49.1399Z" fill="#E91D63"/>
<path d="M38.2185 42.1399C38.7039 42.4759 38.7599 43.1479 38.4239 43.7266C37.9385 44.5479 36.7999 45.2199 36.7999 45.2199C36.7999 45.2199 35.6985 44.5293 35.2132 43.7266C34.8772 43.1666 34.9332 42.4759 35.4185 42.1399C36.1279 41.6546 36.7812 42.5879 36.7812 42.5879C36.7812 42.5879 37.5092 41.6733 38.2185 42.1399Z" fill="#E91D63"/>
<path d="M68.2549 41.3909C70.2788 42.7301 70.5124 45.4085 69.1112 47.7148C67.0873 50.9884 62.3389 53.6667 62.3389 53.6667C62.3389 53.6667 57.7461 50.914 55.7222 47.7148C54.3211 45.4829 54.5546 42.7301 56.5785 41.3909C59.5365 39.4566 62.261 43.1765 62.261 43.1765C62.261 43.1765 65.2969 39.531 68.2549 41.3909Z" fill="#E91D63"/>
<path d="M52.4586 36.5215C53.8598 37.3737 54.0214 39.0781 53.0514 40.5458C51.6502 42.6289 48.3629 44.3334 48.3629 44.3334C48.3629 44.3334 45.1833 42.5816 43.7821 40.5458C42.8121 39.1254 42.9737 37.3737 44.3749 36.5215C46.4228 35.2905 48.309 37.6578 48.309 37.6578C48.309 37.6578 50.4107 35.3379 52.4586 36.5215Z" fill="#E91D63"/>
<path d="M94.3568 24.4339C98.2954 27.0845 98.7434 32.5352 96.0741 37.0152C92.1914 43.5112 83.1381 48.9432 83.1381 48.9432C83.1381 48.9432 74.4021 43.5112 70.5194 37.0152C67.8501 32.5352 68.2981 27.0845 72.2368 24.4339C77.9301 20.6072 83.1568 28.0552 83.1568 28.0552C83.1568 28.0552 88.6821 20.5885 94.3568 24.4339Z" fill="#E91D63"/>
<path d="M99.9306 58.7626C101.48 59.808 101.667 61.9546 100.603 63.728C99.0719 66.304 95.4879 68.4506 95.4879 68.4506C95.4879 68.4506 92.0346 66.304 90.5039 63.7466C89.4399 61.9733 89.6266 59.8266 91.1759 58.7813C93.4159 57.2693 95.4879 60.2186 95.4879 60.2186C95.4879 60.2186 97.6906 57.2506 99.9306 58.7626Z" fill="#E91D63"/>
<path d="M58.5273 16.9411C60.7113 18.4158 60.9727 21.4398 59.4793 23.9411C57.3327 27.5438 52.2927 30.5678 52.2927 30.5678C52.2927 30.5678 47.4393 27.5438 45.274 23.9411C43.7807 21.4584 44.042 18.4158 46.226 16.9411C49.3807 14.8131 52.2927 18.9571 52.2927 18.9571C52.2927 18.9571 55.3727 14.8131 58.5273 16.9411Z" fill="#E91D63"/>
</svg>
