<svg width="126" height="140" viewBox="0 0 126 140" fill="none" xmlns="http://www.w3.org/2000/svg">
<path fill-rule="evenodd" clip-rule="evenodd" d="M125.998 3.50255C125.998 1.56963 124.431 0.00268555 122.498 0.00268555H3.50225C1.56932 0.00268555 0.00238037 1.56963 0.00238037 3.50256V122.23C0.00238037 124.163 1.56932 125.73 3.50224 125.73H45.8048C46.7318 125.73 47.6209 126.098 48.277 126.752L60.5279 138.977C61.894 140.34 64.106 140.34 65.4721 138.977L77.723 126.752C78.3791 126.098 79.2682 125.73 80.1952 125.73H122.498C124.431 125.73 125.998 124.163 125.998 122.23V3.50255Z" fill="white"/>
<path d="M39.43 62.2401C40.6602 62.2401 41.8627 61.8753 42.8856 61.1918C43.9085 60.5083 44.7057 59.5369 45.1765 58.4003C45.6473 57.2638 45.7704 56.0132 45.5304 54.8066C45.2904 53.6 44.698 52.4917 43.8282 51.6218C42.9583 50.752 41.85 50.1596 40.6434 49.9196C39.4369 49.6796 38.1862 49.8027 37.0497 50.2735C35.9131 50.7443 34.9417 51.5415 34.2582 52.5644C33.5748 53.5873 33.21 54.7899 33.21 56.0201C33.21 57.6697 33.8653 59.2518 35.0318 60.4183C36.1982 61.5847 37.7803 62.2401 39.43 62.2401Z" fill="#E91D63"/>
<path d="M60.47 77.7401C58.35 77.8601 54.91 76.9601 50.63 72.1001C48.8779 70.087 47.3428 67.8949 46.05 65.5601C45.8743 65.2356 45.6199 64.9605 45.31 64.7601C45.1529 64.5773 44.9555 64.4334 44.7334 64.3397C44.5113 64.246 44.2706 64.2051 44.03 64.2201H34.85C34.6646 64.1895 34.4754 64.1895 34.29 64.2201C33.7007 64.3041 33.1575 64.5862 32.75 65.0201C30.7137 67.3541 28.7978 69.7906 27.01 72.3201C25.506 74.433 24.1686 76.6597 23.01 78.9801C21.8102 81.1631 21.1261 83.5918 21.01 86.0801C20.9782 86.4447 21.0225 86.812 21.1402 87.1586C21.2579 87.5052 21.4464 87.8236 21.6938 88.0934C21.9411 88.3633 22.2418 88.5787 22.5769 88.7261C22.9119 88.8735 23.274 88.9497 23.64 88.9497C24.006 88.9497 24.3681 88.8735 24.7031 88.7261C25.0382 88.5787 25.3389 88.3633 25.5862 88.0934C25.8336 87.8236 26.0221 87.5052 26.1398 87.1586C26.2575 86.812 26.3018 86.4447 26.27 86.0801C26.27 84.7801 26.97 81.6601 31.35 75.3801C31.9477 74.4688 32.6165 73.6061 33.35 72.8001V108.02C33.3167 108.42 33.3667 108.822 33.4969 109.202C33.627 109.581 33.8344 109.929 34.106 110.224C34.3776 110.52 34.7075 110.755 35.0748 110.916C35.4421 111.077 35.8389 111.161 36.24 111.161C36.6411 111.161 37.0379 111.077 37.4052 110.916C37.7725 110.755 38.1024 110.52 38.374 110.224C38.6456 109.929 38.853 109.581 38.9832 109.202C39.1133 108.822 39.1633 108.42 39.13 108.02V86.0201H39.77V108.02C39.77 108.816 40.0861 109.579 40.6487 110.141C41.2113 110.704 41.9744 111.02 42.77 111.02C43.5656 111.02 44.3287 110.704 44.8913 110.141C45.4539 109.579 45.77 108.816 45.77 108.02V74.4401L46.67 75.5001C48.402 77.5261 50.4238 79.2851 52.67 80.7201C54.8928 82.1481 57.4685 82.9305 60.11 82.9801H60.75C61.447 82.9388 62.0992 82.6231 62.564 82.1021C63.0288 81.5811 63.2682 80.8972 63.23 80.2001C63.1887 79.5084 62.8752 78.8613 62.3579 78.4002C61.8407 77.9392 61.1618 77.7018 60.47 77.7401Z" fill="#E91D63"/>
<path d="M81.6301 54.9801C81.6303 56.2184 81.9989 57.4288 82.6891 58.457C83.3793 59.4852 84.3598 60.2848 85.5059 60.754C86.6519 61.2232 87.9116 61.3408 89.1247 61.0918C90.3378 60.8428 91.4494 60.2385 92.318 59.3558C93.1865 58.4731 93.7728 57.3519 94.0022 56.135C94.2315 54.918 94.0936 53.6603 93.6059 52.522C93.1183 51.3837 92.3029 50.4162 91.2637 49.7427C90.2245 49.0692 89.0083 48.7202 87.7701 48.7401C86.1326 48.7663 84.571 49.4353 83.4223 50.6027C82.2736 51.7701 81.6299 53.3423 81.6301 54.9801Z" fill="#E91D63"/>
<path d="M104.49 77.8201C103.323 75.5106 101.986 73.2911 100.49 71.1801C98.6866 68.659 96.7505 66.2356 94.6899 63.9201C94.2766 63.5009 93.7341 63.2332 93.1499 63.1601C92.9578 63.1297 92.7621 63.1297 92.5699 63.1601H83.4099C83.1679 63.149 82.9266 63.1938 82.7047 63.2909C82.4827 63.388 82.2861 63.5349 82.1299 63.7201C81.8246 63.9367 81.5773 64.2252 81.4099 64.5601C80.1296 66.8991 78.608 69.0978 76.8699 71.1201C72.5499 76.0601 69.1299 76.9801 67.0099 76.9801C66.6494 76.9367 66.2837 76.9681 65.9358 77.0725C65.588 77.1769 65.2654 77.3519 64.9883 77.5866C64.7111 77.8213 64.4854 78.1107 64.3252 78.4366C64.165 78.7625 64.0737 79.118 64.0572 79.4808C64.0406 79.8436 64.0991 80.2059 64.229 80.5451C64.3588 80.8843 64.5573 81.193 64.8119 81.452C65.0665 81.711 65.3718 81.9146 65.7087 82.0502C66.0456 82.1858 66.4069 82.2505 66.7699 82.2401H67.3899C70.0768 82.1701 72.6898 81.3453 74.9299 79.8601C77.1819 78.4169 79.2045 76.6438 80.9299 74.6001C81.2529 74.2652 81.5472 73.904 81.8099 73.5201V78.6401L77.5899 96.8401H81.9499V107.12C81.9499 107.916 82.266 108.679 82.8286 109.241C83.3912 109.804 84.1543 110.12 84.9499 110.12C85.7456 110.12 86.5087 109.804 87.0713 109.241C87.6339 108.679 87.9499 107.916 87.9499 107.12V96.8201H88.7099V107.12C88.7279 107.504 88.8213 107.88 88.9849 108.227C89.1485 108.575 89.379 108.887 89.6633 109.145C89.9475 109.403 90.2799 109.603 90.6414 109.732C91.0029 109.862 91.3864 109.919 91.7699 109.9C92.5236 109.864 93.2352 109.542 93.7593 109C94.2835 108.457 94.5806 107.735 94.5899 106.98V96.7001H98.9299L94.3499 78.2601V71.8201C94.7899 72.6001 95.6099 73.4401 96.3499 74.3401C100.81 80.6001 101.49 83.7401 101.51 85.0401C101.478 85.4047 101.522 85.772 101.64 86.1186C101.758 86.4652 101.946 86.7835 102.194 87.0534C102.441 87.3232 102.742 87.5387 103.077 87.6861C103.412 87.8335 103.774 87.9096 104.14 87.9096C104.506 87.9096 104.868 87.8335 105.203 87.6861C105.538 87.5387 105.839 87.3232 106.086 87.0534C106.333 86.7835 106.522 86.4652 106.64 86.1186C106.757 85.772 106.802 85.4047 106.77 85.0401C106.582 82.4888 105.801 80.0166 104.49 77.8201Z" fill="#E91D63"/>
<path d="M78.69 43.1001C81.7932 39.9316 84.1147 36.083 85.47 31.8601C86.1301 29.7058 86.3278 27.4362 86.05 25.2001C85.6934 22.9667 84.7004 20.8835 83.19 19.2001C81.4156 17.0732 78.9431 15.646 76.2139 15.1734C73.4846 14.7009 70.6762 15.2136 68.29 16.6201C66.4041 17.7457 64.8458 19.3454 63.77 21.2601V21.1401C62.7068 19.2674 61.1684 17.7082 59.31 16.6201C57.4918 15.551 55.4192 14.9914 53.31 15.0001C52.7138 14.997 52.1184 15.0439 51.53 15.1401C49.9261 15.3691 48.3871 15.928 47.0102 16.7817C45.6332 17.6354 44.4482 18.7653 43.53 20.1001C42.5372 21.5218 41.8556 23.137 41.53 24.8401C41.1502 26.6471 41.1502 28.5132 41.53 30.3201C41.9891 32.3462 42.7439 34.2938 43.77 36.1001C44.732 37.8771 45.8712 39.5522 47.17 41.1001C51.1627 45.681 55.6124 49.8426 60.45 53.5201L63.35 55.9001C63.4476 55.9913 63.5765 56.0414 63.71 56.0401C63.8302 56.0375 63.9475 56.0029 64.05 55.9401C69.2441 52.0322 74.1378 47.7401 78.69 43.1001Z" fill="#E91D63"/>
</svg>
