<svg width="126" height="141" viewBox="0 0 126 141" fill="none" xmlns="http://www.w3.org/2000/svg">
<path fill-rule="evenodd" clip-rule="evenodd" d="M126 3.5C126 1.567 124.433 0 122.5 0H3.5C1.567 0 0 1.567 0 3.5V122.232C0 124.165 1.567 125.732 3.5 125.732H45.8042C46.7312 125.732 47.6203 126.1 48.2765 126.754L60.5278 138.98C61.894 140.343 64.106 140.343 65.4722 138.98L77.7235 126.754C78.3797 126.1 79.2688 125.732 80.1958 125.732H122.5C124.433 125.732 126 124.165 126 122.232V3.5Z" fill="white"/>
<g clip-path="url(#clip0)">
<path d="M29.1155 87.0217C33.5975 87.0217 37.2309 83.3883 37.2309 78.9062C37.2309 74.4242 33.5975 70.7907 29.1155 70.7907C24.6334 70.7907 21 74.4242 21 78.9062C21 83.3883 24.6334 87.0217 29.1155 87.0217Z" fill="#E91D63"/>
<path d="M38.9155 67.4217C43.3975 67.4217 47.0309 63.7883 47.0309 59.3062C47.0309 54.8242 43.3975 51.1907 38.9155 51.1907C34.4334 51.1907 30.8 54.8242 30.8 59.3062C30.8 63.7883 34.4334 67.4217 38.9155 67.4217Z" fill="#E91D63"/>
<path d="M91.7886 73.9601L59.7985 61.5038C57.5337 60.5602 54.8915 61.5982 53.7591 63.7686L40.4535 89.7192H19.2211V61.6926C19.2211 60.6545 18.3718 59.8996 17.4282 59.8996H12.993C11.9549 59.8996 11.2 60.7489 11.2 61.6926V109.819C11.2 110.857 12.0493 111.612 12.993 111.612H17.4282C18.4662 111.612 19.2211 110.763 19.2211 109.819V97.8347H92.8266V109.819C92.8266 110.857 93.6759 111.612 94.6195 111.612H99.0547C100.093 111.612 100.848 110.763 100.848 109.819V87.2657C100.848 81.415 97.2618 76.1305 91.7886 73.9601Z" fill="#E91D63"/>
<path d="M85.0645 44.2125L88.0351 42.9619C88.1522 42.9009 88.2509 42.8097 88.321 42.6977C88.3911 42.5857 88.4301 42.4571 88.4339 42.325C88.4414 42.204 88.4153 42.0831 88.3585 41.9759C88.3016 41.8688 88.2163 41.7793 88.1119 41.7176L88.1059 41.7146C87.9406 41.6205 87.7504 41.5791 87.561 41.5959C87.3715 41.6128 87.1916 41.687 87.0455 41.8088C86.9342 41.9041 86.7972 41.9644 86.6517 41.982C86.5062 41.9996 86.3588 41.9738 86.228 41.9077C86.0972 41.8417 85.9888 41.7384 85.9166 41.6109C85.8444 41.4834 85.8115 41.3374 85.8221 41.1912C85.8358 41.0104 85.7954 40.8296 85.7062 40.6717C85.617 40.5139 85.4828 40.3861 85.3209 40.3046C85.2034 40.2455 85.0715 40.2213 84.9407 40.2347C84.8099 40.2481 84.6856 40.2985 84.5825 40.3801C84.4758 40.463 84.3938 40.5736 84.3456 40.6999C84.2974 40.8261 84.2848 40.9632 84.3092 41.0962L85.0645 44.2125Z" fill="#E91D63"/>
<path d="M79.2619 55.7072C79.0862 55.6185 78.8824 55.6032 78.6953 55.6648C78.5083 55.7263 78.3534 55.8596 78.2647 56.0354L77.2611 58.0235C77.1724 58.1993 77.1571 58.4031 77.2186 58.5901C77.2802 58.7771 77.4135 58.932 77.5893 59.0208C77.765 59.1095 77.9688 59.1248 78.1559 59.0632C78.3429 59.0017 78.4978 58.8684 78.5865 58.6926L79.5901 56.7045C79.6788 56.5287 79.6941 56.3249 79.6326 56.1379C79.571 55.9508 79.4377 55.7959 79.2619 55.7072Z" fill="#E91D63"/>
<path d="M84.2737 47.4265C84.3625 47.2507 84.3777 47.0469 84.3162 46.8599C84.2546 46.6729 84.1213 46.518 83.9456 46.4293C83.7698 46.3405 83.566 46.3253 83.379 46.3868C83.1919 46.4484 83.037 46.5817 82.9483 46.7574L79.2685 54.0473C79.1797 54.223 79.1645 54.4268 79.226 54.6139C79.2876 54.8009 79.4209 54.9558 79.5967 55.0445C79.7724 55.1332 79.9762 55.1485 80.1632 55.087C80.3503 55.0254 80.5052 54.8921 80.5939 54.7163L84.2737 47.4265Z" fill="#E91D63"/>
<path d="M104.691 45.3781C104.551 45.4208 104.401 45.421 104.26 45.3786C104.12 45.3362 103.995 45.2532 103.902 45.14C103.809 45.0268 103.751 44.8885 103.736 44.7425C103.722 44.5966 103.75 44.4495 103.819 44.32C103.904 44.1601 103.94 43.9785 103.921 43.7983C103.903 43.6182 103.831 43.4476 103.715 43.3083C103.596 43.1693 103.429 43.0805 103.247 43.0596C103.168 43.052 103.087 43.0589 103.01 43.08C102.879 43.1128 102.76 43.181 102.665 43.2771C102.57 43.3732 102.504 43.4935 102.473 43.6248L101.91 46.7819L105.132 46.8316C105.264 46.8234 105.391 46.7799 105.5 46.7057C105.609 46.6314 105.697 46.5292 105.753 46.4097C105.808 46.3019 105.833 46.1809 105.824 46.06C105.815 45.939 105.774 45.8228 105.703 45.7241C105.59 45.5701 105.432 45.4545 105.251 45.3927C105.07 45.3309 104.875 45.3258 104.691 45.3781Z" fill="#E91D63"/>
<path d="M89.6099 57.598C89.8059 57.6168 90.0013 57.5571 90.1532 57.4318L91.8717 56.0157C91.9488 55.9544 92.013 55.8783 92.0604 55.7918C92.1078 55.7054 92.1376 55.6104 92.1479 55.5124C92.1582 55.4144 92.1489 55.3153 92.1205 55.2209C92.0921 55.1265 92.0452 55.0387 91.9825 54.9626C91.9198 54.8865 91.8426 54.8237 91.7554 54.7778C91.6681 54.7319 91.5726 54.7038 91.4744 54.6952C91.3762 54.6866 91.2773 54.6976 91.1834 54.7276C91.0895 54.7577 91.0026 54.8061 90.9276 54.8701L89.2092 56.2862C89.0959 56.3796 89.0128 56.5045 88.9705 56.645C88.9282 56.7856 88.9285 56.9356 88.9714 57.076C89.0143 57.2164 89.0979 57.3409 89.2115 57.4338C89.3252 57.5267 89.4638 57.5838 89.6099 57.598Z" fill="#E91D63"/>
<path d="M98.9485 48.2602L92.6468 53.4533C92.5697 53.5147 92.5055 53.5908 92.4581 53.6772C92.4107 53.7636 92.3809 53.8586 92.3706 53.9566C92.3603 54.0547 92.3696 54.1538 92.398 54.2482C92.4264 54.3426 92.4733 54.4304 92.536 54.5064C92.5987 54.5825 92.6759 54.6453 92.7631 54.6912C92.8504 54.7372 92.9459 54.7652 93.0441 54.7738C93.1423 54.7825 93.2412 54.7714 93.3351 54.7414C93.429 54.7114 93.5159 54.6629 93.5909 54.5989L99.8926 49.4058C99.9698 49.3445 100.034 49.2684 100.081 49.1819C100.129 49.0955 100.158 49.0005 100.169 48.9025C100.179 48.8045 100.17 48.7054 100.141 48.611C100.113 48.5166 100.066 48.4288 100.003 48.3527C99.9407 48.2766 99.8635 48.2138 99.7763 48.1679C99.6891 48.122 99.5936 48.0939 99.4954 48.0853C99.3972 48.0767 99.2982 48.0877 99.2044 48.1177C99.1105 48.1478 99.0235 48.1962 98.9485 48.2602Z" fill="#E91D63"/>
<path d="M87.687 57.5407L84.3481 60.2921C84.271 60.3535 84.2068 60.4296 84.1594 60.516C84.112 60.6024 84.0822 60.6974 84.0719 60.7955C84.0616 60.8935 84.0709 60.9926 84.0993 61.087C84.1277 61.1814 84.1746 61.2692 84.2373 61.3453C84.3 61.4213 84.3772 61.4842 84.4645 61.5301C84.5517 61.576 84.6472 61.6041 84.7454 61.6127C84.8436 61.6213 84.9425 61.6103 85.0364 61.5802C85.1303 61.5502 85.2172 61.5018 85.2922 61.4378L88.631 58.6863C88.7082 58.625 88.7723 58.5488 88.8198 58.4624C88.8672 58.376 88.8969 58.281 88.9072 58.183C88.9175 58.085 88.9082 57.9858 88.8798 57.8914C88.8514 57.7971 88.8045 57.7093 88.7418 57.6332C88.6792 57.5571 88.6019 57.4943 88.5147 57.4484C88.4275 57.4025 88.332 57.3744 88.2338 57.3658C88.1356 57.3572 88.0367 57.3682 87.9428 57.3982C87.8489 57.4283 87.7619 57.4767 87.687 57.5407Z" fill="#E91D63"/>
<path d="M68.26 30.672C68.1288 30.6772 68.0019 30.7199 67.8941 30.795C67.7863 30.87 67.7023 30.9743 67.6518 31.0955C67.6001 31.2171 67.5821 31.3502 67.5995 31.4811C67.6169 31.612 67.6692 31.7359 67.7509 31.8396L69.9349 34.2105L71.9373 31.654C72.0059 31.5451 72.0442 31.4198 72.0483 31.2911C72.0524 31.1624 72.0221 31.0349 71.9606 30.9218C71.9086 30.8121 71.8273 30.719 71.7256 30.6528C71.6239 30.5865 71.5058 30.5498 71.3845 30.5466C71.1936 30.5438 71.0064 30.5995 70.8481 30.7061C70.6897 30.8127 70.5677 30.9652 70.4984 31.1431C70.4479 31.2808 70.3578 31.4005 70.2393 31.487C70.1208 31.5735 69.9794 31.623 69.8328 31.6292C69.6862 31.6354 69.5411 31.598 69.4158 31.5218C69.2905 31.4456 69.1905 31.3339 69.1286 31.201C69.0526 31.0365 68.9295 30.8984 68.7748 30.8042C68.6202 30.71 68.441 30.664 68.26 30.672Z" fill="#E91D63"/>
<path d="M71.2201 47.7887C71.209 47.5944 71.1219 47.4122 70.9778 47.2814C70.8336 47.1506 70.6438 47.0817 70.4493 47.0895C70.2548 47.0972 70.0712 47.1811 69.9379 47.323C69.8046 47.4648 69.7324 47.6534 69.7368 47.848L69.8257 50.0729C69.8368 50.2673 69.9238 50.4495 70.068 50.5802C70.2122 50.711 70.4019 50.78 70.5964 50.7722C70.7909 50.7644 70.9746 50.6806 71.1079 50.5387C71.2411 50.3968 71.3134 50.2083 71.309 50.0137L71.2201 47.7887Z" fill="#E91D63"/>
<path d="M70.0772 56.3671C70.0884 56.5614 70.1754 56.7436 70.3196 56.8744C70.4637 57.0052 70.6535 57.0741 70.848 57.0663C71.0425 57.0585 71.2262 56.9747 71.3594 56.8328C71.4927 56.691 71.5649 56.5024 71.5605 56.3078L71.3879 51.9848C71.3767 51.7905 71.2897 51.6083 71.1455 51.4775C71.0013 51.3467 70.8116 51.2778 70.6171 51.2856C70.4226 51.2933 70.2389 51.3772 70.1057 51.519C69.9724 51.6609 69.9002 51.8495 69.9045 52.0441L70.0772 56.3671Z" fill="#E91D63"/>
<path d="M69.3222 37.4627L69.6481 45.622C69.6592 45.8163 69.7462 45.9985 69.8904 46.1293C70.0346 46.2601 70.2243 46.329 70.4188 46.3212C70.6133 46.3135 70.797 46.2296 70.9303 46.0878C71.0635 45.9459 71.1358 45.7573 71.1314 45.5627L70.8055 37.4035C70.8032 37.3049 70.7814 37.2078 70.7413 37.1178C70.7011 37.0278 70.6434 36.9466 70.5716 36.8791C70.4997 36.8116 70.4152 36.7591 70.3228 36.7247C70.2305 36.6902 70.1322 36.6745 70.0337 36.6784C69.9352 36.6824 69.8384 36.7059 69.7491 36.7476C69.6598 36.7893 69.5797 36.8484 69.5135 36.9214C69.4472 36.9944 69.3962 37.0799 69.3634 37.1728C69.3305 37.2658 69.3165 37.3643 69.3222 37.4627Z" fill="#E91D63"/>
<path d="M105.377 70.2205C102.901 68.9064 100.075 68.405 97.2981 68.7875C95.8174 69.0025 94.3854 69.4735 93.0662 70.1797C92.9774 70.2239 92.8984 70.2854 92.8338 70.3607C92.7692 70.436 92.7203 70.5234 92.6901 70.6179C92.6599 70.7124 92.6489 70.8119 92.6578 70.9107C92.6667 71.0095 92.6953 71.1055 92.7419 71.193C92.7885 71.2806 92.8522 71.3579 92.9292 71.4204C93.0062 71.4829 93.0949 71.5294 93.1901 71.5571C93.2854 71.5847 93.3852 71.593 93.4837 71.5815C93.5822 71.5699 93.6774 71.5387 93.7637 71.4897C94.9316 70.8651 96.1991 70.4478 97.5096 70.2564C99.9283 69.9272 102.39 70.3511 104.559 71.4706C104.606 71.4944 104.656 71.5238 104.7 71.5419C104.787 71.5863 104.882 71.6132 104.979 71.6211C105.076 71.629 105.174 71.6176 105.266 71.5877C105.359 71.5578 105.445 71.5099 105.519 71.4467C105.594 71.3836 105.655 71.3064 105.699 71.2197C105.744 71.1329 105.771 71.0382 105.779 70.9411C105.786 70.8439 105.775 70.7461 105.745 70.6533C105.715 70.5605 105.667 70.4746 105.604 70.4003C105.541 70.326 105.464 70.2649 105.377 70.2205Z" fill="#E91D63"/>
<path d="M61.4269 50.2415C60.1114 47.7664 58.0493 45.7688 55.5337 44.5325C55.3583 44.4431 55.1546 44.4269 54.9673 44.4877C54.78 44.5485 54.6246 44.6812 54.5351 44.8566C54.4457 45.032 54.4296 45.2357 54.4903 45.423C54.5511 45.6103 54.6838 45.7657 54.8592 45.8552L54.8671 45.8593C57.1039 46.9581 58.9388 48.732 60.1125 50.9304C60.725 52.1047 61.1291 53.3764 61.3068 54.689C61.3177 54.7875 61.3481 54.883 61.3965 54.9696C61.4448 55.0562 61.51 55.1322 61.5882 55.1932C61.6664 55.2543 61.756 55.299 61.8518 55.3247C61.9476 55.3505 62.0475 55.3569 62.1458 55.3434C62.244 55.3299 62.3386 55.2968 62.4239 55.2462C62.5092 55.1955 62.5834 55.1283 62.6423 55.0485C62.7011 54.9686 62.7434 54.8778 62.7666 54.7814C62.7898 54.685 62.7934 54.5848 62.7772 54.487C62.5769 53.0042 62.12 51.5676 61.4269 50.2415Z" fill="#E91D63"/>
<path d="M106.852 77.9888L106.189 77.6543L106.524 76.9916C106.612 76.8158 106.628 76.612 106.566 76.425C106.504 76.238 106.371 76.0831 106.195 75.9943C106.02 75.9056 105.816 75.8904 105.629 75.9519C105.442 76.0134 105.287 76.1468 105.198 76.3225L104.864 76.9852L104.201 76.6507C104.025 76.562 103.821 76.5467 103.634 76.6083C103.447 76.6698 103.292 76.8031 103.204 76.9789C103.115 77.1547 103.1 77.3585 103.161 77.5455C103.223 77.7325 103.356 77.8874 103.532 77.9761L104.195 78.3107L103.86 78.9734C103.771 79.1491 103.756 79.353 103.818 79.54C103.879 79.727 104.012 79.8819 104.188 79.9706C104.364 80.0593 104.568 80.0746 104.755 80.0131C104.942 79.9515 105.097 79.8182 105.185 79.6424L105.52 78.9797L106.183 79.3143C106.358 79.403 106.562 79.4183 106.749 79.3567C106.936 79.2952 107.091 79.1618 107.18 78.9861C107.269 78.8103 107.284 78.6065 107.222 78.4195C107.161 78.2325 107.027 78.0776 106.852 77.9888Z" fill="#E91D63"/>
<path d="M116.144 53.2736C114.66 52.8215 113.075 52.797 111.561 53.2028C110.048 53.6086 108.664 54.4291 107.561 55.5746C107.41 55.7306 107.326 55.9398 107.325 56.1564C107.325 56.3729 107.408 56.5789 107.558 56.7292C107.63 56.802 107.715 56.8595 107.809 56.8982C107.956 56.9595 108.119 56.9741 108.276 56.9402C108.432 56.9063 108.577 56.8254 108.69 56.7079C109.586 55.778 110.71 55.1122 111.939 54.7836C113.169 54.455 114.456 54.4762 115.66 54.8448C115.862 54.9058 116.082 54.8817 116.27 54.7778C116.458 54.6739 116.6 54.4988 116.664 54.2909C116.728 54.0831 116.709 53.8595 116.611 53.6694C116.513 53.4794 116.344 53.3383 116.142 53.2773L116.144 53.2736Z" fill="#E91D63"/>
<path d="M111.684 56.8709C110.124 57.1555 108.71 58.0132 107.71 59.2808C107.643 59.3654 107.593 59.4622 107.562 59.5659C107.532 59.6695 107.521 59.7778 107.532 59.8846C107.542 59.9915 107.573 60.0947 107.623 60.1883C107.673 60.282 107.741 60.3643 107.823 60.4304C107.905 60.4966 107.999 60.5453 108.1 60.5738C108.201 60.6023 108.307 60.61 108.412 60.5965C108.517 60.5829 108.618 60.5485 108.711 60.495C108.803 60.4415 108.885 60.3701 108.951 60.2849C109.619 59.4162 110.556 58.8029 111.603 58.5484C112.649 58.2939 113.743 58.4138 114.698 58.8878C114.888 58.9788 115.108 58.989 115.309 58.9162C115.51 58.8435 115.677 58.6935 115.773 58.4987C115.82 58.4016 115.848 58.2964 115.856 58.1891C115.863 58.0817 115.85 57.9744 115.817 57.8732C115.783 57.7719 115.731 57.6788 115.662 57.5992C115.593 57.5196 115.508 57.455 115.414 57.4092C114.261 56.8461 112.96 56.6584 111.684 56.8709Z" fill="#E91D63"/>
<path d="M102.656 60.9675L102.972 60.2107L103.707 60.5178C103.902 60.5993 104.122 60.5976 104.319 60.5133C104.517 60.429 104.674 60.2688 104.758 60.0681C104.842 59.8674 104.845 59.6425 104.767 59.443C104.688 59.2435 104.534 59.0857 104.34 59.0042L103.605 58.6971L103.921 57.9403C104.005 57.7396 104.008 57.5147 103.929 57.3152C103.851 57.1157 103.697 56.9579 103.502 56.8764C103.307 56.795 103.087 56.7966 102.89 56.8809C102.693 56.9653 102.535 57.1254 102.451 57.3261L102.135 58.0829L101.4 57.7758C101.205 57.6944 100.985 57.696 100.788 57.7804C100.59 57.8647 100.433 58.0248 100.349 58.2256C100.265 58.4263 100.262 58.6511 100.34 58.8507C100.419 59.0502 100.572 59.208 100.767 59.2895L101.502 59.5966L101.186 60.3534C101.102 60.5541 101.099 60.7789 101.178 60.9784C101.256 61.178 101.41 61.3358 101.605 61.4173C101.8 61.4987 102.02 61.4971 102.217 61.4127C102.414 61.3284 102.572 61.1683 102.656 60.9675Z" fill="#E91D63"/>
<path d="M97.4636 37.2719L95.1327 40.5198C95.0759 40.5991 95.0352 40.6888 95.013 40.7837C94.9909 40.8787 94.9876 40.9771 95.0035 41.0734C95.0194 41.1696 95.0541 41.2618 95.1056 41.3446C95.1571 41.4274 95.2244 41.4993 95.3037 41.5561C95.3803 41.6112 95.4668 41.6509 95.5585 41.6732C95.7026 41.7088 95.8541 41.7004 95.9934 41.6491C96.1327 41.5977 96.2534 41.5058 96.3399 41.3851L98.6707 38.1372C98.7275 38.0579 98.7682 37.9682 98.7903 37.8732C98.8125 37.7783 98.8157 37.6799 98.7998 37.5836C98.784 37.4874 98.7493 37.3953 98.6978 37.3125C98.6463 37.2296 98.579 37.1578 98.4998 37.1009C98.4205 37.0441 98.3308 37.0035 98.2359 36.9813C98.1409 36.9592 98.0425 36.9559 97.9463 36.9718C97.85 36.9877 97.7579 37.0224 97.6751 37.0738C97.5922 37.1253 97.5204 37.1926 97.4636 37.2719Z" fill="#E91D63"/>
<path d="M103.027 32.8116C103.05 32.8171 103.073 32.8228 103.095 32.8281C103.275 32.8733 103.465 32.8495 103.628 32.7613C103.792 32.6731 103.916 32.5269 103.977 32.3515C104.198 31.711 104.564 31.1304 105.048 30.6553C105.845 29.9017 106.887 29.4609 107.983 29.414C108.175 29.3976 108.353 29.3074 108.48 29.1625C108.606 29.0175 108.671 28.8291 108.662 28.6369C108.652 28.4447 108.568 28.2638 108.428 28.1323C108.287 28.0008 108.101 27.929 107.909 27.932C106.452 27.9966 105.068 28.5863 104.012 29.5922C103.361 30.2273 102.867 31.0046 102.567 31.863C102.535 31.9555 102.521 32.0535 102.526 32.1513C102.532 32.2492 102.557 32.345 102.6 32.4332C102.643 32.5214 102.702 32.6002 102.776 32.6651C102.849 32.7301 102.935 32.7799 103.027 32.8116Z" fill="#E91D63"/>
<path d="M106.8 30.9508C105.789 31.6761 104.97 32.6366 104.414 33.7494C104.37 33.8366 104.343 33.9318 104.336 34.0293C104.329 34.1268 104.341 34.2248 104.372 34.3177C104.402 34.4105 104.451 34.4964 104.515 34.5703C104.579 34.6443 104.657 34.7048 104.745 34.7485C104.795 34.7721 104.847 34.7903 104.9 34.803C105.064 34.8433 105.236 34.8268 105.389 34.7563C105.542 34.6858 105.666 34.5654 105.742 34.4149C106.189 33.518 106.848 32.7437 107.662 32.1591C108.743 31.4011 110.037 31.0042 111.357 31.0249C111.554 31.0277 111.744 30.9521 111.886 30.8147C112.027 30.6774 112.108 30.4895 112.111 30.2925C112.113 30.0955 112.038 29.9054 111.9 29.7641C111.763 29.6228 111.575 29.5419 111.378 29.5391C109.742 29.516 108.139 30.01 106.8 30.9508Z" fill="#E91D63"/>
<path d="M100.042 35.898L100.763 36.0759L100.585 36.7966C100.538 36.9878 100.569 37.1898 100.67 37.3583C100.772 37.5269 100.937 37.648 101.128 37.6952C101.319 37.7424 101.521 37.7117 101.69 37.6099C101.858 37.5081 101.979 37.3435 102.027 37.1523L102.204 36.4316L102.925 36.6095C103.116 36.6566 103.318 36.6259 103.487 36.5241C103.655 36.4223 103.777 36.2577 103.824 36.0666C103.871 35.8754 103.84 35.6734 103.738 35.5049C103.637 35.3363 103.472 35.2152 103.281 35.168L102.56 34.9901L102.738 34.2694C102.785 34.0782 102.755 33.8762 102.653 33.7077C102.551 33.5391 102.386 33.418 102.195 33.3708C102.004 33.3236 101.802 33.3543 101.633 33.4561C101.465 33.5579 101.344 33.7225 101.297 33.9137L101.119 34.6344L100.398 34.4565C100.207 34.4094 100.005 34.44 99.8362 34.5419C99.6677 34.6437 99.5465 34.8082 99.4994 34.9994C99.4522 35.1905 99.4829 35.3926 99.5847 35.5611C99.6865 35.7297 99.8511 35.8508 100.042 35.898Z" fill="#E91D63"/>
<path d="M48.0516 44.3888L47.3889 44.0543L47.7234 43.3916C47.8121 43.2158 47.8274 43.012 47.7658 42.825C47.7043 42.638 47.571 42.4831 47.3952 42.3943C47.2194 42.3056 47.0156 42.2903 46.8286 42.3519C46.6416 42.4134 46.4867 42.5468 46.398 42.7225L46.0634 43.3852L45.4007 43.0507C45.225 42.962 45.0212 42.9467 44.8341 43.0083C44.6471 43.0698 44.4922 43.2031 44.4035 43.3789C44.3148 43.5546 44.2995 43.7585 44.361 43.9455C44.4226 44.1325 44.5559 44.2874 44.7317 44.3761L45.3944 44.7107L45.0598 45.3734C44.9711 45.5491 44.9558 45.7529 45.0174 45.94C45.0789 46.127 45.2123 46.2819 45.388 46.3706C45.5638 46.4593 45.7676 46.4746 45.9546 46.4131C46.1416 46.3515 46.2965 46.2182 46.3853 46.0424L46.7198 45.3797L47.3825 45.7143C47.5583 45.803 47.7621 45.8182 47.9491 45.7567C48.1361 45.6952 48.291 45.5618 48.3798 45.3861C48.4685 45.2103 48.4837 45.0065 48.4222 44.8195C48.3607 44.6325 48.2273 44.4776 48.0516 44.3888Z" fill="#E91D63"/>
<path d="M56.998 30.6423C57.0798 30.6899 57.1702 30.721 57.264 30.7338C57.4588 30.7615 57.6567 30.7107 57.8141 30.5925C57.9715 30.4743 58.0756 30.2985 58.1033 30.1036C58.3077 28.6733 58.115 27.2143 57.5464 25.886C56.9777 24.5578 56.0549 23.4114 54.8788 22.572C54.7177 22.4593 54.5187 22.4143 54.3247 22.4468C54.1308 22.4792 53.9573 22.5865 53.8416 22.7456C53.7268 22.9054 53.6802 23.1042 53.7119 23.2984C53.7437 23.4926 53.8512 23.6663 54.0109 23.7812C54.9669 24.4621 55.717 25.3928 56.1792 26.4716C56.6414 27.5504 56.7978 28.7356 56.6313 29.8973C56.6112 30.0439 56.6354 30.1931 56.7007 30.3259C56.7661 30.4586 56.8696 30.5688 56.998 30.6423Z" fill="#E91D63"/>
<path d="M54.8053 27.7934C54.232 26.7436 53.3524 25.8935 52.2837 25.3564C52.1965 25.3124 52.1014 25.286 52.004 25.2788C51.9066 25.2716 51.8087 25.2837 51.716 25.3144C51.6232 25.3451 51.5374 25.3938 51.4636 25.4577C51.3897 25.5216 51.3292 25.5995 51.2854 25.6869C51.2005 25.8637 51.1875 26.0665 51.2491 26.2527C51.3108 26.4389 51.4423 26.5939 51.6159 26.6851C52.4112 27.088 53.067 27.7207 53.4981 28.501C54.007 29.469 54.1425 30.5901 53.8791 31.6514C53.8323 31.8419 53.8628 32.0433 53.964 32.2114C54.0652 32.3795 54.2289 32.5007 54.4192 32.5485C54.6095 32.5963 54.811 32.5668 54.9796 32.4665C55.1482 32.3662 55.2703 32.2032 55.3191 32.0131C55.6715 30.5912 55.4887 29.0892 54.8053 27.7934Z" fill="#E91D63"/>
<path d="M60.2915 36.8231C60.3898 36.6525 60.4163 36.4498 60.3651 36.2597C60.314 36.0696 60.1894 35.9075 60.0188 35.8093L59.3755 35.4387L59.7461 34.7954C59.8444 34.6248 59.8709 34.4222 59.8197 34.2321C59.7686 34.0419 59.644 33.8799 59.4734 33.7816C59.3028 33.6833 59.1001 33.6569 58.91 33.708C58.7199 33.7592 58.5579 33.8837 58.4596 34.0543L58.089 34.6976L57.4458 34.327C57.2752 34.2288 57.0725 34.2023 56.8824 34.2534C56.6922 34.3046 56.5302 34.4291 56.4319 34.5997C56.3337 34.7703 56.3072 34.973 56.3583 35.1631C56.4095 35.3533 56.534 35.5153 56.7046 35.6136L57.3479 35.9841L56.9773 36.6274C56.8791 36.798 56.8526 37.0006 56.9037 37.1908C56.9549 37.3809 57.0794 37.5429 57.25 37.6412C57.4206 37.7395 57.6233 37.766 57.8134 37.7148C58.0036 37.6637 58.1656 37.5391 58.2639 37.3685L58.6344 36.7252L59.2777 37.0958C59.4483 37.1941 59.6509 37.2205 59.8411 37.1694C60.0312 37.1183 60.1932 36.9937 60.2915 36.8231Z" fill="#E91D63"/>
<path d="M79.6275 29.9145L78.1781 33.6403C78.1242 33.7786 78.113 33.9299 78.146 34.0747C78.179 34.2194 78.2547 34.351 78.3632 34.4523C78.4319 34.517 78.5124 34.5677 78.6004 34.6018C78.6913 34.6373 78.7882 34.6545 78.8857 34.6524C78.9832 34.6504 79.0794 34.6291 79.1687 34.5899C79.258 34.5507 79.3387 34.4943 79.4061 34.4238C79.4736 34.3534 79.5266 34.2704 79.562 34.1795L81.0114 30.4538C81.0829 30.2703 81.0785 30.0659 80.9993 29.8855C80.9201 29.7052 80.7726 29.5637 80.589 29.4922C80.4055 29.4207 80.2011 29.425 80.0208 29.5042C79.8405 29.5834 79.699 29.731 79.6275 29.9145Z" fill="#E91D63"/>
<path d="M81.8568 17.3527C82.4157 18.2968 82.6154 19.4108 82.4191 20.4903C82.2837 21.1539 81.9965 21.7772 81.58 22.3113C81.4663 22.458 81.4117 22.642 81.4269 22.827C81.4421 23.0119 81.5261 23.1845 81.6622 23.3107C81.6785 23.3259 81.6958 23.3421 81.7127 23.3578C81.7899 23.4181 81.8782 23.4625 81.9727 23.4885C82.0672 23.5145 82.1658 23.5215 82.263 23.5092C82.3602 23.4968 82.454 23.4654 82.5389 23.4167C82.6239 23.3679 82.6984 23.3029 82.7581 23.2252C83.315 22.5076 83.6982 21.6707 83.8775 20.7801C84.144 19.3463 83.8826 17.8645 83.1415 16.6085C83.0944 16.5207 83.0301 16.4432 82.9525 16.3808C82.8748 16.3183 82.7853 16.2722 82.6895 16.245C82.5936 16.2179 82.4932 16.2103 82.3943 16.2228C82.2954 16.2353 82.2001 16.2675 82.1139 16.3177C82.0278 16.3678 81.9526 16.4347 81.8929 16.5145C81.8332 16.5943 81.7902 16.6853 81.7664 16.7821C81.7426 16.8789 81.7385 16.9794 81.7544 17.0778C81.7704 17.1762 81.8059 17.2704 81.859 17.3547L81.8568 17.3527Z" fill="#E91D63"/>
<path d="M78.6624 15.4021C79.4005 16.4973 79.7738 17.7977 79.729 19.1176C79.6834 20.1188 79.3943 21.0936 78.8867 21.9578C78.8017 22.1032 78.7688 22.2733 78.7932 22.4399C78.8177 22.6066 78.8981 22.76 79.0213 22.875C79.0619 22.9127 79.1063 22.9461 79.1539 22.9745C79.2382 23.0239 79.3315 23.0562 79.4284 23.0695C79.5253 23.0828 79.6239 23.0768 79.7185 23.0519C79.813 23.027 79.9018 22.9836 79.9795 22.9243C80.0573 22.865 80.1226 22.7909 80.1716 22.7062C80.8004 21.6329 81.1583 20.4225 81.2144 19.1797C81.2716 17.5436 80.8109 15.9313 79.898 14.5724C79.8436 14.4914 79.7738 14.4219 79.6925 14.3679C79.6112 14.3139 79.5201 14.2764 79.4244 14.2576C79.3287 14.2388 79.2301 14.239 79.1345 14.2583C79.0388 14.2776 78.9479 14.3155 78.8669 14.3699C78.7859 14.4243 78.7165 14.4941 78.6625 14.5754C78.6084 14.6567 78.571 14.7478 78.5522 14.8435C78.5334 14.9393 78.5336 15.0378 78.5529 15.1334C78.5722 15.2291 78.6101 15.32 78.6645 15.401L78.6624 15.4021Z" fill="#E91D63"/>
<path d="M80.6486 24.3955L80.1418 24.9379L79.5994 24.431C79.4555 24.2966 79.2641 24.2249 79.0674 24.2315C78.8706 24.2382 78.6845 24.3228 78.5501 24.4666C78.4157 24.6105 78.3439 24.8018 78.3506 24.9986C78.3572 25.1954 78.4418 25.3814 78.5857 25.5159L79.1281 26.0227L78.6212 26.5651C78.4868 26.709 78.415 26.9003 78.4217 27.0971C78.4284 27.2939 78.5129 27.4799 78.6568 27.6144C78.8006 27.7488 78.992 27.8206 79.1888 27.8139C79.3856 27.8072 79.5716 27.7227 79.706 27.5788L80.2129 27.0364L80.7553 27.5432C80.8992 27.6777 81.0905 27.7494 81.2873 27.7428C81.4841 27.7361 81.6701 27.6515 81.8046 27.5077C81.939 27.3638 82.0107 27.1725 82.0041 26.9757C81.9974 26.7789 81.9128 26.5928 81.769 26.4584L81.2266 25.9516L81.7334 25.4092C81.8678 25.2653 81.9396 25.074 81.9329 24.8772C81.9263 24.6804 81.8417 24.4943 81.6979 24.3599C81.554 24.2255 81.3626 24.1537 81.1659 24.1604C80.9691 24.1671 80.783 24.2516 80.6486 24.3955Z" fill="#E91D63"/>
</g>
<defs>
<clipPath id="clip0">
<rect width="112" height="112" fill="white" transform="translate(7 7)"/>
</clipPath>
</defs>
</svg>
