<svg width="126" height="141" viewBox="0 0 126 141" fill="none" xmlns="http://www.w3.org/2000/svg">
<path fill-rule="evenodd" clip-rule="evenodd" d="M126 3.5C126 1.567 124.433 0 122.5 0H3.5C1.567 0 0 1.567 0 3.5V122.232C0 124.165 1.567 125.732 3.5 125.732H45.8042C46.7312 125.732 47.6203 126.1 48.2765 126.754L60.5278 138.98C61.894 140.343 64.106 140.343 65.4722 138.98L77.7235 126.754C78.3797 126.1 79.2688 125.732 80.1958 125.732H122.5C124.433 125.732 126 124.165 126 122.232V3.5Z" fill="white"/>
<path d="M75.6503 29.9073C80.8935 29.9073 85.144 25.6569 85.144 20.4137C85.144 15.1704 80.8935 10.92 75.6503 10.92C70.4071 10.92 66.1566 15.1704 66.1566 20.4137C66.1566 25.6569 70.4071 29.9073 75.6503 29.9073Z" fill="#E91D63"/>
<path d="M34.0041 61.12C38.0151 54.5565 59.2249 40.3052 69.3284 34H80.2676C80.0397 36.1271 79.4927 41.3384 79.1281 45.1671C78.6723 49.9529 78.4444 50.8645 76.1654 55.1946C73.8864 59.5247 74.8862 60.7798 73.8864 64.3106C72.9201 67.723 72.519 70.4638 71.1516 72.9707C69.7842 75.4776 69.5313 75.2812 67.961 75.9334C65.8997 76.7895 64.4954 75.4439 62.2636 75.4776C60.3863 75.506 59.345 75.7388 57.4777 75.9334C55.1609 76.1749 53.7749 77.3144 51.5523 76.6171C50.0214 76.1368 49.957 75.9334 48.1338 74.3381C46.3107 72.7428 46.7665 73.1986 42.8922 71.6033C39.0179 70.008 37.8784 72.9707 34.0041 71.6033C30.1298 70.2359 32.8646 63.399 34.0041 61.12Z" fill="#E91D63"/>
<path d="M68.9434 33.366L69.1023 33.366L81.9823 33.368L82.1181 33.368L82.2352 33.4367L81.9822 33.868C82.2352 33.4367 82.2353 33.4368 82.2355 33.4369L82.2362 33.4373L82.2388 33.4389L82.2486 33.4446L82.2862 33.4669C82.3193 33.4865 82.368 33.5155 82.4314 33.5534C82.5581 33.6294 82.7433 33.7413 82.9787 33.8858C83.4496 34.1749 84.1213 34.5948 84.927 35.119C86.5376 36.1668 88.6873 37.634 90.8384 39.3088C92.9865 40.9813 95.1516 42.8728 96.7828 44.7704C98.3946 46.6454 99.5689 48.621 99.5622 50.4514M68.9434 33.366L99.0622 50.4495M68.9434 33.366L68.8136 33.4577L69.1022 33.866C68.8136 33.4577 68.8135 33.4578 68.8134 33.4579L68.8127 33.4583L68.8102 33.4601L68.8007 33.4669L68.7634 33.4933C68.7307 33.5166 68.6823 33.5511 68.6193 33.5962C68.4932 33.6864 68.3086 33.819 68.074 33.9893C67.6046 34.3299 66.9346 34.8211 66.1309 35.4245C64.5239 36.6309 62.3797 38.2878 60.2345 40.0872C58.0919 41.8843 55.9363 43.8336 54.3133 45.6241C53.5023 46.5188 52.8133 47.3858 52.3248 48.1839C51.8443 48.9688 51.5196 49.7477 51.5222 50.4514C51.5263 51.5239 52.1226 52.7871 52.9587 54.06C53.809 55.3546 54.9655 56.7442 56.2062 58.0892C58.5303 60.6089 61.1881 63.0132 62.7858 64.4058L55.7478 76.596C53.6155 80.2893 56.2809 84.906 60.5456 84.906H64.0644L64.0745 109.352C64.0745 109.352 64.0745 109.352 64.0745 109.352C64.0745 111.182 64.6291 112.858 65.5496 114.088C66.4702 115.318 67.7804 116.126 69.2701 116.126C70.7602 116.126 72.0706 115.318 72.9913 114.088C73.9118 112.858 74.4663 111.182 74.4663 109.352V84.906M68.9434 33.366L74.4663 84.906M99.5622 50.4514L99.0622 50.4495M99.5622 50.4514C99.5622 50.4514 99.5622 50.4513 99.5622 50.4513L99.0622 50.4495M99.5622 50.4514C99.5573 51.8226 99.044 53.2235 98.2623 54.5708C97.4785 55.9217 96.4056 57.2519 95.235 58.4909C93.0486 60.8049 90.4823 62.8415 88.7091 64.1466M99.0622 50.4495C99.0445 55.4531 91.575 61.4545 88.0515 64.0077M88.7091 64.1466L88.4845 63.7577L88.0515 64.0077M88.7091 64.1466L95.8968 76.596C98.0291 80.2894 95.3637 84.906 91.099 84.906H86.7443L86.7348 109.352C86.7348 109.352 86.7348 109.352 86.7348 109.352C86.7348 111.182 86.1801 112.858 85.2594 114.088C84.3385 115.318 83.0281 116.126 81.5382 116.126C80.0485 116.126 78.7383 115.318 77.8176 114.088C76.8971 112.858 76.3425 111.182 76.3425 109.352V84.906H74.4663M88.7091 64.1466C88.5836 64.239 88.462 64.3277 88.3449 64.4125L88.0515 64.0077M88.0515 64.0077L74.4663 84.906M64.0448 55.13C63.9596 55.0661 63.8699 54.9966 63.7772 54.9217C63.2005 54.4562 62.5332 53.8036 62.0962 53.0252C61.6648 52.257 61.4682 51.3891 61.7753 50.4411C62.0407 49.6216 62.7022 48.6801 64.0448 47.665V55.13ZM89.1264 52.33C88.861 53.1495 88.1995 54.091 86.8568 55.1061V47.6412C86.942 47.705 87.0317 47.7745 87.1245 47.8494C87.7012 48.315 88.3685 48.9675 88.8055 49.7459C89.2369 50.5142 89.4334 51.382 89.1264 52.33Z" stroke="white"/>
<path fill-rule="evenodd" clip-rule="evenodd" d="M69.1022 33.866L81.9822 33.868C81.9822 33.868 99.0863 43.9017 99.0622 50.4495C99.0445 55.4531 91.575 61.4545 88.0515 64.0076L95.4637 76.846C97.4036 80.206 94.9788 84.406 91.099 84.406H86.2445L86.2348 109.352C86.2348 112.817 84.1318 115.626 81.5382 115.626C78.9451 115.626 76.8425 112.817 76.8425 109.352V84.406H73.9663V109.352C73.9663 112.817 71.8642 115.626 69.2701 115.626C66.677 115.626 64.5745 112.817 64.5745 109.352L64.5642 84.406H60.5456C56.6658 84.406 54.2409 80.206 56.1808 76.846L63.4251 64.2986C60.3448 61.636 52.0361 54.1153 52.0222 50.4495C52.0052 45.9495 69.1022 33.866 69.1022 33.866ZM64.5448 56.067C64.5448 56.067 56.8524 51.7293 64.5448 46.7041V56.067ZM86.3568 56.067V46.7041C86.3568 46.7041 94.0492 51.0418 86.3568 56.067Z" fill="#E91D63"/>
</svg>
