<svg width="23" height="23" viewBox="0 0 23 23" fill="none" xmlns="http://www.w3.org/2000/svg">
<g filter="url(#filter0_d)">
<path d="M15.0733 0.235851C14.9827 0.248668 14.903 0.313671 14.8783 0.40797L14.7565 0.86024C14.7236 0.985668 14.7977 1.11384 14.9232 1.14772C14.9433 1.15229 14.9634 1.15504 14.9836 1.15504C15.087 1.15504 15.1822 1.08638 15.2097 0.98109L15.3315 0.528819C15.3654 0.404308 15.2903 0.275218 15.1658 0.241344C15.1346 0.233104 15.1026 0.231273 15.0733 0.235851ZM8.46411 0.468395C6.26043 0.468395 4.46874 2.23719 4.46874 4.41066C4.46874 5.05885 4.62438 5.67866 4.93017 6.25086C4.95764 6.30122 4.96679 6.35524 4.95764 6.40834C4.88897 6.79194 4.85418 7.18287 4.85418 7.57014C4.85418 11.2249 7.8681 14.1976 11.5723 14.1976C11.9312 14.1976 12.2938 14.1693 12.6499 14.1125C12.6966 14.1052 12.746 14.1125 12.7918 14.1345C13.3393 14.3972 13.9261 14.5309 14.5368 14.5309C16.7396 14.5309 18.5312 12.763 18.5312 10.5895C18.5312 10.0311 18.415 9.49183 18.1861 8.98555V8.98463C18.1641 8.93702 18.1577 8.88667 18.1678 8.83723C18.2483 8.42433 18.2895 7.99769 18.2895 7.57014C18.2895 3.91627 15.2765 0.943553 11.5723 0.943553C11.2446 0.943553 10.915 0.967357 10.5918 1.01405C10.5387 1.02229 10.4865 1.0113 10.4371 0.983837C9.83831 0.646923 9.15533 0.468395 8.46411 0.468395ZM16.3486 0.739391C16.258 0.728404 16.1655 0.770519 16.117 0.854747L15.8826 1.26124C15.8176 1.37294 15.8561 1.51576 15.9678 1.58076C16.0053 1.60182 16.0456 1.6128 16.085 1.6128C16.1664 1.6128 16.2452 1.56977 16.2891 1.49562L16.5235 1.08912C16.5876 0.976512 16.5491 0.83369 16.4365 0.768688C16.4091 0.752208 16.3788 0.743053 16.3486 0.739391ZM8.46411 0.937145C9.07476 0.937145 9.67809 1.09462 10.2073 1.39216C10.3473 1.4709 10.5039 1.50111 10.6586 1.47731C10.9598 1.43428 11.2675 1.4123 11.5723 1.4123C15.0175 1.4123 17.8208 4.17445 17.8208 7.57014C17.8208 7.96748 17.7833 8.3639 17.7073 8.74659C17.6798 8.89216 17.6972 9.04048 17.7585 9.17781C17.96 9.62367 18.0625 10.0988 18.0625 10.5895C18.0625 12.5048 16.4805 14.0621 14.5368 14.0621C13.9966 14.0621 13.4775 13.944 12.9941 13.7115C12.8962 13.6648 12.7909 13.641 12.6865 13.641C12.6499 13.641 12.6133 13.6437 12.5767 13.6492C12.2452 13.7023 11.9074 13.7289 11.5723 13.7289C8.12628 13.7289 5.32293 10.9658 5.32293 7.57014C5.32293 7.21034 5.35497 6.84687 5.41906 6.49165C5.44653 6.33326 5.42089 6.17305 5.34399 6.02931C5.07391 5.52577 4.93749 4.98103 4.93749 4.41066C4.93749 2.49537 6.51953 0.937145 8.46411 0.937145ZM8.45312 1.40589C8.32311 1.40589 8.21874 1.51026 8.21874 1.64027C8.21874 1.77027 8.32311 1.87464 8.45312 1.87464C8.66369 1.87464 8.87243 1.89936 9.07385 1.94972C9.09216 1.9543 9.1123 1.95704 9.13061 1.95704C9.2359 1.95704 9.33111 1.88563 9.35766 1.77851C9.38879 1.65309 9.3128 1.52583 9.18646 1.4947C8.94842 1.43611 8.70123 1.40589 8.45312 1.40589ZM17.363 1.53773C17.3035 1.53773 17.244 1.56062 17.1982 1.60731L16.8659 1.93873C16.7743 2.03028 16.7743 2.17768 16.8659 2.27015C16.9117 2.31501 16.9721 2.3379 17.0325 2.3379C17.092 2.3379 17.1525 2.31501 17.1982 2.27015L17.5287 1.93873C17.6212 1.84626 17.6212 1.69886 17.5287 1.60731C17.483 1.56062 17.4235 1.53773 17.363 1.53773ZM7.53851 1.56337C7.5083 1.56153 7.47717 1.56611 7.44604 1.57618C6.67059 1.84809 6.0288 2.4322 5.68456 3.17927C5.63055 3.29737 5.68182 3.43653 5.79992 3.49055C5.83105 3.5052 5.86401 3.51161 5.89697 3.51161C5.98577 3.51161 6.07092 3.46125 6.11029 3.37611C6.40142 2.74348 6.94433 2.24818 7.60076 2.0193C7.72344 1.97627 7.78753 1.8426 7.74542 1.72084C7.71337 1.62837 7.63006 1.56886 7.53851 1.56337ZM18.1348 2.58418C18.1046 2.58784 18.0744 2.597 18.0469 2.61348L17.6414 2.84785C17.5287 2.91285 17.4903 3.05567 17.5553 3.16737C17.5992 3.24244 17.6771 3.28456 17.7585 3.28456C17.7988 3.28456 17.8382 3.2754 17.8757 3.25434L18.2813 3.01997C18.3939 2.95497 18.4324 2.81123 18.3674 2.69862C18.3188 2.61531 18.2255 2.57228 18.1348 2.58418ZM11.5293 2.83778C10.7776 2.83778 10.1111 2.94215 9.54809 3.14814C8.96124 3.35963 8.50164 3.6764 8.18395 4.08656C7.85894 4.50312 7.69415 4.98652 7.69415 5.52302C7.69415 6.08424 7.85253 6.56581 8.16564 6.95307C8.46411 7.32203 8.8706 7.615 9.37139 7.82466C9.83557 8.01966 10.4215 8.1927 11.1136 8.33827C11.5934 8.43806 11.9871 8.53419 12.28 8.62391C12.53 8.70173 12.7332 8.81159 12.8834 8.94892C13.0033 9.0597 13.0591 9.19703 13.0591 9.38197C13.0591 9.62184 12.9392 9.8141 12.6819 9.98622C12.3908 10.1821 11.9953 10.2819 11.5073 10.2819C11.1585 10.2819 10.8674 10.2325 10.665 10.1391C10.4654 10.0457 10.3116 9.92854 10.2064 9.79212C10.0873 9.63832 9.97289 9.43598 9.86395 9.19154C9.74584 8.91963 9.59661 8.70631 9.419 8.55799C9.22033 8.39137 8.97772 8.30805 8.69848 8.30805C8.36431 8.30805 8.08325 8.41243 7.8626 8.61933C7.63647 8.82899 7.51654 9.09632 7.51654 9.39295C7.51654 9.81868 7.67034 10.2526 7.97338 10.682C8.26727 11.1013 8.65362 11.4401 9.1242 11.69C9.76782 12.0269 10.5854 12.1981 11.5549 12.1981C12.3597 12.1981 13.071 12.0736 13.6689 11.8283C14.2859 11.5765 14.7629 11.2185 15.0889 10.7626C15.4194 10.3012 15.5869 9.77473 15.5869 9.19978C15.5869 8.71913 15.4871 8.30165 15.2912 7.95741C15.0971 7.61775 14.8261 7.33485 14.4837 7.11512C14.1633 6.90913 13.7705 6.73152 13.3173 6.59053C12.8779 6.45045 12.3881 6.32502 11.8662 6.21516C11.4524 6.12086 11.1539 6.04853 10.9772 5.99909C10.8188 5.95698 10.6586 5.89564 10.4993 5.81599C10.3629 5.74824 10.2595 5.67225 10.189 5.58528C10.1368 5.52394 10.113 5.45619 10.113 5.36555C10.113 5.2685 10.1441 5.12019 10.4087 4.9499C10.6495 4.79335 10.9846 4.7137 11.4039 4.7137C11.9642 4.7137 12.2251 4.82173 12.3459 4.91328C12.5437 5.06159 12.7167 5.274 12.8669 5.55506C13.0198 5.81233 13.1617 5.99635 13.3018 6.11903C13.4757 6.27192 13.7156 6.34974 14.0149 6.34974C14.3409 6.34974 14.6293 6.22981 14.8472 6.00459C15.066 5.78211 15.1804 5.51112 15.1804 5.22273C15.1804 4.94807 15.1035 4.66426 14.9497 4.38227C14.8023 4.11128 14.5688 3.85127 14.2566 3.60957C13.9509 3.37428 13.5663 3.18476 13.1113 3.0456C12.6645 2.90827 12.1326 2.83778 11.5293 2.83778ZM11.5293 3.30653C12.085 3.30653 12.5712 3.3697 12.974 3.4933C13.3741 3.61598 13.7092 3.78077 13.9692 3.98036C14.2301 4.18269 14.4224 4.39326 14.5377 4.60658C14.6531 4.81898 14.7117 5.02681 14.7117 5.22273C14.7117 5.39118 14.6467 5.5395 14.5121 5.67683C14.3793 5.81416 14.2164 5.88099 14.0149 5.88099C13.8355 5.88099 13.6963 5.84162 13.6112 5.76747C13.5087 5.67683 13.397 5.52943 13.2761 5.32435C13.0985 4.99201 12.8797 4.72743 12.6279 4.53791C12.3652 4.34108 11.9651 4.24495 11.4039 4.24495C10.8921 4.24495 10.4709 4.34932 10.1533 4.55531C9.81634 4.77412 9.64422 5.04603 9.64422 5.36555C9.64422 5.56605 9.70739 5.74183 9.82733 5.88465C9.9381 6.02015 10.0937 6.13917 10.2915 6.23622C10.4783 6.3296 10.6678 6.40193 10.8545 6.45228C11.0358 6.50172 11.3407 6.57588 11.7655 6.67292C12.2764 6.78004 12.7515 6.90272 13.1772 7.0373C13.5901 7.16731 13.9445 7.32569 14.2301 7.50972C14.5084 7.68824 14.7281 7.91712 14.8838 8.18812C15.0385 8.46095 15.1172 8.80152 15.1172 9.19978C15.1172 9.67494 14.979 10.1089 14.7071 10.4888C14.4343 10.8715 14.025 11.1764 13.4913 11.3934C12.9493 11.6159 12.2983 11.7285 11.5549 11.7285C10.6614 11.7285 9.91705 11.5756 9.34301 11.2753C8.93926 11.061 8.60784 10.7708 8.35699 10.4119C8.1098 10.0622 7.98437 9.71888 7.98437 9.39204C7.98437 9.2245 8.04846 9.08351 8.18121 8.96083C8.31396 8.83631 8.48333 8.77497 8.69757 8.77497C8.86419 8.77497 9.0061 8.8235 9.11779 8.91688C9.23864 9.01759 9.34484 9.17323 9.43456 9.37922C9.55816 9.65937 9.69366 9.89375 9.83465 10.0769C9.9848 10.2737 10.1972 10.4367 10.4664 10.563C10.7346 10.6875 11.0843 10.7507 11.5064 10.7507C12.0896 10.7507 12.573 10.6243 12.9429 10.3753C13.3301 10.1162 13.527 9.78114 13.527 9.38197C13.527 9.06611 13.418 8.80519 13.2001 8.60377C12.9987 8.41883 12.736 8.2751 12.4183 8.17622C12.1097 8.08192 11.7023 7.98213 11.2098 7.87959C10.5469 7.73951 9.98937 7.57563 9.55175 7.39161C9.12329 7.21217 8.77905 6.96589 8.53002 6.65736C8.28649 6.35615 8.1629 5.97438 8.1629 5.52302C8.1629 5.09272 8.29382 4.70729 8.55383 4.37403C8.8175 4.03437 9.20568 3.7707 9.70831 3.58851C10.2201 3.40174 10.8326 3.30653 11.5293 3.30653ZM18.6997 3.79908C18.6695 3.79451 18.6384 3.79634 18.6072 3.80458L18.154 3.92634C18.0295 3.96022 17.9545 4.08839 17.9883 4.21382C18.0158 4.31819 18.111 4.38685 18.2145 4.38685C18.2346 4.38685 18.2548 4.38502 18.2749 4.37953L18.729 4.25868C18.8535 4.2248 18.9277 4.09571 18.8938 3.97029C18.8691 3.8769 18.7903 3.8119 18.6997 3.79908ZM4.92102 10.5484C4.89172 10.5438 4.85967 10.5456 4.82855 10.5538L4.37536 10.6756C4.25085 10.7095 4.17669 10.8377 4.21057 10.9631C4.23803 11.0675 4.33233 11.1361 4.43579 11.1361C4.45684 11.1361 4.47698 11.1343 4.49713 11.1288L4.95031 11.0079C5.07482 10.9741 5.14898 10.845 5.11511 10.7196C5.09039 10.6262 5.01165 10.5612 4.92102 10.5484ZM5.31652 11.6506C5.28631 11.6543 5.2561 11.6644 5.22863 11.6809L4.82214 11.9152C4.71044 11.9793 4.67199 12.1231 4.73699 12.2348C4.78094 12.3098 4.85876 12.3519 4.94024 12.3519C4.98052 12.3519 5.01989 12.3419 5.05651 12.3199L5.46301 12.0855C5.57562 12.0214 5.61315 11.8786 5.54907 11.766C5.49963 11.6818 5.40716 11.6397 5.31652 11.6506ZM6.07183 12.5955C6.01141 12.5955 5.9519 12.6184 5.90612 12.6632L5.5747 12.9956C5.48315 13.0871 5.48315 13.2354 5.5747 13.327C5.62048 13.3728 5.6809 13.3956 5.74133 13.3956C5.80084 13.3956 5.86126 13.3728 5.90612 13.327L6.23754 12.9956C6.33001 12.9031 6.33001 12.7548 6.23754 12.6632C6.19177 12.6184 6.13226 12.5955 6.07183 12.5955ZM7.04779 13.3233C6.95715 13.3123 6.86376 13.3554 6.81616 13.4396L6.58178 13.8452C6.51678 13.9569 6.55523 14.0997 6.66693 14.1647C6.70446 14.1857 6.74383 14.1967 6.78411 14.1967C6.8656 14.1967 6.94433 14.1546 6.98736 14.0795L7.22174 13.674C7.28674 13.5614 7.24829 13.4176 7.13568 13.3526C7.10821 13.337 7.078 13.327 7.04779 13.3233ZM8.08874 13.7802C7.9981 13.793 7.91937 13.858 7.89373 13.9523L7.77288 14.4055C7.73901 14.53 7.81408 14.6582 7.93859 14.692C7.95873 14.6975 7.97888 14.6994 7.99902 14.6994C8.10247 14.6994 8.19769 14.6307 8.22607 14.5263L8.34692 14.0731C8.38079 13.9486 8.30663 13.8195 8.18212 13.7866C8.15008 13.7774 8.11895 13.7756 8.08874 13.7802Z" fill="white" fill-opacity="0.7"/>
</g>
<defs>
<filter id="filter0_d" x="0" y="0" width="23" height="23" filterUnits="userSpaceOnUse" color-interpolation-filters="sRGB">
<feFlood flood-opacity="0" result="BackgroundImageFix"/>
<feColorMatrix in="SourceAlpha" type="matrix" values="0 0 0 0 0 0 0 0 0 0 0 0 0 0 0 0 0 0 127 0"/>
<feOffset dy="4"/>
<feGaussianBlur stdDeviation="2"/>
<feColorMatrix type="matrix" values="0 0 0 0 0 0 0 0 0 0 0 0 0 0 0 0 0 0 0.25 0"/>
<feBlend mode="normal" in2="BackgroundImageFix" result="effect1_dropShadow"/>
<feBlend mode="normal" in="SourceGraphic" in2="effect1_dropShadow" result="shape"/>
</filter>
</defs>
</svg>
