<svg width="19" height="17" viewBox="0 0 19 17" fill="none" xmlns="http://www.w3.org/2000/svg">
<path d="M15.2 3.73999C15.9325 3.73999 16.53 4.27456 16.53 4.92999V12.07C16.53 12.7254 15.9325 13.26 15.2 13.26H3.8C3.06746 13.26 2.47 12.7254 2.47 12.07V4.92999C2.47 4.27456 3.06746 3.73999 3.8 3.73999H15.2ZM15.2 4.07999H3.8C3.27453 4.07999 2.85223 4.45651 2.85 4.92667C2.85074 5.16972 2.98063 5.39749 3.19957 5.54093L9.5 9.67007L15.8004 5.54093C16.0194 5.39749 16.1493 5.16972 16.15 4.92667C16.1485 4.59265 15.9325 4.30843 15.6193 4.1703L9.55566 8.14339C9.52301 8.1653 9.47699 8.1653 9.44359 8.14339L6.33086 6.10339C6.28856 6.07616 6.27891 6.02304 6.31008 5.98452C6.34125 5.94667 6.40063 5.9387 6.44293 5.96659L9.5 7.97007L15.4041 4.10058C15.338 4.08796 15.2705 4.07999 15.2 4.07999ZM4.46203 4.6896C4.48281 4.6896 4.50434 4.69558 4.52141 4.70753L4.90141 4.95589C4.92961 4.97315 4.94594 5.0037 4.94297 5.03425C4.93926 5.06546 4.91774 5.09269 4.88508 5.10464C4.85316 5.11659 4.81606 5.11261 4.78934 5.09269L4.40934 4.84433C4.3752 4.82308 4.36109 4.78522 4.37297 4.75003C4.38484 4.71483 4.42047 4.69093 4.46203 4.6896ZM5.22203 5.18765C5.225 5.18765 5.22797 5.18765 5.23168 5.18831C5.24949 5.18897 5.26656 5.19495 5.28141 5.20491L6.04141 5.70296C6.06961 5.72022 6.08594 5.75077 6.08297 5.78132C6.07926 5.81253 6.05699 5.83976 6.02508 5.85171C5.99317 5.86366 5.95606 5.85968 5.92859 5.84042L5.16859 5.34237C5.1352 5.32112 5.12109 5.28261 5.13297 5.24808C5.14484 5.21288 5.18047 5.18831 5.22129 5.18765H5.22203ZM16.15 5.45925C16.0854 5.54226 16.006 5.61663 15.9125 5.67772C15.9125 5.67839 15.9125 5.67839 15.9125 5.67839L9.55641 9.84339C9.52301 9.8653 9.47699 9.8653 9.44434 9.84339L3.0875 5.67839C3.0875 5.67839 3.0875 5.67839 3.0875 5.67772C2.99399 5.61663 2.91457 5.54226 2.85 5.45925V12.07C2.85 12.5415 3.27305 12.92 3.8 12.92H15.2C15.727 12.92 16.15 12.5415 16.15 12.07V5.45925ZM14.7265 6.79866C14.7517 6.79933 14.7755 6.80862 14.7933 6.82456C14.8111 6.8405 14.8207 6.86241 14.82 6.88499V12.495C14.8207 12.5255 14.8022 12.5541 14.7732 12.5694C14.7436 12.5853 14.7064 12.5853 14.6768 12.5694C14.6478 12.5541 14.6293 12.5255 14.63 12.495V6.88499C14.6293 6.86175 14.6396 6.83983 14.6575 6.82323C14.676 6.80729 14.7005 6.798 14.7265 6.79866ZM4.27649 6.79866C4.30172 6.79933 4.32547 6.80862 4.34328 6.82456C4.36109 6.8405 4.37074 6.86241 4.37 6.88499V10.455C4.37074 10.4855 4.35219 10.5141 4.32324 10.5294C4.29356 10.5453 4.25645 10.5453 4.22676 10.5294C4.19781 10.5141 4.17926 10.4855 4.18 10.455V6.88499C4.17926 6.86175 4.18965 6.83983 4.20746 6.82323C4.22602 6.80729 4.25051 6.798 4.27649 6.79866ZM4.27649 10.8787C4.30172 10.8793 4.32547 10.8886 4.34328 10.9046C4.36109 10.9205 4.37074 10.9424 4.37 10.965V11.815C4.37074 11.8455 4.35219 11.8741 4.32324 11.8894C4.29356 11.9053 4.25645 11.9053 4.22676 11.8894C4.19781 11.8741 4.17926 11.8455 4.18 11.815V10.965C4.17926 10.9417 4.18965 10.9198 4.20746 10.9032C4.22602 10.8873 4.25051 10.878 4.27649 10.8787ZM4.27649 12.2387C4.30172 12.2393 4.32547 12.2486 4.34328 12.2646C4.36109 12.2805 4.37074 12.3024 4.37 12.325V12.495C4.37074 12.5255 4.35219 12.5541 4.32324 12.5694C4.29356 12.5853 4.25645 12.5853 4.22676 12.5694C4.19781 12.5541 4.17926 12.5255 4.18 12.495V12.325C4.17926 12.3017 4.18965 12.2798 4.20746 12.2632C4.22602 12.2473 4.25051 12.238 4.27649 12.2387Z" fill="white"/>
</svg>
